<?xml version="1.0" encoding="UTF-8" standalone="no"?>
<svg
   xmlns:dc="http://purl.org/dc/elements/1.1/"
   xmlns:cc="http://creativecommons.org/ns#"
   xmlns:rdf="http://www.w3.org/1999/02/22-rdf-syntax-ns#"
   xmlns:svg="http://www.w3.org/2000/svg"
   xmlns="http://www.w3.org/2000/svg"
   id="svg8"
   version="1.1"
   viewBox="0 0 510 300"
   height="300mm"
   width="510mm">
  <defs
     id="defs2" />
  <metadata
     id="metadata5">
    <rdf:RDF>
      <cc:Work
         rdf:about="">
        <dc:format>image/svg+xml</dc:format>
        <dc:type
           rdf:resource="http://purl.org/dc/dcmitype/StillImage" />
        <dc:title></dc:title>
      </cc:Work>
    </rdf:RDF>
  </metadata>
  <g
     transform="translate(0,-210)"
     style="display:none"
     id="layer5">
    <path
       id="rect815"
       d="M 204.13764,473.33714 H 154.1376 V 103.33705 h 50.00004 z m -0.0537,-9.9999 v -4.00029 h -4.00027 v 4.00029 z m 0,-345.99996 V 113.337 h -4.00027 v 4.00028 z"
       style="display:inline;opacity:1;vector-effect:none;fill:#a05a2c;fill-opacity:1;fill-rule:evenodd;stroke:none;stroke-width:0.69999999;stroke-linecap:round;stroke-linejoin:round;stroke-miterlimit:4;stroke-dasharray:none;stroke-dashoffset:0;stroke-opacity:1;paint-order:stroke fill markers" />
    <path
       id="path4993"
       d="M 7.0210138,473.33714 H 152.02092 V 103.33704 H 7.0210138 V 113.337 H 27.021341 v 4.00028 H 7.0210138 V 459.33695 H 27.021341 v 4.00029 H 7.0210138 Z"
       style="display:inline;opacity:1;vector-effect:none;fill:#a05a2c;fill-opacity:1;fill-rule:evenodd;stroke:none;stroke-width:0.70000005;stroke-linecap:round;stroke-linejoin:round;stroke-miterlimit:4;stroke-dasharray:none;stroke-dashoffset:0;stroke-opacity:1;paint-order:stroke fill markers" />
    <path
       style="display:inline;opacity:1;vector-effect:none;fill:#a05a2c;fill-opacity:1;fill-rule:evenodd;stroke:none;stroke-width:0.69999999;stroke-linecap:round;stroke-linejoin:round;stroke-miterlimit:4;stroke-dasharray:none;stroke-dashoffset:0;stroke-opacity:1;paint-order:stroke fill markers"
       d="m 206.71742,251.63617 0.78375,210.63472 41.73937,26.76453 -2.15921,3.36696 -39.56227,-25.36807 0.0477,12.81904 c 0.003,0.67614 -0.66575,1.78334 -1.77444,1.78744 l -13.21918,0.0493 c -5.53997,0.0206 -9.98338,4.49728 -9.96276,10.03729 l 0.005,1.42084 2.5e-4,0.0912 0.0192,5.18083 c 0.007,1.83221 1.48789,3.30163 3.32011,3.2948 l 18.51989,-0.0685 3.17228,-0.0119 42.39191,-0.15743 c 3.58487,-0.0132 7.00558,-4.09421 7.57608,-7.63341 l 26.81767,-166.36302 -41.55976,0.15484 -0.0152,-3.99987 42.2202,-0.15732 3.25583,-20.1943 -46.72629,12.70662 -1.04959,-3.85974 48.4747,-13.18239 4.26389,-26.45278 -55.25225,32.17452 -2.01318,-3.45696 58.08821,-33.82558 2.59313,-16.08641 -72.4163,0.2692 0.44521,119.60942 -3.99988,0.0153 -0.44511,-119.60996 z m 19.12447,149.36415 a 18.334688,18.334688 0 0 1 21.01708,-15.18531 18.334688,18.334688 0 0 1 15.18587,21.01664 18.334688,18.334688 0 0 1 -21.01714,15.18579 18.334688,18.334688 0 0 1 -15.18581,-21.01712 z m 0.39572,49.50436 a 14.203151,14.203151 0 0 1 16.28117,-11.76388 14.203151,14.203151 0 0 1 11.76386,16.28119 14.203151,14.203151 0 0 1 -16.28118,11.76388 14.203151,14.203151 0 0 1 -11.76385,-16.28119 z m 24.60802,-91.59801 a 9.3388453,9.3388453 0 0 1 10.70525,-7.73501 9.3388453,9.3388453 0 0 1 7.73498,10.70525 9.3388453,9.3388453 0 0 1 -10.70513,7.73448 9.3388453,9.3388453 0 0 1 -7.7351,-10.70472 z"
       id="path4881" />
    <path
       id="path4883"
       d="M 5.3799897,98.154002 216.01465,97.370251 242.77918,55.63088 l 3.36694,2.159212 -25.36806,39.56227 12.81904,-0.0477 c 0.67615,-0.003 1.78335,0.66575 1.78746,1.774439 l 0.0493,13.219179 c 0.0206,5.53997 4.4973,9.98338 10.03728,9.96276 l 1.42086,-0.005 0.0912,-2.5e-4 5.18082,-0.0192 c 1.83221,-0.007 3.30164,-1.48789 3.29482,-3.32011 l -0.0685,-18.51989 -0.0119,-3.17228 -0.15741,-42.391909 c -0.0133,-3.584861 -4.09422,-7.005572 -7.63342,-7.576071 L 81.224639,20.438651 l 0.154829,41.559761 -3.99986,0.0152 -0.157321,-42.220211 -20.194299,-3.25581 12.70662,46.72628 -3.859739,1.049589 -13.18238,-48.474709 -26.452771,-4.26389 32.174509,55.25226 -3.456979,2.01318 -33.82555,-58.0882 L 5.0452896,8.1589708 5.3144897,80.575271 124.92385,80.130061 124.93904,84.129932 5.3291465,84.575043 Z M 154.74408,79.029532 a 18.334688,18.334688 0 0 1 -15.18533,-21.017071 18.334688,18.334688 0 0 1 21.01666,-15.185869 18.334688,18.334688 0 0 1 15.1858,21.01713 18.334688,18.334688 0 0 1 -21.01713,15.18581 z m 49.50435,-0.395721 a 14.203151,14.203151 0 0 1 -11.76386,-16.28117 14.203151,14.203151 0 0 1 16.28118,-11.763859 14.203151,14.203151 0 0 1 11.76388,16.28118 14.203151,14.203151 0 0 1 -16.2812,11.763849 z M 112.65044,54.025802 a 9.3388453,9.3388453 0 0 1 -7.73501,-10.705262 9.3388453,9.3388453 0 0 1 10.70524,-7.73498 9.3388453,9.3388453 0 0 1 7.7345,10.705142 9.3388453,9.3388453 0 0 1 -10.70473,7.7351 z"
       style="display:inline;opacity:1;vector-effect:none;fill:#a05a2c;fill-opacity:1;fill-rule:evenodd;stroke:none;stroke-width:0.69999999;stroke-linecap:round;stroke-linejoin:round;stroke-miterlimit:4;stroke-dasharray:none;stroke-dashoffset:0;stroke-opacity:1;paint-order:stroke fill markers" />
    <path
       id="path4991"
       d="m 55.162259,327.79822 10.157518,-18.57301 11.033432,-7.25688 15.461589,14.29571 v 12.91756 l -11.32385,11.10268 -13.283951,2.03191 z"
       style="display:inline;opacity:1;vector-effect:none;fill:#000000;fill-opacity:1;fill-rule:evenodd;stroke:none;stroke-width:0.70000005;stroke-linecap:round;stroke-linejoin:round;stroke-miterlimit:4;stroke-dasharray:none;stroke-dashoffset:0;stroke-opacity:1;paint-order:stroke fill markers" />
    <path
       id="rect847"
       d="m 55.162259,248.87603 12.044738,-14.51798 13.283951,2.03192 11.32385,11.10268 v 12.91756 l -15.461589,14.29577 -11.033432,-7.25693 z"
       style="display:inline;opacity:1;vector-effect:none;fill:#000000;fill-opacity:1;fill-rule:evenodd;stroke:none;stroke-width:0.70000005;stroke-linecap:round;stroke-linejoin:round;stroke-miterlimit:4;stroke-dasharray:none;stroke-dashoffset:0;stroke-opacity:1;paint-order:stroke fill markers" />
    <path
       id="path4737"
       d="m 42.952403,226.55553 22.367414,40.89359 11.03345,7.25685 33.100223,-30.55133 -30.896212,44.18254 -23.28623,-14.9836 z"
       style="display:inline;fill:none;fill-opacity:1;stroke:#ff0000;stroke-width:0.26458332px;stroke-linecap:butt;stroke-linejoin:miter;stroke-opacity:1" />
    <path
       style="display:inline;fill:#333333;fill-opacity:1;stroke:#ff0000;stroke-width:0.26458332px;stroke-linecap:butt;stroke-linejoin:miter;stroke-opacity:1"
       d="m 131.8833,292.09909 -24.05271,5.26928 9.86992,20.28872 z"
       id="path4785" />
    <path
       style="display:inline;fill:#999999;fill-opacity:1;stroke:#ff0000;stroke-width:0.26458332px;stroke-linecap:butt;stroke-linejoin:miter;stroke-opacity:1"
       d="m 80.490779,340.28443 7.014059,11.78421 -20.297711,17.95977 v -27.71206 z"
       id="path4771" />
    <path
       id="path4731"
       d="m 18.718132,288.33718 7.83955,-34.31322 32.519534,34.31322 z"
       style="display:inline;fill:#999999;fill-opacity:1;stroke:#ff0000;stroke-width:0.26458332px;stroke-linecap:butt;stroke-linejoin:miter;stroke-opacity:1" />
    <path
       id="path4733"
       d="m 26.557682,254.02396 16.394721,-27.46843 16.124813,61.78165 z"
       style="display:inline;fill:#999999;fill-opacity:1;stroke:#ff0000;stroke-width:0.26458332px;stroke-linecap:butt;stroke-linejoin:miter;stroke-opacity:1" />
    <path
       id="path4739"
       d="m 67.207127,234.3579 v -27.71206 l -24.254724,19.90969 12.209634,22.3206 z"
       style="display:inline;fill:#999999;fill-opacity:1;stroke:#ff0000;stroke-width:0.26458332px;stroke-linecap:butt;stroke-linejoin:miter;stroke-opacity:1" />
    <path
       id="path4741"
       d="m 80.490779,236.38981 7.014059,-11.7842 -20.297711,-17.95977 v 27.71206 z"
       style="display:inline;fill:#999999;fill-opacity:1;stroke:#ff0000;stroke-width:0.26458332px;stroke-linecap:butt;stroke-linejoin:miter;stroke-opacity:1" />
    <path
       id="path4743"
       d="M 87.504838,224.60561 105.36686,240.51285 91.814557,247.4928 80.490779,236.38981 Z"
       style="display:inline;fill:#999999;fill-opacity:1;stroke:#ff0000;stroke-width:0.26458332px;stroke-linecap:butt;stroke-linejoin:miter;stroke-opacity:1" />
    <path
       id="path4745"
       d="m 105.36686,240.51285 4.08663,3.64179 -17.638933,16.25534 V 247.4928 Z"
       style="display:inline;fill:#999999;fill-opacity:1;stroke:#ff0000;stroke-width:0.26458332px;stroke-linecap:butt;stroke-linejoin:miter;stroke-opacity:1" />
    <path
       id="path4747"
       d="m 67.207127,206.64584 44.934983,-6.67077 -2.68862,44.17957 z"
       style="display:inline;fill:#999999;fill-opacity:1;stroke:#ff0000;stroke-width:0.26458332px;stroke-linecap:butt;stroke-linejoin:miter;stroke-opacity:1" />
    <path
       id="path4749"
       d="m 112.14211,199.97507 20.97518,84.89048 -1.23399,-0.29027 -22.42981,-40.42064 z"
       style="display:inline;fill:#333333;fill-opacity:1;stroke:#ff0000;stroke-width:0.26458332px;stroke-linecap:butt;stroke-linejoin:miter;stroke-opacity:1" />
    <path
       id="path4751"
       d="m 78.557278,288.33718 39.143212,-29.32002 -8.247,-14.86252 z"
       style="display:inline;fill:#999999;fill-opacity:1;stroke:#ff0000;stroke-width:0.26458332px;stroke-linecap:butt;stroke-linejoin:miter;stroke-opacity:1" />
    <path
       id="path4753"
       d="m 78.557278,288.33718 h 16.338751 l 12.934561,-9.03121 -10.88145,-4.61823 z"
       style="display:inline;fill:#999999;fill-opacity:1;stroke:#ff0000;stroke-width:0.26458332px;stroke-linecap:butt;stroke-linejoin:miter;stroke-opacity:1" />
    <path
       id="path4755"
       d="m 131.8833,284.57528 -24.05271,-5.26931 9.86992,-20.28881 z"
       style="display:inline;fill:#333333;fill-opacity:1;stroke:#ff0000;stroke-width:0.26458332px;stroke-linecap:butt;stroke-linejoin:miter;stroke-opacity:1" />
    <path
       id="path4757"
       d="m 94.896029,288.33718 h 54.118101 l -41.18354,-9.03121 z"
       style="display:inline;fill:none;fill-opacity:1;stroke:#ff0000;stroke-width:0.26458332px;stroke-linecap:butt;stroke-linejoin:miter;stroke-opacity:1" />
    <path
       id="path4759"
       d="M 78.557278,288.33718 H 59.077216 l -3.806168,-14.9836 z"
       style="display:inline;fill:#999999;fill-opacity:1;stroke:#ff0000;stroke-width:0.26458332px;stroke-linecap:butt;stroke-linejoin:miter;stroke-opacity:1" />
    <path
       style="display:inline;fill:#999999;fill-opacity:1;stroke:#ff0000;stroke-width:0.26458332px;stroke-linecap:butt;stroke-linejoin:miter;stroke-opacity:1"
       d="m 18.718132,288.33718 7.83955,34.31311 32.519534,-34.31311 z"
       id="path4761" />
    <path
       style="display:inline;fill:#999999;fill-opacity:1;stroke:#ff0000;stroke-width:0.26458332px;stroke-linecap:butt;stroke-linejoin:miter;stroke-opacity:1"
       d="m 26.557682,322.65029 16.394721,27.46843 16.124813,-61.78154 z"
       id="path4763" />
    <path
       style="display:inline;fill:none;fill-opacity:1;stroke:#ff0000;stroke-width:0.26458332px;stroke-linecap:butt;stroke-linejoin:miter;stroke-opacity:1"
       d="m 42.952403,350.11872 22.367414,-40.89357 11.03345,-7.25682 33.100223,30.55128 -30.896212,-44.18243 -23.28623,14.98354 z"
       id="path4767" />
    <path
       style="display:inline;fill:#999999;fill-opacity:1;stroke:#ff0000;stroke-width:0.26458332px;stroke-linecap:butt;stroke-linejoin:miter;stroke-opacity:1"
       d="m 67.207127,342.31635 v 27.71206 L 42.952403,350.11872 55.162037,327.79813 Z"
       id="path4769" />
    <path
       style="display:inline;fill:#999999;fill-opacity:1;stroke:#ff0000;stroke-width:0.26458332px;stroke-linecap:butt;stroke-linejoin:miter;stroke-opacity:1"
       d="M 87.504838,352.06864 105.36686,336.16139 91.814557,329.18146 80.490779,340.28443 Z"
       id="path4773" />
    <path
       style="display:inline;fill:#999999;fill-opacity:1;stroke:#ff0000;stroke-width:0.26458332px;stroke-linecap:butt;stroke-linejoin:miter;stroke-opacity:1"
       d="m 105.36686,336.16141 4.08663,-3.6418 -17.638933,-16.25535 v 12.9172 z"
       id="path4775" />
    <path
       style="display:inline;fill:#999999;fill-opacity:1;stroke:#ff0000;stroke-width:0.26458332px;stroke-linecap:butt;stroke-linejoin:miter;stroke-opacity:1"
       d="m 67.207127,370.02841 44.934983,6.67078 -2.68862,-44.17958 z"
       id="path4777" />
    <path
       style="display:inline;fill:#333333;fill-opacity:1;stroke:#ff0000;stroke-width:0.26458332px;stroke-linecap:butt;stroke-linejoin:miter;stroke-opacity:1"
       d="m 112.14211,376.69919 20.97518,-84.89038 -1.23399,0.29028 -22.42981,40.42052 z"
       id="path4779" />
    <path
       style="display:inline;fill:#999999;fill-opacity:1;stroke:#ff0000;stroke-width:0.26458332px;stroke-linecap:butt;stroke-linejoin:miter;stroke-opacity:1"
       d="m 78.557278,288.33718 39.143212,29.31991 -8.247,14.86252 z"
       id="path4781" />
    <path
       style="display:inline;fill:#999999;fill-opacity:1;stroke:#ff0000;stroke-width:0.26458332px;stroke-linecap:butt;stroke-linejoin:miter;stroke-opacity:1"
       d="m 78.557278,288.33718 h 16.338751 l 12.934561,9.03119 -10.88145,4.61819 z"
       id="path4783" />
    <path
       style="display:inline;fill:none;fill-opacity:1;stroke:#ff0000;stroke-width:0.26458332px;stroke-linecap:butt;stroke-linejoin:miter;stroke-opacity:1"
       d="m 94.896029,288.33718 h 54.118101 l -41.18354,9.03119 z"
       id="path4787" />
    <path
       style="display:inline;fill:#999999;fill-opacity:1;stroke:#ff0000;stroke-width:0.26458332px;stroke-linecap:butt;stroke-linejoin:miter;stroke-opacity:1"
       d="M 78.557278,288.33718 H 59.077216 l -3.806168,14.98354 z"
       id="path4789" />
    <path
       id="path4809"
       d="m 107.83059,279.30597 -10.88145,-4.61823 20.75137,-15.67058 z"
       style="display:inline;fill:none;fill-opacity:1;stroke:#ff0000;stroke-width:0.26458332px;stroke-linecap:butt;stroke-linejoin:miter;stroke-opacity:1" />
    <path
       id="path4811"
       d="m 117.70051,317.65709 -20.75137,-15.67053 10.88145,-4.61819 z"
       style="display:inline;fill:none;fill-opacity:1;stroke:#ff0000;stroke-width:0.26458332px;stroke-linecap:butt;stroke-linejoin:miter;stroke-opacity:1" />
    <path
       id="path4737-3"
       d="m 42.952403,226.55554 22.367414,40.8936 11.03345,7.25685 33.100223,-30.55133 -30.896212,44.18254 -23.28623,-14.9836 z"
       style="display:inline;fill:none;fill-opacity:1;stroke:#ff0000;stroke-width:0.26458332px;stroke-linecap:butt;stroke-linejoin:miter;stroke-opacity:1" />
    <path
       style="display:inline;fill:#333333;fill-opacity:1;stroke:#ff0000;stroke-width:0.26458332px;stroke-linecap:butt;stroke-linejoin:miter;stroke-opacity:1"
       d="m 131.88331,292.09911 -24.05272,5.26928 9.86992,20.28871 z"
       id="path4785-6" />
    <path
       style="display:inline;fill:#999999;fill-opacity:1;stroke:#ff0000;stroke-width:0.26458332px;stroke-linecap:butt;stroke-linejoin:miter;stroke-opacity:1"
       d="m 80.490779,340.28444 7.014059,11.78421 -20.297711,17.95977 v -27.71206 z"
       id="path4771-7" />
    <path
       id="path4731-5"
       d="m 18.718132,288.3372 7.83955,-34.31322 32.519534,34.31322 z"
       style="display:inline;fill:#999999;fill-opacity:1;stroke:#ff0000;stroke-width:0.26458332px;stroke-linecap:butt;stroke-linejoin:miter;stroke-opacity:1" />
    <path
       id="path4733-3"
       d="M 26.557682,254.02398 42.952403,226.55554 59.077216,288.3372 Z"
       style="display:inline;fill:#999999;fill-opacity:1;stroke:#ff0000;stroke-width:0.26458332px;stroke-linecap:butt;stroke-linejoin:miter;stroke-opacity:1" />
    <path
       id="path4739-5"
       d="m 67.207127,234.35792 v -27.71206 l -24.254724,19.90968 12.209634,22.32061 z"
       style="display:inline;fill:#999999;fill-opacity:1;stroke:#ff0000;stroke-width:0.26458332px;stroke-linecap:butt;stroke-linejoin:miter;stroke-opacity:1" />
    <path
       id="path4741-6"
       d="m 80.490779,236.38983 7.014059,-11.7842 -20.297711,-17.95977 v 27.71206 z"
       style="display:inline;fill:#999999;fill-opacity:1;stroke:#ff0000;stroke-width:0.26458332px;stroke-linecap:butt;stroke-linejoin:miter;stroke-opacity:1" />
    <path
       id="path4743-2"
       d="m 87.504838,224.60563 17.862022,15.90724 -13.552303,6.97994 -11.323778,-11.10298 z"
       style="display:inline;fill:#999999;fill-opacity:1;stroke:#ff0000;stroke-width:0.26458332px;stroke-linecap:butt;stroke-linejoin:miter;stroke-opacity:1" />
    <path
       id="path4745-9"
       d="m 105.36686,240.51287 4.08663,3.64179 L 91.814557,260.41 v -12.91719 z"
       style="display:inline;fill:#999999;fill-opacity:1;stroke:#ff0000;stroke-width:0.26458332px;stroke-linecap:butt;stroke-linejoin:miter;stroke-opacity:1" />
    <path
       id="path4747-1"
       d="m 67.207127,206.64586 44.934983,-6.67077 -2.68862,44.17957 z"
       style="display:inline;fill:#999999;fill-opacity:1;stroke:#ff0000;stroke-width:0.26458332px;stroke-linecap:butt;stroke-linejoin:miter;stroke-opacity:1" />
    <path
       id="path4749-2"
       d="m 112.14211,199.97509 20.97518,84.89048 -1.23398,-0.29027 -22.42982,-40.42064 z"
       style="display:inline;fill:#333333;fill-opacity:1;stroke:#ff0000;stroke-width:0.26458332px;stroke-linecap:butt;stroke-linejoin:miter;stroke-opacity:1" />
    <path
       id="path4751-7"
       d="m 78.557278,288.3372 39.143212,-29.32002 -8.247,-14.86252 z"
       style="display:inline;fill:#999999;fill-opacity:1;stroke:#ff0000;stroke-width:0.26458332px;stroke-linecap:butt;stroke-linejoin:miter;stroke-opacity:1" />
    <path
       id="path4753-0"
       d="m 78.557278,288.3372 h 16.338751 l 12.934561,-9.03121 -10.88145,-4.61823 z"
       style="display:inline;fill:#999999;fill-opacity:1;stroke:#ff0000;stroke-width:0.26458332px;stroke-linecap:butt;stroke-linejoin:miter;stroke-opacity:1" />
    <path
       id="path4755-9"
       d="m 131.88331,284.5753 -24.05272,-5.26931 9.86992,-20.28881 z"
       style="display:inline;fill:#333333;fill-opacity:1;stroke:#ff0000;stroke-width:0.26458332px;stroke-linecap:butt;stroke-linejoin:miter;stroke-opacity:1" />
    <path
       id="path4757-3"
       d="m 94.896029,288.3372 h 54.118101 l -41.18354,-9.03121 z"
       style="display:inline;fill:none;fill-opacity:1;stroke:#ff0000;stroke-width:0.26458332px;stroke-linecap:butt;stroke-linejoin:miter;stroke-opacity:1" />
    <path
       id="path4759-6"
       d="M 78.557278,288.3372 H 59.077216 l -3.806168,-14.9836 z"
       style="display:inline;fill:#999999;fill-opacity:1;stroke:#ff0000;stroke-width:0.26458332px;stroke-linecap:butt;stroke-linejoin:miter;stroke-opacity:1" />
    <path
       style="display:inline;fill:#999999;fill-opacity:1;stroke:#ff0000;stroke-width:0.26458332px;stroke-linecap:butt;stroke-linejoin:miter;stroke-opacity:1"
       d="m 18.718132,288.3372 7.83955,34.3131 32.519534,-34.3131 z"
       id="path4761-0" />
    <path
       style="display:inline;fill:#999999;fill-opacity:1;stroke:#ff0000;stroke-width:0.26458332px;stroke-linecap:butt;stroke-linejoin:miter;stroke-opacity:1"
       d="M 26.557682,322.6503 42.952403,350.11873 59.077216,288.3372 Z"
       id="path4763-6" />
    <path
       style="display:inline;fill:none;fill-opacity:1;stroke:#ff0000;stroke-width:0.26458332px;stroke-linecap:butt;stroke-linejoin:miter;stroke-opacity:1"
       d="m 42.952403,350.11873 22.367414,-40.89357 11.03345,-7.25682 33.100223,30.55128 -30.896212,-44.18242 -23.28623,14.98353 z"
       id="path4767-2" />
    <path
       style="display:inline;fill:#999999;fill-opacity:1;stroke:#ff0000;stroke-width:0.26458332px;stroke-linecap:butt;stroke-linejoin:miter;stroke-opacity:1"
       d="m 67.207127,342.31636 v 27.71206 L 42.952403,350.11873 55.162037,327.79814 Z"
       id="path4769-6" />
    <path
       style="display:inline;fill:#999999;fill-opacity:1;stroke:#ff0000;stroke-width:0.26458332px;stroke-linecap:butt;stroke-linejoin:miter;stroke-opacity:1"
       d="M 87.504838,352.06865 105.36686,336.1614 91.814557,329.18147 80.490779,340.28444 Z"
       id="path4773-1" />
    <path
       style="display:inline;fill:#999999;fill-opacity:1;stroke:#ff0000;stroke-width:0.26458332px;stroke-linecap:butt;stroke-linejoin:miter;stroke-opacity:1"
       d="m 105.36686,336.16142 4.08663,-3.6418 -17.638933,-16.25535 v 12.9172 z"
       id="path4775-8" />
    <path
       style="display:inline;fill:#999999;fill-opacity:1;stroke:#ff0000;stroke-width:0.26458332px;stroke-linecap:butt;stroke-linejoin:miter;stroke-opacity:1"
       d="m 67.207127,370.02842 44.934983,6.67078 -2.68862,-44.17958 z"
       id="path4777-7" />
    <path
       style="display:inline;fill:#333333;fill-opacity:1;stroke:#ff0000;stroke-width:0.26458332px;stroke-linecap:butt;stroke-linejoin:miter;stroke-opacity:1"
       d="m 112.14211,376.6992 20.97518,-84.89037 -1.23398,0.29028 -22.42982,40.42051 z"
       id="path4779-9" />
    <path
       style="display:inline;fill:#999999;fill-opacity:1;stroke:#ff0000;stroke-width:0.26458332px;stroke-linecap:butt;stroke-linejoin:miter;stroke-opacity:1"
       d="m 78.557278,288.3372 39.143212,29.3199 -8.247,14.86252 z"
       id="path4781-2" />
    <path
       style="display:inline;fill:#999999;fill-opacity:1;stroke:#ff0000;stroke-width:0.26458332px;stroke-linecap:butt;stroke-linejoin:miter;stroke-opacity:1"
       d="m 78.557278,288.3372 h 16.338751 l 12.934561,9.03119 -10.88145,4.61818 z"
       id="path4783-0" />
    <path
       style="display:inline;fill:none;fill-opacity:1;stroke:#ff0000;stroke-width:0.26458332px;stroke-linecap:butt;stroke-linejoin:miter;stroke-opacity:1"
       d="m 94.896029,288.3372 h 54.118101 l -41.18354,9.03119 z"
       id="path4787-2" />
    <path
       style="display:inline;fill:#999999;fill-opacity:1;stroke:#ff0000;stroke-width:0.26458332px;stroke-linecap:butt;stroke-linejoin:miter;stroke-opacity:1"
       d="M 78.557278,288.3372 H 59.077216 l -3.806168,14.98353 z"
       id="path4789-3" />
    <path
       id="path4809-7"
       d="m 107.83059,279.30599 -10.88145,-4.61823 20.75137,-15.67058 z"
       style="display:inline;fill:none;fill-opacity:1;stroke:#ff0000;stroke-width:0.26458332px;stroke-linecap:butt;stroke-linejoin:miter;stroke-opacity:1" />
    <path
       id="path4811-5"
       d="m 117.70051,317.6571 -20.75137,-15.67053 10.88145,-4.61818 z"
       style="display:inline;fill:none;fill-opacity:1;stroke:#ff0000;stroke-width:0.26458332px;stroke-linecap:butt;stroke-linejoin:miter;stroke-opacity:1" />
  </g>
  <g
     transform="translate(0,-210)"
     id="layer4">
    <path
       id="path1550"
       transform="matrix(0.26458333,0,0,0.26458333,0,210)"
       d="M 21.244141 576.60352 L 21.244141 765.58008 L 59.039062 765.27148 L 59.039062 693.56836 L 74.158203 693.56836 L 74.158203 765.58008 L 1246.7559 765.58008 L 1246.7559 693.56836 L 1261.875 693.56836 L 1261.875 765.58008 L 1299.6699 765.58008 L 1299.6699 576.60352 L 21.244141 576.60352 z M 160.24219 650.875 L 208.0957 650.875 L 208.0957 738.89453 L 188.95117 738.89453 L 188.95117 673.24023 L 179.37891 673.24023 L 179.37891 738.89453 L 160.24219 738.89453 L 160.24219 650.875 z M 562.81641 650.875 L 610.68359 650.875 L 610.68359 738.89453 L 591.5332 738.89453 L 591.5332 673.24023 L 581.9668 673.24023 L 581.9668 738.89453 L 562.81641 738.89453 L 562.81641 650.875 z M 102.81445 651.33984 L 121.93945 651.33984 L 121.93945 684.18164 L 131.51758 684.18164 L 131.51758 651.33984 L 150.66992 651.33984 L 150.66992 738.89453 L 131.51758 738.89453 L 131.51758 706.06055 L 121.93945 706.06055 L 121.93945 738.89453 L 102.81445 738.89453 L 102.81445 651.33984 z M 217.67383 651.33984 L 265.5293 651.33984 L 265.5293 673.24023 L 236.8125 673.24023 L 236.8125 717.00391 L 265.5293 717.00391 L 265.5293 738.89453 L 217.67383 738.89453 L 217.67383 651.33984 z M 275.11523 651.33984 L 294.25977 651.33984 L 294.25977 684.18164 L 303.81836 673.24023 L 303.81836 651.33984 L 322.96875 651.33984 L 322.96875 684.18164 L 313.39648 695.125 L 322.96875 706.06055 L 322.96875 738.89453 L 303.81836 738.89453 L 303.81836 717.00391 L 294.25977 706.06055 L 294.25977 738.89453 L 275.11523 738.89453 L 275.11523 651.33984 z M 332.54102 651.33984 L 380.39648 651.33984 L 380.39648 673.24023 L 351.67969 673.24023 L 351.67969 684.18164 L 370.83008 684.18164 L 370.83008 706.06055 L 351.67969 706.06055 L 351.67969 717.00391 L 380.39648 717.00391 L 380.39648 738.89453 L 332.54102 738.89453 L 332.54102 651.33984 z M 389.98242 651.33984 L 437.8418 651.33984 L 437.8418 684.17578 L 428.26367 695.11719 L 437.8418 706.05273 L 437.8418 738.88867 L 418.69141 738.88867 L 418.69141 717.00391 L 409.11328 706.05273 L 409.11328 738.88867 L 389.98242 738.88867 L 389.98242 706.42969 L 418.69141 673.23242 L 409.11328 673.23242 L 389.98242 673.23242 L 389.98242 651.33984 z M 447.94922 651.33984 L 495.81836 651.33984 L 495.81836 673.24023 L 467.10156 673.24023 L 467.10156 684.18164 L 495.81836 684.18164 L 495.81836 738.89453 L 447.94922 738.89453 L 447.94922 717.00391 L 476.66016 717.00391 L 476.66016 706.06055 L 447.94922 706.06055 L 447.94922 651.33984 z M 505.36914 651.33984 L 553.23633 651.33984 L 553.23633 684.18164 L 524.51953 717.00391 L 524.51953 738.88867 L 505.36914 738.88867 L 505.36914 706.44727 L 534.0918 673.23242 L 524.51953 673.23242 L 505.36914 673.23242 L 505.36914 651.33984 z M 620.24219 651.33984 L 668.10352 651.33984 L 668.10352 673.24023 L 639.39453 673.24023 L 639.39453 717.00391 L 668.10352 717.00391 L 668.10352 738.89453 L 620.24219 738.89453 L 620.24219 651.33984 z M 677.68359 651.33984 L 725.55078 651.33984 L 725.55078 673.24023 L 696.84766 673.24023 L 696.84766 684.18164 L 715.96484 684.18164 L 715.96484 706.06055 L 696.84766 706.06055 L 696.84766 717.00391 L 725.55078 717.00391 L 725.55078 738.89453 L 677.68359 738.89453 L 677.68359 651.33984 z M 760.35938 651.33984 L 808.33008 651.33984 L 808.33008 684.17188 L 798.73633 695.11328 L 808.33008 706.05859 L 808.33008 738.88867 L 760.35938 738.88867 L 760.35938 712.44141 L 779.54883 712.44141 L 779.54883 717 L 789.14258 717 L 769.95508 695.11133 L 789.14258 673.22461 L 779.54883 673.22461 L 779.54883 677.7832 L 760.35938 677.7832 L 760.35938 651.33984 z M 817.91016 651.33984 L 865.76953 651.33984 L 865.76953 684.17578 L 856.19141 695.11719 L 865.76953 706.05273 L 865.76953 738.88867 L 846.61914 738.88867 L 846.61914 717.00391 L 837.04102 706.05273 L 837.04102 738.88867 L 817.91016 738.88867 L 817.91016 706.42969 L 846.61914 673.23242 L 837.04102 673.23242 L 817.91016 673.23242 L 817.91016 651.33984 z M 875.3418 651.33984 L 894.47266 651.33984 L 894.47266 717.00391 L 904.05273 717.00391 L 904.05273 651.33984 L 923.20312 651.33984 L 923.20312 738.89453 L 875.3418 738.89453 L 875.3418 651.33984 z M 932.77539 651.33984 L 980.63672 651.33984 L 980.63672 673.24023 L 951.91992 673.24023 L 951.91992 684.18164 L 980.63672 684.18164 L 980.63672 738.89453 L 932.77539 738.89453 L 932.77539 717.00391 L 961.49805 717.00391 L 961.49805 706.06055 L 932.77539 706.06055 L 932.77539 651.33984 z M 990.20117 651.33984 L 1038.0625 651.33984 L 1038.0625 673.24023 L 1009.3535 673.24023 L 1009.3535 684.18164 L 1038.0625 684.18164 L 1038.0625 738.89453 L 990.20117 738.89453 L 990.20117 717.00391 L 1018.9316 717.00391 L 1018.9316 706.06055 L 990.20117 706.06055 L 990.20117 651.33984 z M 1047.6426 651.33984 L 1095.4961 651.33984 L 1095.4961 673.24023 L 1066.7871 673.24023 L 1066.7871 684.18164 L 1085.9375 684.18164 L 1085.9375 706.06055 L 1066.7871 706.06055 L 1066.7871 717.00391 L 1095.4961 717.00391 L 1095.4961 738.89453 L 1047.6426 738.89453 L 1047.6426 651.33984 z M 1105.0762 651.33984 L 1124.2207 651.33984 L 1124.2207 717.00391 L 1152.9434 717.00391 L 1152.9434 738.89453 L 1105.0762 738.89453 L 1105.0762 651.33984 z M 1162.5098 651.33984 L 1210.3555 651.33984 L 1210.3555 673.24023 L 1181.6543 673.24023 L 1181.6543 684.18164 L 1210.3555 684.18164 L 1210.3555 738.89453 L 1162.5098 738.89453 L 1162.5098 717.00391 L 1191.2109 717.00391 L 1191.2109 706.06055 L 1162.5098 706.06055 L 1162.5098 651.33984 z "
       style="display:inline;opacity:1;vector-effect:none;fill:#a05a2c;fill-opacity:1;fill-rule:evenodd;stroke:none;stroke-width:2.64566922;stroke-linecap:round;stroke-linejoin:round;stroke-miterlimit:4;stroke-dasharray:none;stroke-dashoffset:0;stroke-opacity:1;paint-order:stroke fill markers" />
    <path
       id="path1827"
       transform="matrix(0.26458333,0,0,0.26458333,0,210)"
       d="M 21.244141 20.572266 L 21.244141 568.60352 L 1299.6699 568.60352 L 1299.6699 20.572266 L 1261.875 20.572266 L 1261.875 96.164062 L 1246.7559 96.164062 L 1246.7559 20.572266 L 74.158203 20.572266 L 74.158203 96.164062 L 59.039062 96.164062 L 59.039062 20.572266 L 21.244141 20.572266 z M 671.96094 63.710938 L 685.41797 64.746094 L 701.30664 69.595703 L 706.82812 74.527344 L 708.98242 79.416016 L 696.43359 77.669922 L 686.63672 76.667969 L 678.35547 82.708984 L 677.44531 81.462891 L 686.20703 75.074219 L 696.61719 76.140625 L 706.46094 77.507812 L 705.48633 75.304688 L 700.41797 70.865234 L 685.13477 66.251953 L 671.98438 65.246094 L 657.75 66.800781 L 647.22266 68.335938 L 636.24219 72.912109 L 613.78711 90.080078 L 612.33203 88.867188 L 635.53711 71.537109 L 646.90234 66.822266 L 657.55469 65.271484 L 671.96094 63.710938 z M 707.45508 81.066406 L 718.40234 85.302734 L 725.51758 92.746094 L 729.24219 101.34375 L 732.49219 108.57422 L 731.26367 109.12891 L 728.00781 101.88672 L 724.33008 93.392578 L 717.53711 86.347656 L 706.97461 82.326172 L 707.45508 81.066406 z M 621.5293 88.677734 L 622.83789 89.636719 L 614.01172 99.931641 L 622.4668 97.876953 L 605.28711 118.51172 L 604.35352 117.32617 L 618.31445 100.47266 L 609.73242 102.55859 L 621.5293 88.677734 z M 736.57227 110.30664 L 744.48828 113.05273 L 747.3457 119.22461 L 750.61914 136.19336 L 739.35547 147.69727 L 723.99414 142.89258 L 724.00195 142.86914 L 723.27539 142.37305 L 729.2207 130.64844 A 3.9059176 3.9059176 0 0 0 730.15625 131.00391 L 727.62695 142.41406 L 730.97266 143.46094 L 731.00977 131.11328 A 3.9059176 3.9059176 0 0 0 731.07617 131.11719 A 3.9059176 3.9059176 0 0 0 731.96094 131.01172 L 735.25586 144.79883 L 738.91211 145.94141 L 740.18359 144.64453 L 732.88867 130.66992 A 3.9059176 3.9059176 0 0 0 733.66602 130.12891 L 743.43164 141.32812 L 746.29883 138.40234 L 734.25 129.48438 A 3.9059176 3.9059176 0 0 0 734.69141 128.67969 L 748.77539 134.75977 L 748.0332 130.91602 L 734.90625 127.9668 A 3.9059176 3.9059176 0 0 0 734.98242 127.21289 A 3.9059176 3.9059176 0 0 0 734.96289 126.84766 L 747.10352 126.0918 L 746.5332 123.14453 L 742.8418 124.08398 L 734.82812 126.125 A 3.9059176 3.9059176 0 0 0 734.43945 125.23047 L 745.625 119.12109 L 744.48242 116.67578 L 734.08594 124.72461 A 3.9059176 3.9059176 0 0 0 733.56055 124.19922 L 742.49805 113.99414 L 739.82227 113.06641 L 733.05859 123.84961 A 3.9059176 3.9059176 0 0 0 732.09766 123.44336 L 733.25195 119.51367 L 735.47852 111.94141 L 730.9043 112.30859 L 730.99414 123.30859 A 3.9059176 3.9059176 0 0 0 730.08008 123.4375 L 727.47656 113.35547 L 724.89453 114.28125 L 729.39648 123.69141 A 3.9059176 3.9059176 0 0 0 728.55859 124.23242 L 721.14453 115.625 L 720.38477 115.89648 L 719.00391 117.24023 L 728.09375 124.69141 A 3.9059176 3.9059176 0 0 0 727.64258 125.34961 L 716.55078 119.62695 L 712.8418 123.23633 L 708.74219 123.42578 L 727.24219 126.47266 A 3.9059176 3.9059176 0 0 0 727.17578 127.14258 L 714.67578 127.29297 L 714.67969 127.38867 L 711.07812 127.56641 L 713.25977 130.74609 L 727.22656 127.87695 A 3.9059176 3.9059176 0 0 0 727.51562 128.80078 L 715.82031 134.48633 L 717.73438 137.2793 L 727.90625 129.48438 A 3.9059176 3.9059176 0 0 0 728.54688 130.18555 L 720.0957 140.72266 L 721.13672 142.24023 L 724.48438 147.66992 L 723.88867 154.05469 L 720.30664 155.79688 L 719.62891 154.41016 L 722.43555 153.04883 L 722.9043 148.04297 L 719.84375 143.08203 L 709.26953 127.6543 L 704.45898 127.89062 L 695.98438 143.35156 L 686.5918 145.50195 L 678.16406 146.05273 L 671.85938 140.37305 L 668.36133 131.62109 L 649.26562 134.63086 L 649.02734 133.10938 L 669.33789 129.9082 L 669.71484 130.85352 L 681.04688 129.01953 A 3.9059176 3.9059176 0 0 0 681.19336 129.61523 L 670.61133 133.09766 L 671.72266 135.87891 L 681.50586 130.32227 A 3.9059176 3.9059176 0 0 0 682.0625 131.07617 L 673.16211 139.48047 L 673.22266 139.63281 L 675.49023 141.63672 L 682.63867 131.57812 A 3.9059176 3.9059176 0 0 0 683.54102 132.05273 L 678.93555 144.46289 L 683.03125 144.19336 L 684.44141 132.27148 A 3.9059176 3.9059176 0 0 0 684.90039 132.30078 A 3.9059176 3.9059176 0 0 0 685.37695 132.26758 L 686.80664 143.87695 L 690.1582 143.10547 L 686.21484 132.07031 A 3.9059176 3.9059176 0 0 0 687.13672 131.5918 L 694.49414 142.11133 L 694.96289 142.00391 L 696.16992 139.80469 L 687.64453 131.17383 A 3.9059176 3.9059176 0 0 0 688.32422 130.27734 L 698.36719 135.79688 L 699.99609 132.82617 L 688.64648 129.49609 A 3.9059176 3.9059176 0 0 0 688.79492 128.625 L 701.88281 129.38672 L 703.08789 127.1875 L 688.79688 128.13672 A 3.9059176 3.9059176 0 0 0 688.60352 127.16602 L 700.46094 123.22656 L 698.3125 121.13672 L 688.33203 126.53711 A 3.9059176 3.9059176 0 0 0 687.70312 125.67383 L 695.34375 118.25 L 693.51367 116.46875 L 687.1875 125.23047 A 3.9059176 3.9059176 0 0 0 686.30664 124.75781 L 690.01562 115.16602 L 686.88086 114.80859 L 685.46484 124.53516 A 3.9059176 3.9059176 0 0 0 684.90039 124.49023 A 3.9059176 3.9059176 0 0 0 684.35352 124.53125 L 682.96094 114.67383 L 680.52734 115.29102 L 683.66602 124.69531 A 3.9059176 3.9059176 0 0 0 682.74219 125.14258 L 676.82812 116.22852 L 673.60352 117.04688 L 682.14648 125.62891 A 3.9059176 3.9059176 0 0 0 681.62695 126.27344 L 670.74219 119.2168 L 668.5957 122.26562 L 681.24805 127.02344 A 3.9059176 3.9059176 0 0 0 681.04102 127.83008 L 666.20898 125.65625 L 665.02148 127.3457 L 630.17969 131.51953 L 625.63477 133.48242 L 618.91602 140.51562 L 616.85156 145.38867 L 615.26172 145.24414 L 617.70508 139.55469 L 624.87891 132.12891 L 629.88672 130.00195 L 664.16016 125.89648 L 671.04297 116.10547 L 683.70703 112.89258 L 683.8457 112.91211 L 693.16016 113.97461 L 701.62695 122.21289 L 712.18555 121.72266 L 719.70703 114.50195 L 730.02344 110.83594 L 736.57227 110.30664 z M 612.66211 117.77148 L 614.60352 145.17969 L 613.06836 145.3125 L 611.22852 118.4707 L 612.66211 117.77148 z M 744.98828 147.27539 L 742.55859 200.47461 L 728.65039 215.56055 L 726.06445 225.11719 L 726.06445 229.45898 L 724.52344 230.90039 L 724.54883 224.81445 L 727.26172 214.79102 L 741.04102 199.84375 L 743.1543 151.5918 L 744.98828 147.27539 z M 606.47461 147.53906 L 617.73828 148.6875 L 623.23828 162.58789 L 621.80664 163.15625 L 616.6543 150.12891 L 607.68359 149.20898 L 604.70703 162.72266 L 622.33398 189.95703 L 634.58594 186.98047 L 634.94922 188.47852 L 621.63867 191.71484 L 603.0625 163.02148 L 606.47461 147.53906 z M 690.66016 151.97852 L 691.76758 153.05273 L 686.06445 158.90625 L 679.84375 166.625 L 676.42578 172.08594 L 675.11914 171.26562 L 680.97656 161.94336 L 690.66016 151.97852 z M 705.73633 152.88477 L 706.51367 154.2168 L 701.18945 157.32227 L 700.80273 156.6582 L 700.41406 155.99219 L 705.73633 152.88477 z M 725.9082 155.27344 L 737.98633 166.52734 L 739.68555 169.83594 L 738.22461 170.58789 L 736.94727 168.0957 L 734.11328 165.10938 L 724.79297 156.47852 L 725.9082 155.27344 z M 710.97656 158.69531 L 710.97656 172.23438 C 710.48042 172.33075 709.98408 172.42807 709.48242 172.54297 L 709.48242 158.73438 C 709.98593 158.71056 710.48231 158.69909 710.97656 158.69531 z M 711.91211 158.69727 C 712.14349 158.70105 712.36824 158.70924 712.59766 158.7168 L 712.59766 171.94141 C 712.36813 171.97845 712.14153 172.01229 711.91211 172.05273 L 711.91211 158.69727 z M 713.5293 158.75781 C 713.76072 158.76877 713.99122 158.78371 714.21875 158.79883 L 714.21875 171.71289 C 713.99107 171.74086 713.76098 171.77836 713.5293 171.80859 L 713.5293 158.75781 z M 707.74219 158.85156 L 707.74219 172.95898 C 707.24053 173.08832 706.74395 173.23056 706.24414 173.37305 L 706.24414 159.01562 C 706.74395 158.95062 707.24423 158.89389 707.74219 158.85156 z M 715.14844 158.88672 C 715.65384 158.93283 716.15409 158.98369 716.64648 159.04492 L 716.64648 171.42578 C 716.17816 171.47945 715.65935 171.53825 715.14844 171.5957 L 715.14844 158.88672 z M 705.31055 159.13867 L 705.31055 173.63867 C 705.07916 173.70519 704.85278 173.78322 704.62109 173.85352 L 704.62109 159.25391 C 704.85248 159.2146 705.08113 159.17269 705.31055 159.13867 z M 719.19922 159.45117 C 719.4306 159.49539 719.65308 159.5535 719.88477 159.59961 L 719.88477 171.11719 C 719.66268 171.13193 719.42864 171.15493 719.19922 171.17383 L 719.19922 159.45117 z M 702.88281 159.58594 L 702.88281 174.41211 C 702.65143 174.48959 702.42479 174.57461 702.19727 174.65625 L 702.19727 159.74609 C 702.42494 159.68902 702.6534 159.63394 702.88281 159.58594 z M 721.625 159.99805 C 722.41537 160.20535 723.18389 160.43988 723.93359 160.69727 L 723.93359 171.05273 C 723.20981 170.99831 722.45427 170.98331 721.625 171.00977 L 721.625 159.99805 z M 700.45117 160.19727 L 700.45117 175.28516 C 700.21794 175.37209 699.99687 175.46977 699.76367 175.55859 L 699.76367 160.39453 C 699.99509 160.32272 700.22175 160.26001 700.45117 160.19727 z M 698.83398 160.69727 L 698.83398 175.93164 C 698.32492 176.13895 697.83019 176.34971 697.33594 176.5625 L 697.33594 161.23633 C 697.8357 161.04735 698.33229 160.86394 698.83398 160.69727 z M 724.86328 161.04492 C 725.09285 161.12996 725.32867 161.20818 725.55469 161.30078 L 725.55469 171.25 C 725.32701 171.20729 725.0927 171.18453 724.86328 171.1543 L 724.86328 161.04492 z M 726.48438 161.70898 C 727.28405 162.06441 728.05067 162.45489 728.79297 162.87695 L 728.79297 172.28516 C 727.99515 171.93895 727.23408 171.66686 726.48438 171.4707 L 726.48438 161.70898 z M 695.59375 161.95312 L 695.59375 177.33984 C 695.08654 177.57493 694.58268 177.80996 694.09766 178.04883 L 694.09766 162.66602 C 694.59379 162.41611 695.09209 162.17687 695.59375 161.95312 z M 693.16797 163.15039 L 693.16797 178.52734 C 692.93659 178.64564 692.70459 178.76218 692.48047 178.88086 L 692.48047 163.53516 C 692.71004 163.40348 692.93628 163.27436 693.16797 163.15039 z M 730.53125 163.96484 C 730.75893 164.12056 730.99689 164.2707 731.21875 164.43359 L 731.21875 173.49805 C 730.99111 173.37211 730.74593 173.2302 730.53125 173.11719 L 730.53125 163.96484 z M 691.54883 164.07812 L 691.54883 179.38867 C 691.02865 179.67561 690.52641 179.96118 690.04883 180.24805 L 690.04883 165.05078 C 690.54489 164.71387 691.04528 164.3854 691.54883 164.07812 z M 732.15234 165.18555 C 732.38187 165.37437 732.61754 165.55391 732.83789 165.75195 L 732.83789 174.43164 C 732.60836 174.29286 732.3708 174.14728 732.15234 174.01953 L 732.15234 165.18555 z M 688.30859 166.32617 L 688.30859 181.35156 C 688.07169 181.50917 687.84144 181.6646 687.62109 181.82031 L 687.62109 166.87305 C 687.84877 166.68418 688.07691 166.50381 688.30859 166.32617 z M 733.77148 166.66797 C 734.00105 166.9012 734.23662 167.13084 734.45508 167.375 L 734.45508 175.42383 C 734.22921 175.28108 733.98994 175.12756 733.77148 174.99414 L 733.77148 166.66797 z M 685.87891 168.40039 L 685.87891 183.17578 C 685.27913 183.69596 684.77948 184.195 684.43555 184.65039 L 684.38086 184.65039 L 684.38086 169.88086 C 684.86891 169.36325 685.37241 168.87552 685.87891 168.40039 z M 735.39062 168.49805 C 735.62942 168.80714 735.85431 169.12519 736.07617 169.44531 L 736.07617 176.44531 C 735.8522 176.30434 735.60681 176.14658 735.39062 176.00977 L 735.39062 168.49805 z M 683.44922 170.90234 L 683.44922 184.65039 L 682.76758 184.65039 L 682.76758 171.70312 C 682.99155 171.43289 683.2198 171.16729 683.44922 170.90234 z M 737.00977 170.91016 C 738.33702 173.2148 739.29522 175.85088 739.79688 178.85156 C 738.78801 178.19256 737.87611 177.60594 737.00977 177.04688 L 737.00977 170.91016 z M 681.83008 172.86523 L 681.83008 184.65234 L 678.71484 184.65234 L 678.71484 177.59961 C 679.68297 175.88363 680.72309 174.30909 681.83008 172.86523 z M 712.55469 174.70508 L 726.62695 176.28125 L 726.10742 177.78125 L 712.73828 176.2793 L 699.66992 181 L 698.74609 179.69336 L 712.55469 174.70508 z M 677.78516 179.33398 L 677.78516 184.65039 L 677.09766 184.65039 L 677.09766 180.73828 C 677.32167 180.257 677.55196 179.79494 677.78516 179.33398 z M 676.16406 182.88086 L 676.16406 184.65039 L 675.47656 184.65039 C 675.69683 184.04695 675.92898 183.46026 676.16406 182.88086 z M 730.74219 184.3125 L 731.86133 185.40039 L 728.42773 188.73438 L 715.29688 189.79883 L 693.91992 187.20117 L 693.75 185.71094 L 693.88086 185.66211 L 697.32031 186.0625 L 715.32812 188.25195 L 727.75586 187.24414 L 729.64844 185.40234 L 729.64062 185.39453 L 730.74219 184.3125 z M 686.52539 193.50781 L 687.03711 193.50781 L 687.03711 205.63477 C 686.85293 205.41219 686.70152 205.23868 686.52539 205.0293 L 686.52539 193.50781 z M 687.72656 193.50781 L 688.24219 193.50781 L 688.24219 207.11523 C 688.06844 206.89961 687.89778 206.69294 687.72656 206.48242 L 687.72656 193.50781 z M 688.93164 193.50781 L 691.25 193.50781 L 691.25 210.93945 C 690.52093 209.99812 689.77784 209.03768 688.93164 207.97461 L 688.93164 193.50781 z M 691.94531 193.50781 L 692.45508 193.50781 L 692.45508 212.49023 C 692.25333 212.22676 692.18985 212.14561 691.94531 211.82812 L 691.94531 193.50781 z M 693.14844 193.50781 L 694.26367 193.50781 L 694.26367 214.69141 L 693.68945 214.10547 C 693.68945 214.10547 693.28828 213.58055 693.14844 213.39648 L 693.14844 193.50781 z M 695.55664 193.50781 L 696.06836 193.50781 L 696.06836 216.5293 L 695.55664 216.00781 L 695.55664 193.50781 z M 697.36328 193.50781 L 698.48047 193.50781 L 698.48047 218.98438 L 697.36328 217.84766 L 697.36328 193.50781 z M 699.17188 193.50781 L 699.68359 193.50781 L 699.68359 220.20898 L 699.17188 219.6875 L 699.17188 193.50781 z M 700.37695 193.50781 L 701.49219 193.50781 L 701.49219 222.05273 L 700.37695 220.91797 L 700.37695 193.50781 z M 702.78516 193.50781 L 703.89844 193.50781 L 703.89844 224.50195 L 702.78516 223.36719 L 702.78516 193.50781 z M 704.58984 193.50781 L 705.10156 193.50781 L 705.10156 224.50195 L 704.58984 224.50195 L 704.58984 193.50781 z M 706.39844 193.50781 L 706.9082 193.50781 L 706.9082 224.50195 L 706.39844 224.50195 L 706.39844 193.50781 z M 708.20703 193.50781 L 708.7168 193.50781 L 708.7168 224.50195 L 708.20703 224.50195 L 708.20703 193.50781 z M 709.41016 193.50781 L 710.52344 193.50781 L 710.52344 224.50195 L 709.41016 224.50195 L 709.41016 193.50781 z M 711.81836 193.50781 L 712.93359 193.50781 L 712.93359 224.50195 L 711.81836 224.50195 L 711.81836 193.50781 z M 713.62305 193.50781 L 714.13672 193.50781 L 714.13672 224.50195 L 713.62305 224.50195 L 713.62305 193.50781 z M 714.82812 193.50781 L 715.33984 193.50781 L 715.33984 224.50195 L 714.82812 224.50195 L 714.82812 193.50781 z M 716.0332 193.50781 L 717.14844 193.50781 L 717.14844 224.50195 L 716.0332 224.50195 L 716.0332 193.50781 z M 719.04492 193.50781 L 719.55469 193.50781 L 719.55469 224.50195 L 719.04492 224.50195 L 719.04492 193.50781 z M 720.85156 193.50781 L 722.56641 193.50781 L 722.56641 217.56445 L 720.85156 224.50195 L 720.85156 193.50781 z M 723.25781 193.50781 L 723.76758 193.50781 L 723.76758 213.73438 L 723.42188 214.10547 L 723.25781 214.76367 L 723.25781 193.50781 z M 724.46289 193.50781 L 726.18164 193.50781 L 726.18164 211.16016 L 724.46289 212.99219 L 724.46289 193.50781 z M 727.47461 193.50781 L 727.98633 193.50781 L 727.98633 209.23242 L 727.47461 209.77734 L 727.47461 193.50781 z M 728.67969 193.50781 L 729.18945 193.50781 L 729.18945 207.94922 L 728.67969 208.49414 L 728.67969 193.50781 z M 729.88477 193.50781 L 730.39062 193.50781 L 730.39062 206.66602 L 729.88477 207.20703 L 729.88477 193.50781 z M 731.08594 193.50781 L 731.59766 193.50781 L 731.59766 205.37695 L 731.08594 205.92383 L 731.08594 193.50781 z M 732.29102 193.50781 L 734.60938 193.50781 L 734.60938 202.16406 L 732.29102 204.63867 L 732.29102 193.50781 z M 735.30273 193.50781 L 735.81641 193.50781 L 735.81641 200.875 L 735.30273 201.42383 L 735.30273 193.50781 z M 631.33984 210.53906 L 631.92969 210.88281 L 701.53125 251.33398 L 701.62891 274.7832 L 700.08008 272.86328 L 699.99609 252.22461 L 631.74805 212.55859 L 616.79297 232.375 L 615.56055 231.44531 L 631.33984 210.53906 z M 643.31445 228.04688 L 668.24023 251.42773 L 684.66797 275.59766 L 705.2793 304.58984 L 712.72852 335.27344 L 716.16797 352.47461 L 716.16797 368.05078 L 730.79492 382.67578 L 749.99219 382.71289 L 749.99219 350.625 L 745.8457 329.37695 L 745.85352 329.26758 L 749.53516 285.75781 L 733.41016 252.68359 L 737.86328 247.04492 L 730.47852 231.49414 L 709.28125 250.50586 L 722.20703 268.68164 L 720.94922 269.57812 L 707.22656 250.27539 L 730.98047 228.96289 L 738.73828 245.29688 L 739.61133 247.22656 L 735.2207 252.87305 L 751.11133 285.45898 L 747.40234 329.28711 L 754.73047 350.62109 L 754.73047 382.71875 L 754.7832 382.71875 L 754.7832 509.91992 C 754.7832 509.91992 738.60353 526.10148 737.36328 527.33984 L 737.36328 537.87305 L 741.80859 537.87305 L 741.80859 545.12891 L 727.36914 545.12891 L 727.36914 537.87305 L 732.61719 537.87305 L 732.61719 525.375 L 750.0332 507.96094 L 750.0332 390.29297 L 749.99219 390.29297 L 749.99219 387.4668 C 748.37425 387.4668 738.44582 387.44273 729.17773 387.42383 L 711.42773 370.01367 L 711.50195 369.93555 L 711.42773 369.93555 L 711.42773 352.47656 L 711.2168 335.55469 L 703.8125 305.09375 L 683.39844 276.47852 L 667.06445 252.41211 L 642.23438 229.14844 L 643.31445 228.04688 z M 588.62891 243.2793 L 589.19141 244.7207 L 511.99219 275.58398 L 468.01953 345.5332 L 468.01953 364.96289 L 486.08398 364.96289 L 486.08398 382.61328 L 480.02734 382.61328 L 480.02734 392.23438 L 486.08398 392.23438 L 486.08398 400.6875 L 494.87109 400.6875 L 494.87109 438.27344 C 499.31193 439.38783 502.62109 443.38441 502.62109 448.16211 C 502.62109 453.23049 498.91074 457.41712 494.06641 458.2168 L 494.06641 464.20117 L 508.93945 464.20117 L 508.93945 485.45898 L 494.06641 485.45898 L 494.06641 492.8418 C 498.91074 493.64703 502.62109 497.82995 502.62109 502.89648 C 502.62109 507.82416 499.11898 511.95139 494.47266 512.91211 L 494.47266 531.79102 C 495.22607 532.54624 499.04621 536.36649 501.86914 539.18945 L 512.05664 539.18945 L 512.05664 545.12891 L 495.70312 545.12891 L 495.70312 539.74023 L 489.72656 533.75977 L 489.72656 512.71875 C 485.39118 511.54328 482.16797 507.60566 482.16797 502.89648 C 482.16797 498.34087 485.18861 494.51546 489.32031 493.20117 L 489.32031 485.45898 L 477.66016 485.45898 L 477.66016 464.20117 L 489.32031 464.20117 L 489.32031 457.86328 C 485.18861 456.54899 482.16797 452.71954 482.16797 448.16211 C 482.16797 443.30663 485.57683 439.24738 490.125 438.20703 L 490.125 405.44141 L 486.08008 405.44141 L 486.08008 409.88086 L 454.79883 409.88086 L 454.79883 392.23438 L 475.29492 392.23438 L 475.29492 382.61328 L 454.79883 382.61328 L 454.79883 364.96289 L 463.28125 364.96289 L 463.28125 345.5332 L 510.95312 274.34766 L 588.62891 243.2793 z M 620.08203 246.53906 L 625.13672 276.30469 L 649.83789 286.3125 L 635.12695 305.66992 L 644.9375 320.68945 L 678.85352 352.48047 L 678.85352 368.04883 L 693.40625 382.60938 L 698.6875 382.61719 L 698.6875 387.06445 L 698.6875 387.35938 L 698.6875 401.07422 L 723.89453 401.07422 C 725.11812 396.79254 729.01529 393.61914 733.6875 393.61914 C 739.32417 393.6191 743.91211 398.21102 743.91211 403.84766 C 743.91211 408.62725 740.599 412.62177 736.1582 413.73242 L 736.1582 423.21289 L 741.20117 423.21289 L 741.20117 466.51562 L 726.77148 466.51562 L 726.77148 423.21289 L 731.4082 423.21289 L 731.4082 413.79688 C 727.49496 412.90094 724.43394 409.7706 723.66016 405.82031 L 721.7207 405.82031 L 721.7207 483.62695 C 721.7207 483.62695 705.75971 499.5997 704.48242 500.87695 L 704.48242 537.87305 L 709.92188 537.87305 L 709.92188 545.12891 L 695.48828 545.12891 L 695.48828 537.87305 L 699.73828 537.87695 L 699.73828 498.91602 C 699.73828 498.91602 715.69015 482.94142 716.97852 481.66602 L 716.97852 405.82422 C 706.04215 405.82422 688.14158 405.82031 686.84766 405.82031 C 685.68885 406.99393 676.77754 415.89067 675.61133 417.06055 L 675.61133 423.21289 L 681.04883 423.21289 L 681.04883 466.51562 L 666.61914 466.51562 L 666.61914 423.21289 L 670.86133 423.21289 L 670.86133 415.0918 L 684.88281 401.07422 L 691.72266 401.07422 L 691.72266 387.64648 L 691.44727 387.3457 L 674.11133 370.01367 L 674.18945 369.93945 L 674.11133 369.93945 L 674.11133 352.48047 L 643.74609 321.65039 L 633.24219 305.59961 L 647.39062 286.98242 L 623.75586 277.41016 L 623.6875 276.98438 L 618.58398 246.94531 L 620.08203 246.53906 z M 762.66211 256.38477 L 786.76953 268.84766 L 802.88086 303.07031 L 802.07617 318.06836 L 830.0625 355.11523 L 830.0625 377.41992 L 835.30273 377.41992 L 835.29883 421.53125 L 829.24805 421.53125 L 829.24805 443.27539 C 833.48713 444.52679 836.60742 448.40796 836.60742 453.04688 C 836.60742 457.82276 833.29596 461.82301 828.84961 462.93555 L 828.84961 489.2207 L 771.61523 489.2207 L 771.61523 536.61133 L 776.25977 536.61133 L 776.25977 545.12891 L 749.79297 545.12891 L 749.79297 536.61133 L 766.87305 536.61133 L 766.87305 484.47656 L 824.10156 484.47656 L 824.10156 462.99609 C 819.56813 461.96137 816.14844 457.90067 816.14844 453.05078 C 816.14844 448.05281 819.76361 443.89055 824.51172 443.00391 L 824.51172 421.53516 L 821.27344 421.53516 L 821.27344 377.41992 L 825.32812 377.41992 L 825.32812 355.11523 L 800.51172 318.51562 L 801.32031 303.38281 L 785.61328 270.00586 L 761.7832 257.67383 L 762.66211 256.38477 z M 717.32227 272.05078 L 717.90625 272.38086 L 714.27539 278.7832 L 706.63867 273.54297 L 707.02148 272.98828 L 714.05273 277.8125 L 717.32227 272.05078 z M 585.2207 356.78125 L 585.2207 387.66406 L 581.18164 387.66406 L 581.18164 434.58398 C 581.18164 434.58398 526.0637 487.34684 524.63281 488.71484 L 524.63281 530.43555 C 528.57573 530.43555 551.10352 530.43164 551.10352 530.43164 L 551.10352 538.81836 L 562.76172 538.81836 L 562.76172 545.12891 L 533.09375 545.12891 L 533.09375 538.82227 L 546.35742 538.82227 L 546.35742 535.18164 L 519.89062 535.18164 L 519.89062 486.68945 C 519.89063 486.68945 575.01196 433.9244 576.43359 432.55273 L 576.43359 387.66406 L 571.58984 387.66406 L 571.58984 356.7832 L 585.2207 356.78125 z M 622.66211 400.625 C 628.3006 400.62504 632.89258 405.20708 632.89258 410.84375 C 632.89254 416.47668 628.30245 421.07812 622.66211 421.07812 C 620.31672 421.07812 618.18032 420.25088 616.45508 418.91992 C 611.05353 424.31225 596.33348 439.03724 595.26172 440.10352 L 595.26172 492.07227 C 596.50749 493.31989 608.18945 505.00586 608.18945 505.00586 L 608.18945 539.18164 L 615.54102 539.18164 L 615.54102 545.12891 L 601.90625 545.12891 L 601.90625 539.18164 L 603.44727 539.18164 L 603.44727 506.96875 C 602.2052 505.7285 590.51562 494.04102 590.51562 494.04102 L 590.51562 438.14258 L 613.45312 415.20703 C 612.81835 413.88163 612.4375 412.41161 612.4375 410.84375 C 612.4375 405.20893 617.02544 400.625 622.66211 400.625 z M 696.09375 423.21289 L 710.5332 423.21289 L 710.5332 466.51562 L 703.87695 466.51562 L 703.87695 473.00391 C 703.87695 473.00391 675.7353 501.15685 674.4043 502.47852 L 674.4043 537.87305 L 679.24805 537.87305 L 679.24805 545.12891 L 664.81055 545.12891 L 664.81055 537.87305 L 669.66211 537.87305 L 669.66211 500.51758 C 669.66211 500.51758 697.80525 472.36258 699.12695 471.03906 L 699.12695 466.51562 L 696.09375 466.51562 L 696.09375 423.21289 z M 855.88672 442.21875 C 861.52521 442.21875 866.11523 446.80514 866.11523 452.44922 C 866.11523 457.2584 862.75235 461.28983 858.25781 462.36719 L 858.25781 493.7207 C 862.75235 494.79806 866.11312 498.82057 866.11523 503.64453 C 866.11516 509.27565 861.5271 513.86523 855.88672 513.86523 C 851.29229 513.86523 847.43721 510.79906 846.15625 506.62109 L 793.20703 506.62109 L 793.20703 536.61523 L 799.65625 536.61523 L 799.65625 545.12891 L 785.21875 545.12891 L 785.21875 536.61133 L 788.45312 536.61133 L 788.45312 501.86914 L 845.83594 501.86914 C 846.54675 497.85592 849.58601 494.66661 853.52148 493.7207 L 853.52148 462.36719 C 849.02143 461.28983 845.66602 457.26025 845.66602 452.44922 C 845.66602 446.80703 850.24453 442.21875 855.88672 442.21875 z M 616.1582 446.74805 C 621.79299 446.74805 626.38281 451.33386 626.38281 456.9668 C 626.38281 461.67972 623.16583 465.61403 618.83789 466.79688 L 618.83789 486.82031 C 620.29101 488.19198 644.57617 512.42773 644.57617 512.42773 L 644.57617 539.9707 L 648.92773 539.9707 L 648.92773 545.12891 L 635.2832 545.12891 L 635.2832 539.9707 L 639.83008 539.9707 L 639.83008 514.48047 C 638.37141 513.1088 614.08203 488.86719 614.08203 488.86719 L 614.08203 466.98047 C 609.43204 466.0179 605.93359 461.89632 605.93359 456.9668 C 605.93359 451.33386 610.51786 446.74805 616.1582 446.74805 z M 552.36523 481.47852 L 565.92578 481.47852 L 579.94141 495.50391 L 579.94141 538.48633 L 585.18945 538.48633 L 585.18945 545.12891 L 571.15039 545.12891 L 571.15039 538.48633 L 575.19922 538.48633 L 575.19922 497.47656 C 574.03301 496.3048 565.12677 487.40604 563.95508 486.23242 L 554.0625 486.23242 C 552.96477 487.1284 543.88988 494.53722 542.45898 495.70898 L 542.45898 504.33008 C 546.58884 505.64811 549.61133 509.47793 549.61133 514.03906 C 549.61133 519.67944 545.02335 524.25977 539.38672 524.25977 C 533.7409 524.25977 529.1582 519.67944 529.1582 514.03906 C 529.1582 508.96886 532.86636 504.78549 537.70703 503.97656 L 537.70703 493.45703 L 552.36523 481.47852 z "
       style="display:inline;opacity:1;vector-effect:none;fill:#a05a2c;fill-opacity:1;fill-rule:evenodd;stroke:none;stroke-width:2.64566946;stroke-linecap:round;stroke-linejoin:round;stroke-miterlimit:4;stroke-dasharray:none;stroke-dashoffset:0;stroke-opacity:1;paint-order:stroke fill markers" />
    <path
       id="path892"
       d="m 348.22818,481.25564 88.77122,-14.79483 -34.62768,-207.77034 -31.73996,-13.74858 1.58927,-3.67039 29.36722,12.72028 -2.10717,-12.64457 c -0.11163,-0.66687 0.3706,-1.8672 1.46421,-2.04947 18.46487,-7.62707 21.1333,-0.0984 27.80137,2.07871 5.46463,-0.91074 5.8592,-12.16664 4.94844,-17.63128 l -0.23326,-1.40131 -0.0152,-0.0902 -0.85149,-5.11014 c -0.30139,-1.80728 -1.99931,-3.01963 -3.80662,-2.71842 l -29.75838,4.91497 -3.12875,0.52154 -41.8158,6.969 c -3.53613,0.5892 -6.25611,5.1671 -6.25036,8.75201 l 0.26907,168.51045 40.99454,-6.83266 0.65815,3.94527 -41.64593,6.94133 0.0319,20.45494 44.07659,-20.05154 1.65625,3.64084 -45.7256,20.80228 0.0432,26.79404 49.36237,-40.63679 2.54278,3.08862 -51.89623,42.72169 z m 79.12864,-27.5045 -3.94826,0.64294 -8.83984,-54.28523 3.94827,-0.64294 z m -59.0537,-76.8289 c -0.46365,0.0714 -0.93886,0.10932 -1.4224,0.11016 -5.15777,0.009 -9.34615,-4.16517 -9.35496,-9.32295 -0.009,-5.15757 4.16542,-9.34562 9.32301,-9.35444 5.15758,-0.009 9.34577,4.16482 9.35488,9.32242 0.008,4.67425 -3.41893,8.55218 -7.90053,9.24481 z m 10.30233,-36.66005 c -0.91011,0.1411 -1.84232,0.21418 -2.79161,0.21584 -10.12584,0.0175 -18.34848,-8.17704 -18.36612,-18.30289 -0.0175,-10.12601 8.17687,-18.34872 18.3029,-18.3661 10.12601,-0.0175 18.34879,8.17736 18.36618,18.30338 0.0156,9.17655 -6.713,16.78998 -15.51135,18.14977 z m -4.85135,-52.88703 c -0.70512,0.10874 -1.42744,0.16608 -2.16283,0.1674 -7.84427,0.0136 -14.21453,-6.33451 -14.22797,-14.17876 -0.0136,-7.84425 6.33455,-14.214 14.17882,-14.22745 7.84426,-0.0136 14.21454,6.33447 14.22797,14.17873 0.0123,7.10885 -5.20012,13.00667 -12.01599,14.06008 z"
       style="display:inline;opacity:1;vector-effect:none;fill:#a05a2c;fill-opacity:1;fill-rule:evenodd;stroke:none;stroke-width:0.69999999;stroke-linecap:round;stroke-linejoin:round;stroke-miterlimit:4;stroke-dasharray:none;stroke-dashoffset:0;stroke-opacity:1;paint-order:stroke fill markers" />
    <path
       id="path1610"
       transform="matrix(0.26458333,0,0,0.26458333,0,210)"
       d="M 21.244141 774.97656 L 21.244141 963.95508 C 208.74416 921.63034 210.21059 1058.9403 649.98828 1058.7383 L 649.98828 1058.7363 C 653.45112 1058.7343 656.93954 1058.7259 660.45703 1058.707 C 1110.6936 1056.3001 1110.6936 921.29511 1299.6699 963.95312 L 1299.6699 774.97656 L 1261.875 775.28711 L 1261.875 846.99023 L 1246.7559 846.99023 L 1246.7559 774.97656 L 74.158203 774.97656 L 74.158203 846.99023 L 59.039062 846.99023 L 59.039062 774.97656 L 21.244141 774.97656 z M 329.73047 807.625 L 443.76953 807.625 L 443.76953 990.08984 L 398.16211 990.08984 L 398.16211 853.24219 L 329.73047 853.24219 L 329.73047 807.625 z M 466.58594 807.625 L 512.20117 807.625 L 512.20117 853.24219 L 523.60938 864.64453 L 535.00977 853.24219 L 535.00977 807.625 L 580.62891 807.625 L 580.62891 876.04883 L 557.82227 898.85742 L 580.62891 921.66602 L 580.62891 990.08984 L 535.00977 990.08984 L 535.00977 944.47656 L 523.60938 933.07227 L 512.20117 944.47656 L 512.20117 990.08984 L 466.58594 990.08984 L 466.58594 921.66602 L 489.39453 898.85742 L 466.58594 876.04883 L 466.58594 807.625 z M 603.4375 807.625 L 717.48047 807.625 L 717.48047 862.74609 L 671.86133 862.74609 L 671.86133 853.24414 L 649.05273 853.24414 L 694.66992 898.86133 L 649.05273 944.47656 L 671.86133 944.47656 L 671.86133 934.97656 L 717.48047 934.97656 L 717.48047 990.08594 L 603.4375 990.08594 L 603.4375 921.66211 L 626.24609 898.85742 L 603.4375 876.04883 L 603.4375 807.625 z M 740.28516 807.625 L 854.33008 807.625 L 854.33008 853.24219 L 785.90625 853.24219 L 785.90625 876.04883 L 854.33008 876.04883 L 854.33008 990.08984 L 740.28516 990.08984 L 740.28516 944.47656 L 808.71289 944.47656 L 808.71289 921.66602 L 740.28516 921.66602 L 740.28516 807.625 z M 877.14453 807.625 L 922.75781 807.625 L 922.75781 876.04883 L 945.56836 876.04883 L 945.56836 807.625 L 991.18555 807.625 L 991.18555 990.08984 L 945.56836 990.08984 L 945.56836 921.66602 L 922.75781 921.66602 L 922.75781 990.08984 L 877.14453 990.08984 L 877.14453 807.625 z "
       style="display:inline;opacity:1;vector-effect:none;fill:#a05a2c;fill-opacity:1;fill-rule:evenodd;stroke:none;stroke-width:2.64566922;stroke-linecap:round;stroke-linejoin:round;stroke-miterlimit:4;stroke-dasharray:none;stroke-dashoffset:0;stroke-opacity:1;paint-order:stroke fill markers" />
    <path
       style="display:inline;opacity:1;vector-effect:none;fill:#a05a2c;fill-opacity:1;fill-rule:evenodd;stroke:none;stroke-width:0.69999999;stroke-linecap:round;stroke-linejoin:round;stroke-miterlimit:4;stroke-dasharray:none;stroke-dashoffset:0;stroke-opacity:1;paint-order:stroke fill markers"
       d="m 491.40406,239.02685 -88.77122,14.79483 34.62768,207.77034 31.73996,13.74858 -1.58927,3.67039 -29.36723,-12.72028 2.10718,12.64457 c 0.11163,0.66687 -0.3706,1.8672 -1.46421,2.04947 -18.46487,7.62707 -21.1333,0.0984 -27.80137,-2.07871 -5.46464,0.91074 -5.8592,12.16664 -4.94844,17.63128 l 0.23325,1.40131 0.0152,0.0902 0.85149,5.11014 c 0.30139,1.80728 1.99931,3.01963 3.80662,2.71842 l 29.75838,-4.91497 3.12875,-0.52154 41.8158,-6.969 c 3.53613,-0.5892 6.25611,-5.1671 6.25036,-8.75201 l -0.26907,-168.51045 -40.99454,6.83266 -0.65815,-3.94527 41.64593,-6.94133 -0.0319,-20.45494 -44.07659,20.05154 -1.65625,-3.64084 45.7256,-20.80228 -0.0432,-26.79404 -49.36237,40.63679 -2.54278,-3.08862 51.89623,-42.72169 z m -79.12864,27.5045 3.94826,-0.64294 8.83984,54.28523 -3.94827,0.64294 z m 59.0537,76.8289 c 0.46365,-0.0714 0.93886,-0.10932 1.4224,-0.11016 5.15777,-0.009 9.34615,4.16517 9.35496,9.32295 0.009,5.15757 -4.16542,9.34562 -9.32301,9.35444 -5.15758,0.009 -9.34577,-4.16482 -9.35488,-9.32242 -0.008,-4.67425 3.41892,-8.55218 7.90053,-9.24481 z m -10.30233,36.66005 c 0.9101,-0.1411 1.84232,-0.21418 2.79161,-0.21584 10.12584,-0.0175 18.34847,8.17704 18.36612,18.30289 0.0175,10.12601 -8.17687,18.34872 -18.3029,18.3661 -10.12601,0.0175 -18.34879,-8.17736 -18.36618,-18.30338 -0.0156,-9.17655 6.713,-16.78997 15.51135,-18.14977 z m 4.85135,52.88703 c 0.70512,-0.10874 1.42744,-0.16608 2.16283,-0.1674 7.84426,-0.0136 14.21453,6.33451 14.22797,14.17876 0.0136,7.84425 -6.33456,14.214 -14.17882,14.22745 -7.84426,0.0136 -14.21454,-6.33447 -14.22797,-14.17873 -0.0123,-7.10885 5.20012,-13.00667 12.01599,-14.06008 z"
       id="path1409" />
  </g>
</svg>
