<?xml version="1.0" encoding="UTF-8" standalone="no"?>
<svg
   xmlns:dc="http://purl.org/dc/elements/1.1/"
   xmlns:cc="http://creativecommons.org/ns#"
   xmlns:rdf="http://www.w3.org/1999/02/22-rdf-syntax-ns#"
   xmlns:svg="http://www.w3.org/2000/svg"
   xmlns="http://www.w3.org/2000/svg"
   id="svg8"
   version="1.1"
   viewBox="0 0 510 300"
   height="300mm"
   width="510mm">
  <defs
     id="defs2">
	
	
	
	
	
	
</defs>
  <metadata
     id="metadata5">
    <rdf:RDF>
      <cc:Work
         rdf:about="">
        <dc:format>image/svg+xml</dc:format>
        <dc:type
           rdf:resource="http://purl.org/dc/dcmitype/StillImage" />
        <dc:title></dc:title>
      </cc:Work>
    </rdf:RDF>
  </metadata>
  <g
     transform="translate(0,-210)"
     id="layer4">
    <path
       id="path3411"
       transform="matrix(0.26458333,0,0,0.26458333,0,210)"
       d="M 21.244141 576.60352 L 21.244141 765.58008 L 59.039062 765.27148 L 59.039062 693.56836 L 74.158203 693.56836 L 74.158203 765.58008 L 1246.7559 765.58008 L 1246.7559 693.56836 L 1261.875 693.56836 L 1261.875 765.58008 L 1299.6699 765.58008 L 1299.6699 576.60352 L 21.244141 576.60352 z M 126.39648 619.72656 C 148.84962 619.76575 179.17911 620.28203 207.94727 621.22656 C 233.40205 622.06241 302.58838 622.88946 361.69531 623.06445 C 420.80218 623.23937 485.04821 623.89709 504.46289 624.52344 C 605.77744 627.7919 716.10804 629.43648 863.73242 629.88477 C 987.29568 630.26011 1169.8648 632.17292 1229.7578 633.71875 C 1230.8643 633.74842 1230.3703 660.93139 1228.4746 704.34766 C 1228.1547 711.68202 1227.8521 722.44907 1227.7988 728.27344 L 1227.707 738.86328 L 1219.7129 738.86328 L 1211.7188 738.86328 L 1212.8652 700.0332 C 1214.2746 652.35469 1214.2036 655.95696 1213.8672 649.83008 L 1213.5859 644.73047 L 1204.5645 644.82227 C 1199.603 644.8697 1192.7229 645.41199 1189.2715 646.02344 L 1182.9922 647.13672 L 1182.209 688.6875 L 1181.4238 730.23438 L 1172.0781 730.71484 C 1166.9368 730.97952 1161.0059 730.76328 1158.8984 730.23438 L 1155.0664 729.27148 L 1155.8262 688.96289 C 1156.2438 666.79298 1156.2959 647.3974 1155.9395 645.86133 C 1155.3554 643.3414 1153.4258 643.11111 1136.1973 643.50781 L 1117.0996 643.94727 L 1116.6602 663.38867 L 1116.2188 682.83008 L 1104.3477 681.93359 C 1097.82 681.43965 1092.1565 680.7092 1091.7598 680.3125 C 1091.3631 679.9158 1090.688 672.27926 1090.2617 663.33984 C 1089.8354 654.40051 1089.1946 646.20165 1088.834 645.12305 C 1088.356 643.69325 1082.8479 643.16211 1068.5156 643.16211 L 1048.8555 643.16211 L 1048.7598 652.18359 C 1048.7069 657.14517 1048.5297 665.79371 1048.3672 671.40234 L 1048.0703 681.59961 L 1035.3457 682.05273 L 1022.6172 682.50586 L 1021.8145 677.3457 C 1021.3737 674.50841 1021.1008 665.69539 1021.207 657.75781 C 1021.3772 645.06801 1021.0593 643.23512 1018.5684 642.58398 C 1014.7899 641.59643 983.45796 642.14938 982.38477 643.22266 C 981.92109 643.68633 981.4042 652.26902 981.23828 662.29297 L 980.93555 680.51562 L 976.26172 681.44922 C 973.69172 681.96335 967.79422 682.38477 963.15625 682.38477 L 954.72266 682.38477 L 954.48828 666.30273 C 954.35827 657.45838 954.4071 648.2605 954.5957 645.86133 L 954.9375 641.49805 L 934.82812 641.93945 L 914.7168 642.37695 L 914.2793 661.66016 L 913.83789 680.94141 L 900.94336 680.48633 L 888.04688 680.03125 L 887.77734 672.97266 C 887.62805 669.08968 887.45129 660.08944 887.38477 652.9707 L 887.26172 640.02734 L 867.77734 640.02734 L 848.29297 640.02734 L 847.3418 644.35352 C 846.8189 646.73401 846.48843 662.4432 846.60938 679.26172 C 846.72919 696.08024 846.75061 713.54802 846.65234 718.07812 L 846.4707 726.3125 L 833.92383 726.3125 L 821.37305 726.3125 L 821.37305 683.35742 L 821.37305 640.4043 L 801.66406 639.26758 C 790.82426 638.64207 781.55729 638.52865 781.07227 639.01367 C 780.58663 639.4987 780.29255 648.7482 780.41992 659.57031 L 780.65234 679.24609 L 768.94141 679.24609 C 762.50124 679.24609 756.8878 678.68926 756.4668 678.00781 C 756.0458 677.32651 755.54148 669.03165 755.3457 659.57422 C 755.15 650.11678 754.67081 641.49458 754.28125 640.41602 C 753.76482 638.98501 748.10611 638.45508 733.34766 638.45508 L 713.12109 638.45508 L 713.12109 658.06641 L 713.12109 677.67969 L 701.51953 677.67969 C 692.39031 677.67969 689.71823 677.15056 688.96875 675.19727 C 688.44517 673.8324 688.01953 665.06943 688.01953 655.72266 L 688.01953 638.72852 L 669.58398 638.16992 C 659.44525 637.86416 649.91628 637.88615 648.40625 638.21875 C 645.97976 638.7542 645.66016 640.98523 645.66016 657.43555 C 645.66016 678.68851 645.91566 678.35093 630.65234 677.38477 L 622.91211 676.89453 L 622.4707 656.89062 L 622.03125 636.88867 L 600.89844 636.88867 L 579.76758 636.88867 L 579.76758 656.49805 L 579.76758 676.10938 L 567.2168 676.10938 L 554.66602 676.10938 L 554.6543 669.44141 C 554.64961 665.77424 554.19504 656.94874 553.64062 649.83008 L 552.63281 636.88867 L 532.49414 636.88867 L 512.35547 636.88867 L 511.93945 679.63867 L 511.52344 722.39062 L 499.36328 722.84961 L 487.20508 723.31055 L 487.20508 688.95703 C 487.20508 670.064 486.75168 650.26865 486.19727 644.96484 L 485.18945 635.32227 L 465.85742 635.32227 C 449.00405 635.32227 446.35195 635.67505 445.17969 638.06836 C 444.44045 639.57836 443.89102 648.5822 443.96094 658.08008 L 444.08984 675.34961 L 432.30664 674.77344 C 425.82706 674.45739 420.28699 673.9772 419.99219 673.70508 C 419.69757 673.43288 418.73225 664.85995 417.84766 654.65625 C 416.9631 644.45255 415.9409 635.78178 415.57617 635.38867 C 415.21145 634.99553 406.11543 634.38174 395.36328 634.02344 L 375.81641 633.37305 L 375.81641 653.95898 L 375.81641 674.54297 L 362.71875 674.54297 L 349.62305 674.54297 L 348.55664 654.62891 C 347.97115 643.67659 347.33395 634.58855 347.14062 634.43359 C 346.94744 634.27882 337.87739 633.66003 326.98438 633.05859 L 307.17773 631.96289 L 306.28906 635.60352 C 305.80048 637.605 305.69093 646.83347 306.04492 656.10938 C 306.52243 668.62313 306.19475 673.01741 304.77539 673.14062 C 303.72331 673.23209 300.74681 673.31874 298.1582 673.33008 C 285.82377 673.39414 281.53499 672.81855 280.95508 671.01367 C 280.60867 669.93507 279.85387 660.75791 279.2793 650.61914 L 278.23633 632.18359 L 257.21094 632.18359 L 236.1875 632.18359 L 236.1875 651.61133 C 236.1875 674.07204 237.14384 672.91911 218.53711 672.95312 L 207.94727 672.97656 L 207.94727 651.79688 L 207.94727 630.61719 L 195.00391 630.62891 C 187.88519 630.63484 178.46905 631.07443 174.08008 631.60156 L 166.09961 632.55859 L 166.83789 676.13086 L 167.57812 719.70117 L 153.64062 720.35742 C 145.97424 720.71874 139.44862 720.83571 139.14062 720.61914 C 138.83273 720.40333 138.49588 700.41714 138.39062 676.20703 L 138.19727 632.19141 L 133.45703 631.31445 C 130.85022 630.83169 123.4247 630.65145 116.95312 630.91602 L 105.1875 631.39648 L 105.42969 637.67188 C 105.56351 641.12334 106.20094 662.38357 106.84766 684.91602 L 108.02539 725.88477 L 100.50195 727.01367 C 94.95468 727.84555 92.633371 727.59418 91.65625 726.05273 C 90.927512 724.90312 90.275617 712.31177 90.208984 698.07422 C 90.142276 683.83689 89.746688 660.80554 89.330078 646.89453 L 88.572266 621.60352 L 92.173828 620.63867 C 94.178775 620.10144 103.56296 619.80715 117.2832 619.74023 C 120.1413 619.72629 123.18958 619.72097 126.39648 619.72656 z "
       style="display:inline;opacity:1;vector-effect:none;fill:#a05a2c;fill-opacity:1;fill-rule:evenodd;stroke:none;stroke-width:2.64566922;stroke-linecap:round;stroke-linejoin:round;stroke-miterlimit:4;stroke-dasharray:none;stroke-dashoffset:0;stroke-opacity:1;paint-order:stroke fill markers" />
    <path
       id="path4180"
       transform="matrix(0.26458333,0,0,0.26458333,0,210)"
       d="M 21.244141 20.572266 L 21.244141 568.60352 L 1299.6699 568.60352 L 1299.6699 20.572266 L 1261.875 20.572266 L 1261.875 96.164062 L 1246.7559 96.164062 L 1246.7559 20.572266 L 74.158203 20.572266 L 74.158203 96.164062 L 59.039062 96.164062 L 59.039062 20.572266 L 21.244141 20.572266 z M 512.26953 192.90234 C 520.60052 192.95855 529.37465 193.35723 535.87695 194.08203 C 544.76776 195.07295 548.70959 196.74916 565.85742 206.81445 L 585.60156 218.40234 L 585.875 228.33984 L 586.14844 238.27734 L 535.98438 238.27734 C 508.39416 238.27734 485.52381 237.74678 485.16211 237.09961 C 484.80014 236.45248 484.3935 226.66712 484.25781 215.35352 L 484.00977 194.7832 L 491.31836 193.78125 C 496.05301 193.13242 503.93855 192.84905 512.26953 192.90234 z M 536.26953 250.64453 C 540.64762 250.66645 544.22437 250.84546 544.60156 251.22266 C 544.91409 251.53515 545.65293 277.34192 546.24609 308.57227 L 547.32422 365.35547 L 533.08789 365.35547 L 518.84961 365.35547 L 518.32227 354.76562 C 517.38279 335.85695 517.76927 252.69232 518.80078 251.6582 C 519.4495 251.0079 528.9727 250.61052 536.26953 250.64453 z M 102.73047 261.41797 C 104.93178 261.40739 107.44299 261.43733 110.22852 261.51367 C 126.894 261.96967 128.18517 262.23175 129.51172 265.43555 C 131.31182 269.78302 137.3218 285.71172 143.08594 301.40625 C 145.53823 308.08324 148.12265 313.36003 148.83008 313.13477 C 149.53751 312.90943 152.83895 304.62172 156.16406 294.71875 C 164.3127 270.45014 166.35085 265.12376 168.20312 263.27148 C 169.12201 262.35253 176.90488 261.88494 186.90039 262.14648 L 204.02539 262.59375 L 204.43945 310.83789 L 204.85352 359.08008 L 190.01953 359.08008 C 181.86068 359.08008 174.81021 358.47258 174.35156 357.73047 C 173.89294 356.98832 173.60656 351.16558 173.71484 344.78906 C 173.82298 338.41251 173.79938 329.66394 173.66211 325.34961 C 173.42604 317.92756 173.30338 317.71481 171.41016 321.42578 C 170.30962 323.58302 167.05031 332.61403 164.16406 341.49414 L 158.91406 357.63867 L 147.96094 357.18359 L 137.00781 356.72656 L 133.45703 347.3125 C 131.50444 342.13523 128.68537 335.0765 127.19141 331.625 C 124.78872 326.07401 124.32583 325.71079 123.17773 328.48633 C 122.46386 330.21206 121.83203 337.44962 121.77148 344.56836 L 121.66016 357.50977 L 107.76367 357.50977 L 93.867188 357.50977 L 92.863281 344.56836 C 92.098785 334.70946 91.643587 272.25989 92.265625 262.59375 C 92.312812 261.86003 96.126496 261.4482 102.73047 261.41797 z M 264.64453 263.43164 C 275.38617 263.4451 276.97313 266.98571 282.39844 283.64844 C 288.05044 301.00717 303.55067 345.60825 306.64453 353.41211 C 307.63295 355.90467 308.2404 358.14451 307.99609 358.38867 C 307.75192 358.63294 300.7687 359.32877 292.47656 359.9375 L 277.40039 361.04492 L 276.26367 354.99219 C 274.03244 343.09862 273.59268 342.82397 258.4707 343.98633 C 258.33906 343.99767 258.25799 344.00429 258.12695 344.01562 C 255.28509 343.85722 254.28731 336.57105 256.95703 325.67773 C 256.95703 325.67773 258.12946 322.99219 259.45703 322.99219 C 262.76472 322.99219 265.90237 322.56307 266.42773 322.03711 C 267.25544 321.20943 265.73432 316.40196 260.5293 303.38281 C 259.49465 300.79489 258.779 301.75612 256.45312 308.87305 C 255.99287 310.2813 255.61063 311.48988 255.25781 312.63281 L 255.25586 312.60352 C 252.06036 323.20505 249.35177 336.37212 244.54883 345.48438 C 244.29368 345.73934 243.73493 348.67443 243.30859 352.00586 C 243.28248 352.21173 243.22479 352.4061 243.19531 352.61133 L 242.77539 354.00586 L 242.93164 354.03516 C 242.35683 356.5798 241.40674 358.78077 240.53516 359.33398 C 238.26834 360.7724 210.52195 361.13294 209.13086 359.74219 C 208.63177 359.24284 210.01392 353.77025 212.20312 347.58203 C 221.52603 321.22897 233.39328 287.01603 236.24023 278.2832 C 237.92797 273.10601 239.89947 267.96003 240.62109 266.84961 C 241.43398 265.59893 247.1276 264.46604 255.58594 263.86914 C 259.19965 263.61417 262.16568 263.43046 264.64453 263.43359 L 264.64453 263.43164 z M 314.28516 264.94727 L 329.35742 264.94727 L 344.42969 264.94727 L 343.70898 278.64062 C 342.96429 292.79367 343.75397 299.46289 346.17578 299.46289 C 346.94514 299.46289 347.57617 298.70279 347.57617 297.77344 C 347.57617 296.84409 350.83251 289.43164 354.81445 281.30078 C 360.50968 269.67178 362.7692 266.49444 365.4043 266.41016 C 373.26594 266.15874 395.4197 266.77321 395.90234 267.25586 C 396.19189 267.54522 394.96272 270.49895 393.17383 273.81836 C 378.63331 300.79844 372.67773 312.69307 372.67773 314.73828 C 372.67773 316.05333 378.42218 326.58996 385.44141 338.1543 C 392.46063 349.71863 397.87 359.50891 397.4668 359.91211 C 397.06352 360.31531 389.35593 361.09835 380.33594 361.65039 L 363.93555 362.65234 L 359.84766 354.98242 C 357.59988 350.76394 353.40225 343.07763 350.51758 337.90039 L 345.27148 328.48633 L 344.1875 335.54688 C 343.59051 339.42992 343.04645 346.69435 342.98242 351.68945 L 342.86914 360.77148 L 329.33008 360.31641 L 315.78906 359.86328 L 315.03711 312.40625 L 314.28516 264.94727 z M 416.79297 269.1543 C 422.86966 269.1543 431.01144 269.22085 439.74805 269.35352 L 471.51758 269.83789 L 471.51758 281.51172 L 471.51758 293.1875 L 453.64062 293.1875 C 434.72836 293.18784 433.86328 293.53696 433.86328 301.16016 C 433.86328 303.86361 435.17926 304.19611 446.80664 304.41797 C 453.92534 304.55554 460.68027 304.62184 461.81836 304.57422 C 463.43668 304.50305 463.65184 306.75586 462.80273 314.91602 C 462.20561 320.65447 461.40731 325.87826 461.03125 326.52539 C 460.65507 327.17248 454.38892 327.70312 447.10547 327.70312 L 433.86328 327.70312 L 433.86328 333.97852 L 433.86328 340.25391 L 453.08203 340.25 L 472.30078 340.24609 L 471.78906 352.80078 L 471.27734 365.35742 L 465.51367 365.00195 C 462.34363 364.80746 447.17888 364.43903 431.81445 364.18164 L 403.87891 363.71289 L 404.16992 316.77539 C 404.37587 283.68933 404.98035 269.6933 406.21875 269.35352 C 406.70189 269.22085 410.71636 269.15399 416.79297 269.1543 z M 556.62695 271.22266 L 570.5293 271.22266 L 584.4375 271.22266 L 589.94336 279.85156 C 592.97223 284.5974 597.93018 292.36361 600.95898 297.10938 C 603.98786 301.85521 606.82856 305.73828 607.27148 305.73828 C 607.7152 305.73828 607.88428 298.32513 607.64844 289.26367 L 607.2207 272.78906 L 622.51562 272.78906 L 637.8125 272.79102 L 638.00195 286.51953 C 638.3556 311.72754 637.7348 364.21264 637.06836 365.29102 C 636.31329 366.51286 623.92254 366.80983 615.93164 365.79688 C 609.79153 365.01863 609.0839 364.26213 599.37305 348.09766 C 595.48527 341.62608 590.56681 334.21367 588.44336 331.625 L 584.58203 326.91797 L 584.52734 346.13672 L 584.47461 365.35547 L 570.35547 365.35547 L 556.23633 365.35547 L 555.93164 353.98047 C 555.76761 347.72459 555.68373 340.84076 555.74609 338.68359 C 555.80834 336.52643 556.03091 320.46536 556.24219 302.99219 L 556.62695 271.22266 z M 690.87305 271.46484 C 704.63763 271.3168 732.823 272.74513 738.22266 274.3125 C 741.24269 275.18814 746.25282 278.24369 749.35547 281.10547 C 758.59573 289.62838 759.11259 305.45265 750.45312 314.69727 L 747.20117 318.16602 L 752.33008 324.00977 C 757.41052 329.79607 757.45031 329.96225 756.4668 341.7207 C 755.25572 356.19773 752.49545 360.47663 742.01758 364.11133 C 734.09735 366.85878 727.3319 367.06315 698.2168 365.44336 L 682.5293 364.57031 L 682.90234 319.07227 C 683.10757 294.04885 683.28358 272.95377 683.29492 272.19141 C 683.30086 271.73915 686.28489 271.51247 690.87305 271.46484 z M 938.44727 273.18555 C 938.94701 273.1783 939.47849 273.17906 940.03711 273.18945 C 949.71992 273.37771 967.68702 276.19347 973.94531 278.88672 C 980.65197 281.77288 983.61168 285.79391 980.04883 287.17578 C 979.30728 287.46337 977.2315 291.04578 975.43555 295.13867 L 972.16797 302.57812 L 957.92383 301.56836 L 943.67969 300.56055 L 936.95703 307.88086 C 933.26005 311.90757 929.37208 317.5949 928.31445 320.51953 C 926.53857 325.43076 926.75238 326.37059 931.12109 332.84375 C 936.63928 341.02015 942.20237 343.78431 951.76367 343.09961 C 957.52726 342.68692 958.72865 342.03165 959.14844 339.07617 C 959.60383 335.87049 959.00979 335.54688 952.68555 335.54688 C 945.85738 335.54688 945.70346 335.43291 944.75 329.66406 C 944.21508 326.42833 943.7711 321.13225 943.75977 317.89648 L 943.74219 312.01367 L 964.13672 312.01367 C 979.32513 312.01367 984.57103 312.51401 984.68555 313.97461 C 985.57842 325.38285 985.63845 346.02471 984.79883 353.4375 L 983.74805 362.70117 L 974.33398 366.30273 C 966.82478 369.17476 961.90714 369.88664 950.01758 369.82617 C 941.82031 369.78467 933.67612 369.29004 931.91992 368.72852 C 930.16369 368.16756 923.72981 364.53134 917.61914 360.64844 L 906.50781 353.58789 L 902.35938 340.57422 C 899.47287 331.51462 898.65603 326.73234 899.66992 324.83789 C 900.47099 323.34105 901.64231 316.84351 902.27148 310.39844 C 903.29608 299.90356 904.01927 297.98957 909.21094 292.07227 C 915.45048 284.9609 929.4539 274.84211 934.90039 273.51172 C 935.7304 273.31018 936.94804 273.20729 938.44727 273.18555 z M 870.00781 273.89844 L 870.20508 290.60352 C 870.31302 299.79094 870.57716 308.01213 870.79297 308.875 C 871.00889 309.73787 871.27314 318.20957 871.38086 327.70117 L 871.57617 344.95898 L 884.01758 344.95898 L 896.45898 344.95898 L 895 350.04883 C 894.19738 352.84745 893.54102 358.49534 893.54102 362.59961 L 893.54102 370.06055 L 867.10938 370.06055 L 840.67773 370.06055 L 841.41602 323.38672 C 841.82231 297.71617 842.28752 276.55352 842.45117 276.35547 C 842.61501 276.15742 848.88323 275.52169 856.37891 274.94531 L 870.00781 273.89844 z M 830.43945 274.35938 L 830.55078 287.30078 L 830.66016 300.24414 L 814.13477 299.70898 C 799.52897 299.23344 797.36813 299.50444 795.50195 302.05664 C 792.26097 306.48893 795.46709 308.87368 804.69727 308.89258 C 809.12166 308.90445 815.38515 309.34527 818.61328 309.87891 C 825.08497 310.94866 824.89572 309.88538 821.97656 329.01172 L 821.17969 334.24609 L 813.46094 333.18164 C 809.21619 332.59922 802.90578 332.60242 799.4375 333.18945 C 793.82751 334.13725 793.13281 334.74104 793.13281 338.65625 C 793.13281 341.22198 794.16648 343.45474 795.61328 344.00977 C 796.97814 344.53323 805.62669 344.9567 814.83203 344.95508 L 831.57031 344.95312 L 831.05859 357.50977 L 830.54688 370.06445 L 825.56836 369.70898 C 822.82971 369.51392 807.59438 369.14297 791.71484 368.88672 L 762.84375 368.42188 L 763.84961 323.35352 C 764.40225 298.5659 764.86171 277.40087 764.87305 276.32227 C 764.88843 274.81658 772.50347 274.36133 797.66602 274.36133 L 830.43945 274.35938 z M 1108.291 277.37891 L 1107.6895 295.08984 C 1106.0971 341.7816 1105.2187 350.07251 1101.0469 357.82617 C 1097.7625 363.9303 1095.8299 365.629 1089.834 367.68359 C 1080.3722 370.92582 1067.4243 371.81499 1056.8535 369.94727 L 1056.8516 369.94727 C 1042.9658 367.49382 1035.016 361.10914 1032.5762 350.45117 C 1031.3349 345.03662 1031.2995 280.82467 1032.5352 278.82617 C 1032.9864 278.09638 1040.3714 277.49805 1048.9492 277.49805 C 1061.7664 277.49805 1064.5469 277.91746 1064.5469 279.85156 C 1064.5469 281.14586 1063.4877 282.20508 1062.1934 282.20508 C 1060.2227 282.20508 1059.7996 285.83945 1059.6016 304.56055 C 1059.4713 316.85648 1059.2645 329.38817 1059.1387 332.4082 C 1058.8095 340.30904 1059.4847 341.46242 1065.6406 343.49414 C 1070.4698 345.08793 1071.5426 344.93593 1074.1875 342.29102 C 1076.8251 339.65347 1077.3243 336.16526 1078.0898 315.05078 C 1078.5725 301.73199 1079.4473 288.01006 1080.0332 284.55859 L 1081.0996 278.2832 L 1094.6953 277.83203 L 1108.291 277.37891 z M 993.94727 277.49805 L 1007.9727 277.5 C 1017.327 277.5 1022.3977 278.14015 1023.1875 279.41797 C 1023.8389 280.47193 1024.2014 291.23691 1023.998 303.3418 C 1023.7946 315.44672 1023.4822 335.23425 1023.3008 347.31445 C 1023.114 359.73689 1022.2896 369.77779 1021.4023 370.42969 C 1019.8437 371.57345 1017.985 371.57852 1002.1855 370.4707 L 1002.1855 370.47461 L 993.94727 369.89844 L 993.94727 323.70117 L 993.94727 277.49805 z M 1116.3203 279.06641 L 1134.2051 279.06836 L 1152.0938 279.06836 L 1154.0527 284.16602 C 1155.1296 286.97035 1157.0285 291.73583 1158.2715 294.75586 C 1159.5145 297.77597 1162.5039 305.87064 1164.9141 312.74023 C 1167.3242 319.60994 1169.9904 325.46068 1170.8398 325.74414 C 1171.6894 326.02757 1173.4557 323.23059 1174.7656 319.5293 C 1176.0755 315.82801 1178.7025 308.91576 1180.6035 304.16992 C 1182.5046 299.42408 1185.1907 292.18652 1186.5723 288.08789 L 1189.084 280.63672 L 1206.627 280.63672 L 1224.166 280.63672 L 1224.9883 293.58008 C 1226.0129 309.75075 1225.0897 369.52238 1223.7832 371.63672 C 1222.9844 372.92898 1196.5137 374.05362 1196.2461 372.80664 C 1196.1987 372.59079 1195.7692 363.9424 1195.2871 353.58789 C 1194.8056 343.23338 1194.1564 334.48797 1193.8457 334.15234 C 1193.1015 333.34923 1190.7122 339.39217 1184.6055 357.51172 L 1179.5801 372.41406 L 1169.9648 372.88086 C 1160.4098 373.34336 1160.3355 373.31327 1158.1953 368.17383 C 1157.0108 365.32905 1154.4229 358.05963 1152.4434 352.01953 C 1150.4638 345.97939 1148.4179 340.33162 1147.8984 339.46875 C 1146.6159 337.3388 1144.814 349.81851 1144.6719 361.82422 L 1144.5586 371.63086 L 1130.4395 371.63086 L 1116.3203 371.63086 L 1116.3203 325.34961 L 1116.3203 279.06641 z M 126.39648 371.72656 C 148.84962 371.76575 179.17911 372.28203 207.94727 373.22656 C 233.40205 374.06241 302.58838 374.88946 361.69531 375.06445 C 420.80218 375.23937 485.04821 375.89709 504.46289 376.52344 C 605.77744 379.7919 716.10804 381.43648 863.73242 381.88477 C 987.29568 382.26011 1169.8648 384.17292 1229.7578 385.71875 C 1230.8643 385.74842 1230.3703 412.93139 1228.4746 456.34766 C 1228.1547 463.68202 1227.8521 474.44907 1227.7988 480.27344 L 1227.707 490.86328 L 1219.7129 490.86328 L 1211.7188 490.86328 L 1212.8652 452.0332 C 1214.2746 404.35469 1214.2036 407.95696 1213.8672 401.83008 L 1213.5859 396.73047 L 1204.5645 396.82227 C 1199.603 396.8697 1192.7229 397.41199 1189.2715 398.02344 L 1182.9922 399.13672 L 1182.209 440.6875 L 1181.4238 482.23438 L 1172.0781 482.71484 C 1166.9368 482.97952 1161.0059 482.76328 1158.8984 482.23438 L 1155.0664 481.27148 L 1155.8262 440.96289 C 1156.2438 418.79298 1156.2959 399.3974 1155.9395 397.86133 C 1155.3554 395.3414 1153.4258 395.11111 1136.1973 395.50781 L 1117.0996 395.94727 L 1116.6602 415.38867 L 1116.2188 434.83203 L 1104.3477 433.93359 C 1097.82 433.43965 1092.1565 432.7092 1091.7598 432.3125 C 1091.3631 431.9158 1090.688 424.27926 1090.2617 415.33984 C 1089.8354 406.40051 1089.1946 398.20165 1088.834 397.12305 C 1088.356 395.69325 1082.8479 395.16211 1068.5156 395.16211 L 1048.8555 395.16211 L 1048.7598 404.18359 C 1048.7069 409.14517 1048.5297 417.79371 1048.3672 423.40234 L 1048.0703 433.59961 L 1035.3457 434.05273 L 1022.6172 434.50586 L 1021.8145 429.3457 C 1021.3737 426.50841 1021.1008 417.69539 1021.207 409.75781 C 1021.3772 397.06801 1021.0593 395.23512 1018.5684 394.58398 C 1014.7899 393.59643 983.45796 394.15134 982.38477 395.22461 C 981.92109 395.68828 981.4042 404.26902 981.23828 414.29297 L 980.93555 432.51562 L 976.26172 433.44922 C 973.69172 433.96335 967.79422 434.38477 963.15625 434.38477 L 954.72266 434.38477 L 954.48828 418.30273 C 954.35827 409.45838 954.4071 400.2605 954.5957 397.86133 L 954.9375 393.49805 L 934.82812 393.93945 L 914.7168 394.37891 L 914.2793 413.66016 L 913.83789 432.94141 L 900.94336 432.48633 L 888.04688 432.03125 L 887.77734 424.97461 C 887.62805 421.09164 887.45129 412.08944 887.38477 404.9707 L 887.26172 392.02734 L 867.77734 392.02734 L 848.29297 392.02734 L 847.3418 396.35352 C 846.8189 398.73401 846.48843 414.4432 846.60938 431.26172 C 846.72919 448.08024 846.75061 465.54802 846.65234 470.07812 L 846.4707 478.3125 L 833.92383 478.3125 L 821.37305 478.3125 L 821.37305 435.35742 L 821.37305 392.4043 L 801.66406 391.26758 C 790.82426 390.64207 781.55729 390.52865 781.07227 391.01367 C 780.58663 391.4987 780.29255 400.7482 780.41992 411.57031 L 780.65234 431.24609 L 768.94141 431.24609 C 762.50124 431.24609 756.8878 430.68926 756.4668 430.00781 C 756.0458 429.32651 755.54148 421.03165 755.3457 411.57422 C 755.15 402.11678 754.67081 393.49458 754.28125 392.41602 C 753.76482 390.98501 748.10611 390.45508 733.34766 390.45508 L 713.12109 390.45508 L 713.12109 410.06641 L 713.12109 429.67969 L 701.51953 429.67969 C 692.39031 429.67969 689.71823 429.15252 688.96875 427.19922 C 688.44517 425.83436 688.01953 417.06943 688.01953 407.72266 L 688.01953 390.72852 L 669.58398 390.16992 C 659.44525 389.86416 649.91628 389.88615 648.40625 390.21875 C 645.97976 390.7542 645.66016 392.98718 645.66016 409.4375 C 645.66016 430.69046 645.91566 430.35093 630.65234 429.38477 L 622.91211 428.89453 L 622.4707 408.89062 L 622.03125 388.88867 L 600.89844 388.88867 L 579.76758 388.88867 L 579.76758 408.49805 L 579.76758 428.10938 L 567.2168 428.10938 L 554.66602 428.10938 L 554.6543 421.44141 C 554.64961 417.77424 554.19504 408.9507 553.64062 401.83203 L 552.63281 388.88867 L 532.49414 388.88867 L 512.35547 388.88867 L 511.93945 431.63867 L 511.52344 474.39062 L 499.36328 474.84961 L 487.20508 475.31055 L 487.20508 440.95703 C 487.20508 422.064 486.75168 402.26865 486.19727 396.96484 L 485.18945 387.32227 L 465.85742 387.32227 C 449.00405 387.32227 446.35195 387.67505 445.17969 390.06836 C 444.44045 391.57836 443.89102 400.5822 443.96094 410.08008 L 444.08984 427.34961 L 432.30664 426.77344 C 425.82706 426.45739 420.28699 425.9772 419.99219 425.70508 C 419.69757 425.43288 418.73225 416.86191 417.84766 406.6582 C 416.9631 396.4545 415.9409 387.78373 415.57617 387.39062 C 415.21145 386.99748 406.11543 386.38174 395.36328 386.02344 L 375.81641 385.37305 L 375.81641 405.95898 L 375.81641 426.54297 L 362.71875 426.54297 L 349.62305 426.54297 L 348.55664 406.62891 C 347.97115 395.67659 347.33395 386.58855 347.14062 386.43359 C 346.94744 386.27882 337.87739 385.66003 326.98438 385.05859 L 307.17773 383.96484 L 306.28906 387.60352 C 305.80048 389.605 305.69093 398.83347 306.04492 408.10938 C 306.52243 420.62313 306.19475 425.01741 304.77539 425.14062 C 303.72331 425.23209 300.74681 425.31874 298.1582 425.33008 C 285.82377 425.39414 281.53499 424.81855 280.95508 423.01367 C 280.60867 421.93507 279.85387 412.75791 279.2793 402.61914 L 278.23633 384.18359 L 257.21094 384.18359 L 236.1875 384.18359 L 236.1875 403.61133 C 236.1875 426.07204 237.14384 424.91911 218.53711 424.95312 L 207.94727 424.97656 L 207.94727 403.79688 L 207.94727 382.61719 L 195.00391 382.62891 C 187.88519 382.63484 178.46905 383.07443 174.08008 383.60156 L 166.09961 384.55859 L 166.83789 428.13086 L 167.57812 471.70117 L 153.64062 472.35742 C 145.97424 472.71874 139.44862 472.83571 139.14062 472.61914 C 138.83273 472.40333 138.49588 452.41714 138.39062 428.20703 L 138.19727 384.19141 L 133.45703 383.31445 C 130.85022 382.83169 123.4247 382.65145 116.95312 382.91602 L 105.1875 383.39648 L 105.42969 389.67188 C 105.56351 393.12334 106.20094 414.38357 106.84766 436.91602 L 108.02539 477.88477 L 100.50195 479.01562 C 94.95468 479.8475 92.633371 479.59418 91.65625 478.05273 C 90.927512 476.90312 90.275617 464.31177 90.208984 450.07422 C 90.142276 435.83689 89.746688 412.80554 89.330078 398.89453 L 88.572266 373.60352 L 92.173828 372.63867 C 94.178775 372.10144 103.56296 371.80715 117.2832 371.74023 C 120.1413 371.72629 123.18958 371.72097 126.39648 371.72656 z "
       style="display:inline;opacity:1;vector-effect:none;fill:#a05a2c;fill-opacity:1;fill-rule:evenodd;stroke:none;stroke-width:2.64566946;stroke-linecap:round;stroke-linejoin:round;stroke-miterlimit:4;stroke-dasharray:none;stroke-dashoffset:0;stroke-opacity:1;paint-order:stroke fill markers" />
    <path
       id="path892"
       d="m 348.22818,481.25564 88.77122,-14.79483 -34.62768,-207.77034 -31.73996,-13.74858 1.58927,-3.67039 29.36722,12.72028 -2.10717,-12.64457 c -0.11163,-0.66687 0.3706,-1.8672 1.46421,-2.04947 18.46487,-7.62707 21.1333,-0.0984 27.80137,2.07871 5.46463,-0.91074 5.8592,-12.16664 4.94844,-17.63128 l -0.23326,-1.40131 -0.0152,-0.0902 -0.85149,-5.11014 c -0.30139,-1.80728 -1.99931,-3.01963 -3.80662,-2.71842 l -29.75838,4.91497 -3.12875,0.52154 -41.8158,6.969 c -3.53613,0.5892 -6.25611,5.1671 -6.25036,8.75201 l 0.26907,168.51045 40.99454,-6.83266 0.65815,3.94527 -41.64593,6.94133 0.0319,20.45494 44.07659,-20.05154 1.65625,3.64084 -45.7256,20.80228 0.0432,26.79404 49.36237,-40.63679 2.54278,3.08862 -51.89623,42.72169 z m 79.12864,-27.5045 -3.94826,0.64294 -8.83984,-54.28523 3.94827,-0.64294 z m -59.0537,-76.8289 c -0.46365,0.0714 -0.93886,0.10932 -1.4224,0.11016 -5.15777,0.009 -9.34615,-4.16517 -9.35496,-9.32295 -0.009,-5.15757 4.16542,-9.34562 9.32301,-9.35444 5.15758,-0.009 9.34577,4.16482 9.35488,9.32242 0.008,4.67425 -3.41893,8.55218 -7.90053,9.24481 z m 10.30233,-36.66005 c -0.91011,0.1411 -1.84232,0.21418 -2.79161,0.21584 -10.12584,0.0175 -18.34848,-8.17704 -18.36612,-18.30289 -0.0175,-10.12601 8.17687,-18.34872 18.3029,-18.3661 10.12601,-0.0175 18.34879,8.17736 18.36618,18.30338 0.0156,9.17655 -6.713,16.78998 -15.51135,18.14977 z m -4.85135,-52.88703 c -0.70512,0.10874 -1.42744,0.16608 -2.16283,0.1674 -7.84427,0.0136 -14.21453,-6.33451 -14.22797,-14.17876 -0.0136,-7.84425 6.33455,-14.214 14.17882,-14.22745 7.84426,-0.0136 14.21454,6.33447 14.22797,14.17873 0.0123,7.10885 -5.20012,13.00667 -12.01599,14.06008 z"
       style="display:inline;opacity:1;vector-effect:none;fill:#a05a2c;fill-opacity:1;fill-rule:evenodd;stroke:none;stroke-width:0.69999999;stroke-linecap:round;stroke-linejoin:round;stroke-miterlimit:4;stroke-dasharray:none;stroke-dashoffset:0;stroke-opacity:1;paint-order:stroke fill markers" />
    <path
       id="path3423"
       transform="matrix(0.26458333,0,0,0.26458333,0,210)"
       d="M 21.244141 774.97656 L 21.244141 963.95508 C 208.74416 921.63034 210.2106 1058.9403 649.98828 1058.7383 C 653.45112 1058.7383 656.93954 1058.728 660.45703 1058.709 C 1110.6936 1056.3021 1110.6936 921.29707 1299.6699 963.95508 L 1299.6699 774.97656 L 1261.875 775.28711 L 1261.875 846.99023 L 1246.7559 846.99023 L 1246.7559 774.97656 L 74.158203 774.97656 L 74.158203 846.99023 L 59.039062 846.99023 L 59.039062 774.97656 L 21.244141 774.97656 z M 566.64062 798.89844 C 571.95082 798.93427 577.54291 799.18842 581.6875 799.65039 C 587.35452 800.28203 589.86678 801.34995 600.79688 807.76562 L 613.38281 815.15234 L 613.55664 821.48633 L 613.73047 827.82031 L 581.75586 827.82031 C 564.16976 827.82031 549.59188 827.48281 549.36133 827.07031 C 549.13063 826.65781 548.87171 820.42032 548.78516 813.20898 L 548.62695 800.09766 L 553.2832 799.45898 C 556.30108 799.04547 561.33043 798.86442 566.64062 798.89844 z M 581.93555 835.70312 L 581.9375 835.70312 C 584.72811 835.71711 587.00767 835.83189 587.24805 836.07227 C 587.44727 836.27145 587.91881 852.7206 588.29688 872.62695 L 588.98438 908.82031 L 579.91016 908.82031 L 570.83398 908.82031 L 570.49805 902.07031 C 569.89922 890.01785 570.14329 837.00876 570.80078 836.34961 C 571.2143 835.93518 577.28454 835.68045 581.93555 835.70312 z M 305.5957 842.57031 L 305.59766 842.57227 C 307.00078 842.56546 308.60144 842.58406 310.37695 842.63281 C 320.9996 842.92346 321.82242 843.0907 322.66797 845.13281 C 323.81536 847.90392 327.64622 858.05678 331.32031 868.06055 C 332.88341 872.31648 334.5315 875.68073 334.98242 875.53711 C 335.43334 875.39349 337.53681 870.11102 339.65625 863.79883 C 344.85023 848.3299 346.14943 844.93456 347.33008 843.75391 C 347.91578 843.16827 352.87687 842.87043 359.24805 843.03711 L 370.16406 843.32031 L 370.42773 874.07031 L 370.69141 904.82031 L 361.23633 904.82031 C 356.03584 904.82031 351.54235 904.43398 351.25 903.96094 C 350.95766 903.48789 350.77474 899.77537 350.84375 895.71094 C 350.91269 891.64651 350.89609 886.0703 350.80859 883.32031 C 350.65812 878.58948 350.5798 878.45493 349.37305 880.82031 C 348.67156 882.19534 346.59361 887.95111 344.75391 893.61133 L 341.4082 903.90234 L 334.42578 903.61133 L 327.44531 903.32031 L 325.18164 897.32031 C 323.93705 894.02029 322.13976 889.5203 321.1875 887.32031 C 319.65602 883.78207 319.36071 883.55119 318.62891 885.32031 C 318.17388 886.42031 317.77101 891.0328 317.73242 895.57031 L 317.66211 903.82031 L 308.80469 903.82031 L 299.94727 903.82031 L 299.30664 895.57031 C 298.81935 889.28621 298.52929 849.48155 298.92578 843.32031 C 298.95586 842.85263 301.3863 842.58921 305.5957 842.57031 z M 408.80078 843.85547 C 415.64755 843.86405 416.65907 846.1213 420.11719 856.74219 C 423.7198 867.80672 433.60022 896.23479 435.57227 901.20898 C 436.20228 902.79775 436.58931 904.22514 436.43359 904.38086 C 436.27795 904.53658 431.82646 904.98113 426.54102 905.36914 L 416.93164 906.07422 L 416.20703 902.2168 C 414.78483 894.63578 414.50405 894.46027 404.86523 895.20117 C 404.78133 895.20873 404.73001 895.21314 404.64648 895.2207 C 402.83507 895.11975 402.20065 890.4747 403.90234 883.53125 C 403.90234 883.53125 404.64794 881.82031 405.49414 881.82031 C 407.60247 881.82031 409.60263 881.54618 409.9375 881.21094 C 410.46508 880.68335 409.49544 877.61879 406.17773 869.32031 C 405.51824 867.67078 405.0626 868.28397 403.58008 872.82031 C 403.28671 873.71795 403.04324 874.48829 402.81836 875.2168 L 402.81641 875.19727 C 400.77958 881.95472 399.0536 890.34806 395.99219 896.15625 C 395.82955 896.31877 395.47292 898.18905 395.20117 900.3125 C 395.18454 900.44373 395.1478 900.56845 395.12891 900.69922 L 394.86133 901.58789 L 394.96289 901.60742 C 394.5965 903.22941 393.98915 904.63175 393.43359 904.98438 C 391.98872 905.90121 374.3027 906.12868 373.41602 905.24219 C 373.09789 904.92391 373.97959 901.43658 375.375 897.49219 C 381.31746 880.69464 388.8826 858.88665 390.69727 853.32031 C 391.77303 850.02033 393.03027 846.741 393.49023 846.0332 C 394.00837 845.23603 397.63791 844.5133 403.0293 844.13281 C 405.33269 843.97029 407.22075 843.85347 408.80078 843.85547 z M 440.44141 844.82031 L 450.04883 844.82031 L 459.65625 844.82031 L 459.19727 853.54883 C 458.72259 862.57003 459.22586 866.82227 460.76953 866.82227 C 461.25992 866.82227 461.66211 866.33846 461.66211 865.74609 C 461.66211 865.15373 463.73729 860.42873 466.27539 855.24609 C 469.90555 847.83372 471.34577 845.80758 473.02539 845.75391 C 478.03644 845.59365 492.15719 845.98532 492.46484 846.29297 C 492.6494 846.47741 491.86681 848.36075 490.72656 850.47656 C 481.45837 867.67379 477.66211 875.25496 477.66211 876.55859 C 477.66211 877.39682 481.32278 884.1132 485.79688 891.48438 C 490.27097 898.85551 493.7199 905.09455 493.46289 905.35156 C 493.20584 905.60857 488.29235 906.10906 482.54297 906.46094 L 472.08984 907.09961 L 469.48438 902.21094 C 468.05163 899.52207 465.37581 894.62225 463.53711 891.32227 L 460.19336 885.32227 L 459.50195 889.82031 C 459.12143 892.29537 458.77519 896.92742 458.73438 900.11133 L 458.66406 905.90039 L 450.03125 905.60938 L 441.40039 905.32031 L 440.92383 875.07031 L 440.44141 844.82031 z M 505.78125 847.50195 C 509.65455 847.50195 514.84335 847.5462 520.41211 847.63086 L 540.66211 847.9375 L 540.66211 855.37891 L 540.66211 862.82031 L 529.26758 862.82031 C 517.21281 862.82054 516.66211 863.04331 516.66211 867.90234 C 516.66211 869.62554 517.50076 869.83716 524.91211 869.97852 C 529.44958 870.06696 533.75503 870.11031 534.48047 870.08008 C 535.51198 870.03472 535.64865 871.47056 535.10742 876.67188 C 534.72682 880.32959 534.21814 883.65977 533.97852 884.07227 C 533.73874 884.48473 529.74407 884.82031 525.10156 884.82031 L 516.66211 884.82031 L 516.66211 888.82227 L 516.66211 892.82031 L 528.91211 892.81836 L 541.16211 892.81641 L 540.83594 900.81836 L 540.50977 908.82227 L 536.83594 908.59766 C 534.81533 908.47369 525.14883 908.23825 515.35547 908.07422 L 497.54883 907.77344 L 497.73633 877.85547 C 497.86759 856.76627 498.25166 847.84547 499.04102 847.62891 C 499.34897 847.54424 501.90799 847.50176 505.78125 847.50195 z M 594.91211 848.82031 L 603.77539 848.82031 L 612.64062 848.82031 L 616.15039 854.32031 C 618.08101 857.34533 621.24129 862.29533 623.17188 865.32031 C 625.1025 868.34533 626.91298 870.82031 627.19531 870.82031 C 627.47802 870.82031 627.58597 866.09611 627.43555 860.32031 L 627.16016 849.81836 L 636.91016 849.81836 L 646.66016 849.82031 L 646.78125 858.57031 C 647.00666 874.63799 646.61033 908.09195 646.18555 908.7793 C 645.70426 909.55811 637.80633 909.74722 632.71289 909.10156 C 628.79915 908.6055 628.34794 908.12361 622.1582 897.82031 C 619.68012 893.6953 616.54489 888.97034 615.19141 887.32031 L 612.73047 884.32031 L 612.69727 896.57031 L 612.66406 908.82031 L 603.66406 908.82031 L 594.66406 908.82031 L 594.46875 901.57031 C 594.36481 897.5828 594.31188 893.1953 594.35156 891.82031 C 594.39125 890.44532 594.53342 880.20779 594.66797 869.07031 L 594.91211 848.82031 z M 680.48047 848.97461 L 680.48242 848.97461 C 689.25667 848.88037 707.22059 849.79009 710.66211 850.78906 C 712.5871 851.34719 715.78017 853.29503 717.75781 855.11914 C 723.6476 860.55168 723.97662 870.6387 718.45703 876.53125 L 716.38477 878.74219 L 719.6543 882.4668 C 722.8926 886.15501 722.91793 886.26098 722.29102 893.75586 C 721.51908 902.98358 719.75873 905.71057 713.08008 908.02734 C 708.03169 909.77859 703.72019 909.90941 685.16211 908.87695 L 675.16211 908.32031 L 675.40234 879.32031 C 675.53312 863.37029 675.64283 849.92343 675.65039 849.4375 C 675.65417 849.14927 677.55717 849.00489 680.48047 848.97461 z M 839.29883 850.07422 L 839.30078 850.07422 C 845.47306 850.19453 856.92343 851.98854 860.91211 853.70508 C 865.18694 855.54473 867.0737 858.10746 864.80273 858.98828 C 864.33007 859.17159 863.00607 861.45563 861.86133 864.06445 L 859.7793 868.80664 L 850.69922 868.16211 L 841.62109 867.51953 L 837.33594 872.18555 C 834.97948 874.75219 832.50029 878.37801 831.82617 880.24219 C 830.6942 883.37262 830.83059 883.97162 833.61523 888.09766 C 837.13254 893.30932 840.67902 895.07119 846.77344 894.63477 C 850.44718 894.37171 851.21288 893.95414 851.48047 892.07031 C 851.77074 890.02702 851.39242 889.82031 847.36133 889.82031 C 843.00901 889.82031 842.91048 889.74738 842.30273 886.07031 C 841.96178 884.00782 841.67943 880.6328 841.67188 878.57031 L 841.66211 874.82031 L 854.66211 874.82031 C 864.34326 874.82031 867.68682 875.1393 867.75977 876.07031 C 868.32881 883.34197 868.36721 896.49967 867.83203 901.22461 L 867.16211 907.12891 L 861.16211 909.42383 C 856.37572 911.25448 853.2386 911.70847 845.66016 911.66992 C 840.43519 911.64347 835.24442 911.32862 834.125 910.9707 C 833.00558 910.61316 828.90667 908.2953 825.01172 905.82031 L 817.92969 901.32031 L 815.28516 893.02539 C 813.44521 887.25076 812.92405 884.20166 813.57031 882.99414 C 814.08093 882.04004 814.82747 877.89914 815.22852 873.79102 C 815.88158 867.10152 816.34119 865.88108 819.65039 862.10938 C 823.62751 857.57655 832.55378 851.12731 836.02539 850.2793 C 836.73044 850.10817 837.87557 850.04786 839.29883 850.07422 z M 794.66406 850.52539 L 794.78906 861.17383 C 794.85785 867.02994 795.02453 872.27032 795.16211 872.82031 C 795.29968 873.37031 795.46832 878.77031 795.53711 884.82031 L 795.66211 895.82031 L 803.59375 895.82031 L 811.52344 895.82031 L 810.59375 899.06445 C 810.08215 900.84831 809.66406 904.44838 809.66406 907.06445 L 809.66406 911.82031 L 792.81641 911.82031 L 775.9668 911.82031 L 776.4375 882.07031 C 776.69647 865.70779 776.99529 852.21803 777.09961 852.0918 C 777.20404 851.96556 781.19683 851.56073 785.97461 851.19336 L 794.66406 850.52539 z M 748.55273 850.82031 L 769.44336 850.82031 L 769.51367 859.07031 L 769.58398 867.32031 L 759.05078 866.97852 C 749.74097 866.6754 748.36332 866.84783 747.17383 868.47461 C 745.10801 871.29977 747.15179 872.82069 753.03516 872.83203 C 755.85529 872.83959 759.84473 873.12078 761.90234 873.46094 C 766.02743 874.1428 765.90949 873.46504 764.04883 885.65625 L 763.54102 888.99219 L 758.62109 888.31445 C 755.91548 887.94217 751.89232 887.94419 749.68164 888.31836 C 746.10579 888.92248 745.66406 889.30715 745.66406 891.80273 C 745.66406 893.43814 746.32194 894.86108 747.24414 895.21484 C 748.11411 895.5485 753.62661 895.81938 759.49414 895.81836 L 770.16406 895.81641 L 769.83789 903.82031 L 769.51172 911.82227 L 766.33789 911.5957 C 764.59228 911.47136 754.88145 911.23554 744.75977 911.07227 L 726.35742 910.77539 L 726.99805 882.04883 C 727.3503 866.24908 727.64283 852.75781 727.65039 852.07031 C 727.66022 851.11058 732.51401 850.82031 748.55273 850.82031 z M 946.54688 852.74414 L 946.16211 864.0332 C 945.14712 893.79471 944.5869 899.07926 941.92773 904.02148 C 939.83429 907.91228 938.60307 908.99508 934.78125 910.30469 C 928.7503 912.3713 920.49764 912.93856 913.75977 911.74805 L 913.75781 911.74805 C 904.90699 910.18423 899.84032 906.11375 898.28516 899.32031 C 897.49399 895.86904 897.4702 854.93987 898.25781 853.66602 C 898.54543 853.20083 903.25316 852.82031 908.7207 852.82031 C 916.89045 852.82031 918.66211 853.08751 918.66211 854.32031 C 918.66211 855.14531 917.9871 855.82031 917.16211 855.82031 C 915.90602 855.82031 915.636 858.1374 915.50977 870.07031 C 915.42662 877.90781 915.29692 885.89532 915.2168 887.82031 C 915.007 892.85634 915.43754 893.5917 919.36133 894.88672 C 922.43949 895.90262 923.12078 895.80504 924.80664 894.11914 C 926.48785 892.43797 926.80894 890.2143 927.29688 876.75586 C 927.60453 868.2664 928.16174 859.5203 928.53516 857.32031 L 929.21289 853.32031 L 937.88086 853.0332 L 946.54688 852.74414 z M 873.66211 852.82031 L 882.60352 852.82227 C 888.56602 852.82227 891.79739 853.23043 892.30078 854.04492 C 892.71592 854.71673 892.948 861.57921 892.81836 869.29492 C 892.68865 877.01064 892.4887 889.62227 892.37305 897.32227 C 892.25399 905.24038 891.72963 911.64112 891.16406 912.05664 C 890.17061 912.78564 888.98469 912.78816 878.91406 912.08203 L 878.91406 912.08398 L 873.66211 911.7168 L 873.66211 882.26953 L 873.66211 852.82031 z M 951.66211 853.82031 L 963.0625 853.82227 L 974.46484 853.82227 L 975.71289 857.07227 C 976.39929 858.85976 977.61004 861.89728 978.40234 863.82227 C 979.19465 865.74729 981.10045 870.90646 982.63672 875.28516 C 984.17298 879.66393 985.87261 883.39356 986.41406 883.57422 C 986.95556 883.75488 988.08104 881.9725 988.91602 879.61328 C 989.75091 877.25406 991.425 872.84729 992.63672 869.82227 C 993.84847 866.79725 995.56078 862.18475 996.44141 859.57227 L 998.04297 854.82227 L 1009.2246 854.82227 L 1020.4043 854.82227 L 1020.9277 863.07227 C 1021.5809 873.37953 1020.9929 911.47847 1020.1602 912.82617 C 1019.651 913.64977 1002.7779 914.3671 1002.6074 913.57227 C 1002.5772 913.43469 1002.3034 907.92227 1001.9961 901.32227 C 1001.6892 894.72227 1001.2762 889.14752 1001.0781 888.93359 C 1000.6038 888.42169 999.07996 892.27279 995.1875 903.82227 L 991.98438 913.32227 L 985.85547 913.61719 C 979.76506 913.91199 979.71766 913.89309 978.35352 910.61719 C 977.59852 908.80392 975.94926 904.17029 974.6875 900.32031 C 973.42574 896.4703 972.1221 892.87031 971.79102 892.32031 C 970.97354 890.96267 969.82508 898.91783 969.73438 906.57031 L 969.66211 912.82031 L 960.66211 912.82031 L 951.66211 912.82031 L 951.66211 883.32031 L 951.66211 853.82031 z M 314.87305 912.89062 L 314.875 912.89062 C 329.45181 912.81949 351.70755 913.14983 372.66406 913.83789 C 388.88905 914.37065 432.98905 914.89827 470.66406 915.00977 C 508.33904 915.12126 549.28906 915.54022 561.66406 915.93945 C 626.24239 918.02277 696.56766 919.07169 790.66406 919.35742 C 869.42382 919.59667 985.79464 920.81546 1023.9707 921.80078 C 1024.676 921.81968 1024.3607 939.14661 1023.1523 966.82031 C 1022.9483 971.49529 1022.7567 978.35783 1022.7227 982.07031 L 1022.6641 988.82031 L 1017.5684 988.82031 L 1012.4727 988.82031 L 1013.2031 964.07031 C 1014.1014 933.67981 1014.0561 935.97562 1013.8418 932.07031 L 1013.6621 928.82031 L 1007.9121 928.87891 C 1004.7496 928.90914 1000.364 929.25479 998.16406 929.64453 L 994.16211 930.35352 L 993.66211 956.83789 L 993.16211 983.32031 L 987.20508 983.62695 C 983.928 983.79567 980.14801 983.65745 978.80469 983.32031 L 976.36133 982.70703 L 976.8457 957.01367 C 977.11178 942.88247 977.14512 930.5201 976.91797 929.54102 C 976.54569 927.93483 975.31552 927.78817 964.33398 928.04102 L 952.16211 928.32031 L 951.88086 940.71289 L 951.59961 953.10547 L 944.0332 952.5332 C 939.87247 952.21837 936.26262 951.75285 936.00977 951.5 C 935.75692 951.24715 935.32644 946.37966 935.05469 940.68164 C 934.78294 934.98366 934.37433 929.75781 934.14453 929.07031 C 933.8399 928.15896 930.32882 927.82031 921.19336 927.82031 L 908.66211 927.82031 L 908.60156 933.57031 C 908.56792 936.73283 908.45512 942.24533 908.35156 945.82031 L 908.16211 952.32031 L 900.05078 952.60938 L 891.9375 952.89844 L 891.42578 949.60938 C 891.14489 947.80087 890.97141 942.18251 891.03906 937.12305 C 891.14753 929.03452 890.94513 927.8662 889.35742 927.45117 C 886.94899 926.82169 866.97703 927.17528 866.29297 927.85938 C 865.99741 928.15493 865.66833 933.62438 865.5625 940.01367 L 865.36914 951.62891 L 862.39062 952.22461 C 860.7525 952.55233 856.99338 952.82031 854.03711 952.82031 L 848.66211 952.82031 L 848.51172 942.57031 C 848.42895 936.93288 848.45989 931.07025 848.58008 929.54102 L 848.79883 926.75977 L 835.98047 927.04102 L 823.16211 927.32031 L 822.88281 939.61133 L 822.60156 951.90039 L 814.38281 951.61133 L 806.16211 951.32031 L 805.99023 946.82227 C 805.89499 944.34724 805.78257 938.60978 805.74023 934.07227 L 805.66211 925.82227 L 793.24219 925.82227 L 780.82227 925.82227 L 780.2168 928.58008 C 779.88344 930.09741 779.6729 940.1099 779.75 950.83008 C 779.82635 961.55029 779.83813 972.68474 779.77539 975.57227 L 779.66016 980.82031 L 771.66211 980.82031 L 763.66211 980.82031 L 763.66211 953.44141 L 763.66211 926.0625 L 751.09961 925.33789 C 744.19029 924.93915 738.28377 924.86662 737.97461 925.17578 C 737.66518 925.48495 737.47733 931.38124 737.55859 938.2793 L 737.70703 950.82031 L 730.24219 950.82031 C 726.1372 950.82031 722.55936 950.46559 722.29102 950.03125 C 722.02267 949.59698 721.7009 944.30948 721.57617 938.28125 C 721.45141 932.25305 721.14675 926.75781 720.89844 926.07031 C 720.56928 925.1582 716.96178 924.82031 707.55469 924.82031 L 694.66211 924.82031 L 694.66211 937.32031 L 694.66211 949.82227 L 687.26758 949.82227 C 681.44858 949.82227 679.74531 949.48529 679.26758 948.24023 C 678.93385 947.37026 678.66211 941.78384 678.66211 935.82617 L 678.66211 924.99414 L 666.91211 924.63867 C 660.44965 924.44365 654.3746 924.45594 653.41211 924.66797 C 651.86545 925.00926 651.66211 926.43246 651.66211 936.91797 C 651.66211 950.4647 651.82462 950.24865 642.0957 949.63281 L 637.16211 949.32031 L 636.88086 936.57031 L 636.60156 923.82031 L 623.13086 923.82031 L 609.66211 923.82031 L 609.66211 936.32031 L 609.66211 948.82031 L 601.66211 948.82031 L 593.66211 948.82031 L 593.65625 944.57031 C 593.65326 942.23283 593.36315 936.60779 593.00977 932.07031 L 592.36719 923.82031 L 579.53125 923.82031 L 566.69531 923.82031 L 566.42773 951.07031 L 566.16211 978.32031 L 558.41211 978.61328 L 550.66211 978.90625 L 550.66211 957.00977 C 550.66211 944.96728 550.37292 932.34942 550.01953 928.96875 L 549.37695 922.82227 L 537.05469 922.82227 C 526.31229 922.82227 524.62221 923.04677 523.875 924.57227 C 523.40381 925.53476 523.05306 931.27412 523.09766 937.32812 L 523.17969 948.33594 L 515.66992 947.96875 C 511.53981 947.7673 508.00816 947.46059 507.82031 947.28711 C 507.63251 947.11363 507.01695 941.65037 506.45312 935.14648 C 505.8893 928.6426 505.2383 923.11582 505.00586 922.86523 C 504.77338 922.61465 498.97455 922.22242 492.12109 921.99414 L 479.66211 921.58008 L 479.66211 934.70117 L 479.66211 947.82227 L 471.31445 947.82227 L 462.9668 947.82227 L 462.28711 935.12891 C 461.91392 928.14785 461.50798 922.35451 461.38477 922.25586 C 461.26163 922.15721 455.48037 921.76226 448.53711 921.37891 L 435.91211 920.68164 L 435.3457 923.00195 C 435.03427 924.27769 434.96577 930.15976 435.19141 936.07227 C 435.49577 944.04858 435.28752 946.84912 434.38281 946.92773 C 433.71221 946.98594 431.81405 947.04127 430.16406 947.04883 C 422.30204 947.08965 419.56886 946.72272 419.19922 945.57227 C 418.97842 944.88477 418.4971 939.03477 418.13086 932.57227 L 417.4668 920.82227 L 404.06445 920.82227 L 390.66406 920.82227 L 390.66406 933.20508 C 390.66406 947.52163 391.27407 946.78592 379.41406 946.80859 L 372.66406 946.82422 L 372.66406 933.32422 L 372.66406 919.82422 L 364.41406 919.83203 C 359.87656 919.83581 353.87372 920.11712 351.07617 920.45312 L 345.99023 921.0625 L 346.46094 948.83594 L 346.93164 976.60742 L 338.04883 977.02539 C 333.16224 977.25556 329.00295 977.33131 328.80664 977.19336 C 328.61038 977.05578 328.39521 964.31639 328.32812 948.88477 L 328.20508 920.82812 L 325.18359 920.26953 C 323.522 919.96188 318.78907 919.84706 314.66406 920.01562 L 307.16406 920.32031 L 307.31641 924.32031 C 307.40171 926.5203 307.80849 940.07131 308.2207 954.43359 L 308.9707 980.54688 L 304.17578 981.26758 C 300.63992 981.79781 299.15993 981.63682 298.53711 980.6543 C 298.07261 979.92152 297.65772 971.89537 297.61523 962.82031 C 297.57271 953.74536 297.32024 939.06614 297.05469 930.19922 L 296.57227 914.07812 L 298.86719 913.46289 C 300.14522 913.12043 306.12697 912.93333 314.87305 912.89062 z "
       style="display:inline;opacity:1;vector-effect:none;fill:#a05a2c;fill-opacity:1;fill-rule:evenodd;stroke:none;stroke-width:2.64566922;stroke-linecap:round;stroke-linejoin:round;stroke-miterlimit:4;stroke-dasharray:none;stroke-dashoffset:0;stroke-opacity:1;paint-order:stroke fill markers" />
    <path
       style="display:inline;opacity:1;vector-effect:none;fill:#a05a2c;fill-opacity:1;fill-rule:evenodd;stroke:none;stroke-width:0.69999999;stroke-linecap:round;stroke-linejoin:round;stroke-miterlimit:4;stroke-dasharray:none;stroke-dashoffset:0;stroke-opacity:1;paint-order:stroke fill markers"
       d="m 491.40406,239.02685 -88.77122,14.79483 34.62768,207.77034 31.73996,13.74858 -1.58927,3.67039 -29.36723,-12.72028 2.10718,12.64457 c 0.11163,0.66687 -0.3706,1.8672 -1.46421,2.04947 -18.46487,7.62707 -21.1333,0.0984 -27.80137,-2.07871 -5.46464,0.91074 -5.8592,12.16664 -4.94844,17.63128 l 0.23325,1.40131 0.0152,0.0902 0.85149,5.11014 c 0.30139,1.80728 1.99931,3.01963 3.80662,2.71842 l 29.75838,-4.91497 3.12875,-0.52154 41.8158,-6.969 c 3.53613,-0.5892 6.25611,-5.1671 6.25036,-8.75201 l -0.26907,-168.51045 -40.99454,6.83266 -0.65815,-3.94527 41.64593,-6.94133 -0.0319,-20.45494 -44.07659,20.05154 -1.65625,-3.64084 45.7256,-20.80228 -0.0432,-26.79404 -49.36237,40.63679 -2.54278,-3.08862 51.89623,-42.72169 z m -79.12864,27.5045 3.94826,-0.64294 8.83984,54.28523 -3.94827,0.64294 z m 59.0537,76.8289 c 0.46365,-0.0714 0.93886,-0.10932 1.4224,-0.11016 5.15777,-0.009 9.34615,4.16517 9.35496,9.32295 0.009,5.15757 -4.16542,9.34562 -9.32301,9.35444 -5.15758,0.009 -9.34577,-4.16482 -9.35488,-9.32242 -0.008,-4.67425 3.41892,-8.55218 7.90053,-9.24481 z m -10.30233,36.66005 c 0.9101,-0.1411 1.84232,-0.21418 2.79161,-0.21584 10.12584,-0.0175 18.34847,8.17704 18.36612,18.30289 0.0175,10.12601 -8.17687,18.34872 -18.3029,18.3661 -10.12601,0.0175 -18.34879,-8.17736 -18.36618,-18.30338 -0.0156,-9.17655 6.713,-16.78997 15.51135,-18.14977 z m 4.85135,52.88703 c 0.70512,-0.10874 1.42744,-0.16608 2.16283,-0.1674 7.84426,-0.0136 14.21453,6.33451 14.22797,14.17876 0.0136,7.84425 -6.33456,14.214 -14.17882,14.22745 -7.84426,0.0136 -14.21454,-6.33447 -14.22797,-14.17873 -0.0123,-7.10885 5.20012,-13.00667 12.01599,-14.06008 z"
       id="path1409" />
  </g>
</svg>
