<?xml version="1.0" encoding="UTF-8" standalone="no"?>
<svg
   xmlns:dc="http://purl.org/dc/elements/1.1/"
   xmlns:cc="http://creativecommons.org/ns#"
   xmlns:rdf="http://www.w3.org/1999/02/22-rdf-syntax-ns#"
   xmlns:svg="http://www.w3.org/2000/svg"
   xmlns="http://www.w3.org/2000/svg"
   id="svg8"
   version="1.1"
   viewBox="0 0 510 300"
   height="300mm"
   width="510mm">
  <defs
     id="defs2" />
  <metadata
     id="metadata5">
    <rdf:RDF>
      <cc:Work
         rdf:about="">
        <dc:format>image/svg+xml</dc:format>
        <dc:type
           rdf:resource="http://purl.org/dc/dcmitype/StillImage" />
        <dc:title></dc:title>
      </cc:Work>
    </rdf:RDF>
  </metadata>
  <g
     transform="translate(0,-210)"
     style="display:none"
     id="layer5">
    <path
       id="rect815"
       d="M 204.13764,473.33714 H 154.1376 V 103.33705 h 50.00004 z m -0.0537,-9.9999 v -4.00029 h -4.00027 v 4.00029 z m 0,-345.99996 V 113.337 h -4.00027 v 4.00028 z"
       style="display:inline;opacity:1;vector-effect:none;fill:#a05a2c;fill-opacity:1;fill-rule:evenodd;stroke:none;stroke-width:0.69999999;stroke-linecap:round;stroke-linejoin:round;stroke-miterlimit:4;stroke-dasharray:none;stroke-dashoffset:0;stroke-opacity:1;paint-order:stroke fill markers" />
    <path
       id="path4993"
       d="M 7.0210138,473.33714 H 152.02092 V 103.33704 H 7.0210138 V 113.337 H 27.021341 v 4.00028 H 7.0210138 V 459.33695 H 27.021341 v 4.00029 H 7.0210138 Z"
       style="display:inline;opacity:1;vector-effect:none;fill:#a05a2c;fill-opacity:1;fill-rule:evenodd;stroke:none;stroke-width:0.70000005;stroke-linecap:round;stroke-linejoin:round;stroke-miterlimit:4;stroke-dasharray:none;stroke-dashoffset:0;stroke-opacity:1;paint-order:stroke fill markers" />
    <path
       style="display:inline;opacity:1;vector-effect:none;fill:#a05a2c;fill-opacity:1;fill-rule:evenodd;stroke:none;stroke-width:0.69999999;stroke-linecap:round;stroke-linejoin:round;stroke-miterlimit:4;stroke-dasharray:none;stroke-dashoffset:0;stroke-opacity:1;paint-order:stroke fill markers"
       d="m 206.71742,251.63617 0.78375,210.63472 41.73937,26.76453 -2.15921,3.36696 -39.56227,-25.36807 0.0477,12.81904 c 0.003,0.67614 -0.66575,1.78334 -1.77444,1.78744 l -13.21918,0.0493 c -5.53997,0.0206 -9.98338,4.49728 -9.96276,10.03729 l 0.005,1.42084 2.5e-4,0.0912 0.0192,5.18083 c 0.007,1.83221 1.48789,3.30163 3.32011,3.2948 l 18.51989,-0.0685 3.17228,-0.0119 42.39191,-0.15743 c 3.58487,-0.0132 7.00558,-4.09421 7.57608,-7.63341 l 26.81767,-166.36302 -41.55976,0.15484 -0.0152,-3.99987 42.2202,-0.15732 3.25583,-20.1943 -46.72629,12.70662 -1.04959,-3.85974 48.4747,-13.18239 4.26389,-26.45278 -55.25225,32.17452 -2.01318,-3.45696 58.08821,-33.82558 2.59313,-16.08641 -72.4163,0.2692 0.44521,119.60942 -3.99988,0.0153 -0.44511,-119.60996 z m 19.12447,149.36415 a 18.334688,18.334688 0 0 1 21.01708,-15.18531 18.334688,18.334688 0 0 1 15.18587,21.01664 18.334688,18.334688 0 0 1 -21.01714,15.18579 18.334688,18.334688 0 0 1 -15.18581,-21.01712 z m 0.39572,49.50436 a 14.203151,14.203151 0 0 1 16.28117,-11.76388 14.203151,14.203151 0 0 1 11.76386,16.28119 14.203151,14.203151 0 0 1 -16.28118,11.76388 14.203151,14.203151 0 0 1 -11.76385,-16.28119 z m 24.60802,-91.59801 a 9.3388453,9.3388453 0 0 1 10.70525,-7.73501 9.3388453,9.3388453 0 0 1 7.73498,10.70525 9.3388453,9.3388453 0 0 1 -10.70513,7.73448 9.3388453,9.3388453 0 0 1 -7.7351,-10.70472 z"
       id="path4881" />
    <path
       id="path4883"
       d="M 5.3799897,98.154002 216.01465,97.370251 242.77918,55.63088 l 3.36694,2.159212 -25.36806,39.56227 12.81904,-0.0477 c 0.67615,-0.003 1.78335,0.66575 1.78746,1.774439 l 0.0493,13.219179 c 0.0206,5.53997 4.4973,9.98338 10.03728,9.96276 l 1.42086,-0.005 0.0912,-2.5e-4 5.18082,-0.0192 c 1.83221,-0.007 3.30164,-1.48789 3.29482,-3.32011 l -0.0685,-18.51989 -0.0119,-3.17228 -0.15741,-42.391909 c -0.0133,-3.584861 -4.09422,-7.005572 -7.63342,-7.576071 L 81.224639,20.438651 l 0.154829,41.559761 -3.99986,0.0152 -0.157321,-42.220211 -20.194299,-3.25581 12.70662,46.72628 -3.859739,1.049589 -13.18238,-48.474709 -26.452771,-4.26389 32.174509,55.25226 -3.456979,2.01318 -33.82555,-58.0882 L 5.0452896,8.1589708 5.3144897,80.575271 124.92385,80.130061 124.93904,84.129932 5.3291465,84.575043 Z M 154.74408,79.029532 a 18.334688,18.334688 0 0 1 -15.18533,-21.017071 18.334688,18.334688 0 0 1 21.01666,-15.185869 18.334688,18.334688 0 0 1 15.1858,21.01713 18.334688,18.334688 0 0 1 -21.01713,15.18581 z m 49.50435,-0.395721 a 14.203151,14.203151 0 0 1 -11.76386,-16.28117 14.203151,14.203151 0 0 1 16.28118,-11.763859 14.203151,14.203151 0 0 1 11.76388,16.28118 14.203151,14.203151 0 0 1 -16.2812,11.763849 z M 112.65044,54.025802 a 9.3388453,9.3388453 0 0 1 -7.73501,-10.705262 9.3388453,9.3388453 0 0 1 10.70524,-7.73498 9.3388453,9.3388453 0 0 1 7.7345,10.705142 9.3388453,9.3388453 0 0 1 -10.70473,7.7351 z"
       style="display:inline;opacity:1;vector-effect:none;fill:#a05a2c;fill-opacity:1;fill-rule:evenodd;stroke:none;stroke-width:0.69999999;stroke-linecap:round;stroke-linejoin:round;stroke-miterlimit:4;stroke-dasharray:none;stroke-dashoffset:0;stroke-opacity:1;paint-order:stroke fill markers" />
    <path
       id="path4991"
       d="m 55.162259,327.79822 10.157518,-18.57301 11.033432,-7.25688 15.461589,14.29571 v 12.91756 l -11.32385,11.10268 -13.283951,2.03191 z"
       style="display:inline;opacity:1;vector-effect:none;fill:#000000;fill-opacity:1;fill-rule:evenodd;stroke:none;stroke-width:0.70000005;stroke-linecap:round;stroke-linejoin:round;stroke-miterlimit:4;stroke-dasharray:none;stroke-dashoffset:0;stroke-opacity:1;paint-order:stroke fill markers" />
    <path
       id="rect847"
       d="m 55.162259,248.87603 12.044738,-14.51798 13.283951,2.03192 11.32385,11.10268 v 12.91756 l -15.461589,14.29577 -11.033432,-7.25693 z"
       style="display:inline;opacity:1;vector-effect:none;fill:#000000;fill-opacity:1;fill-rule:evenodd;stroke:none;stroke-width:0.70000005;stroke-linecap:round;stroke-linejoin:round;stroke-miterlimit:4;stroke-dasharray:none;stroke-dashoffset:0;stroke-opacity:1;paint-order:stroke fill markers" />
    <path
       id="path4737"
       d="m 42.952403,226.55553 22.367414,40.89359 11.03345,7.25685 33.100223,-30.55133 -30.896212,44.18254 -23.28623,-14.9836 z"
       style="display:inline;fill:none;fill-opacity:1;stroke:#ff0000;stroke-width:0.26458332px;stroke-linecap:butt;stroke-linejoin:miter;stroke-opacity:1" />
    <path
       style="display:inline;fill:#333333;fill-opacity:1;stroke:#ff0000;stroke-width:0.26458332px;stroke-linecap:butt;stroke-linejoin:miter;stroke-opacity:1"
       d="m 131.8833,292.09909 -24.05271,5.26928 9.86992,20.28872 z"
       id="path4785" />
    <path
       style="display:inline;fill:#999999;fill-opacity:1;stroke:#ff0000;stroke-width:0.26458332px;stroke-linecap:butt;stroke-linejoin:miter;stroke-opacity:1"
       d="m 80.490779,340.28443 7.014059,11.78421 -20.297711,17.95977 v -27.71206 z"
       id="path4771" />
    <path
       id="path4731"
       d="m 18.718132,288.33718 7.83955,-34.31322 32.519534,34.31322 z"
       style="display:inline;fill:#999999;fill-opacity:1;stroke:#ff0000;stroke-width:0.26458332px;stroke-linecap:butt;stroke-linejoin:miter;stroke-opacity:1" />
    <path
       id="path4733"
       d="m 26.557682,254.02396 16.394721,-27.46843 16.124813,61.78165 z"
       style="display:inline;fill:#999999;fill-opacity:1;stroke:#ff0000;stroke-width:0.26458332px;stroke-linecap:butt;stroke-linejoin:miter;stroke-opacity:1" />
    <path
       id="path4739"
       d="m 67.207127,234.3579 v -27.71206 l -24.254724,19.90969 12.209634,22.3206 z"
       style="display:inline;fill:#999999;fill-opacity:1;stroke:#ff0000;stroke-width:0.26458332px;stroke-linecap:butt;stroke-linejoin:miter;stroke-opacity:1" />
    <path
       id="path4741"
       d="m 80.490779,236.38981 7.014059,-11.7842 -20.297711,-17.95977 v 27.71206 z"
       style="display:inline;fill:#999999;fill-opacity:1;stroke:#ff0000;stroke-width:0.26458332px;stroke-linecap:butt;stroke-linejoin:miter;stroke-opacity:1" />
    <path
       id="path4743"
       d="M 87.504838,224.60561 105.36686,240.51285 91.814557,247.4928 80.490779,236.38981 Z"
       style="display:inline;fill:#999999;fill-opacity:1;stroke:#ff0000;stroke-width:0.26458332px;stroke-linecap:butt;stroke-linejoin:miter;stroke-opacity:1" />
    <path
       id="path4745"
       d="m 105.36686,240.51285 4.08663,3.64179 -17.638933,16.25534 V 247.4928 Z"
       style="display:inline;fill:#999999;fill-opacity:1;stroke:#ff0000;stroke-width:0.26458332px;stroke-linecap:butt;stroke-linejoin:miter;stroke-opacity:1" />
    <path
       id="path4747"
       d="m 67.207127,206.64584 44.934983,-6.67077 -2.68862,44.17957 z"
       style="display:inline;fill:#999999;fill-opacity:1;stroke:#ff0000;stroke-width:0.26458332px;stroke-linecap:butt;stroke-linejoin:miter;stroke-opacity:1" />
    <path
       id="path4749"
       d="m 112.14211,199.97507 20.97518,84.89048 -1.23399,-0.29027 -22.42981,-40.42064 z"
       style="display:inline;fill:#333333;fill-opacity:1;stroke:#ff0000;stroke-width:0.26458332px;stroke-linecap:butt;stroke-linejoin:miter;stroke-opacity:1" />
    <path
       id="path4751"
       d="m 78.557278,288.33718 39.143212,-29.32002 -8.247,-14.86252 z"
       style="display:inline;fill:#999999;fill-opacity:1;stroke:#ff0000;stroke-width:0.26458332px;stroke-linecap:butt;stroke-linejoin:miter;stroke-opacity:1" />
    <path
       id="path4753"
       d="m 78.557278,288.33718 h 16.338751 l 12.934561,-9.03121 -10.88145,-4.61823 z"
       style="display:inline;fill:#999999;fill-opacity:1;stroke:#ff0000;stroke-width:0.26458332px;stroke-linecap:butt;stroke-linejoin:miter;stroke-opacity:1" />
    <path
       id="path4755"
       d="m 131.8833,284.57528 -24.05271,-5.26931 9.86992,-20.28881 z"
       style="display:inline;fill:#333333;fill-opacity:1;stroke:#ff0000;stroke-width:0.26458332px;stroke-linecap:butt;stroke-linejoin:miter;stroke-opacity:1" />
    <path
       id="path4757"
       d="m 94.896029,288.33718 h 54.118101 l -41.18354,-9.03121 z"
       style="display:inline;fill:none;fill-opacity:1;stroke:#ff0000;stroke-width:0.26458332px;stroke-linecap:butt;stroke-linejoin:miter;stroke-opacity:1" />
    <path
       id="path4759"
       d="M 78.557278,288.33718 H 59.077216 l -3.806168,-14.9836 z"
       style="display:inline;fill:#999999;fill-opacity:1;stroke:#ff0000;stroke-width:0.26458332px;stroke-linecap:butt;stroke-linejoin:miter;stroke-opacity:1" />
    <path
       style="display:inline;fill:#999999;fill-opacity:1;stroke:#ff0000;stroke-width:0.26458332px;stroke-linecap:butt;stroke-linejoin:miter;stroke-opacity:1"
       d="m 18.718132,288.33718 7.83955,34.31311 32.519534,-34.31311 z"
       id="path4761" />
    <path
       style="display:inline;fill:#999999;fill-opacity:1;stroke:#ff0000;stroke-width:0.26458332px;stroke-linecap:butt;stroke-linejoin:miter;stroke-opacity:1"
       d="m 26.557682,322.65029 16.394721,27.46843 16.124813,-61.78154 z"
       id="path4763" />
    <path
       style="display:inline;fill:none;fill-opacity:1;stroke:#ff0000;stroke-width:0.26458332px;stroke-linecap:butt;stroke-linejoin:miter;stroke-opacity:1"
       d="m 42.952403,350.11872 22.367414,-40.89357 11.03345,-7.25682 33.100223,30.55128 -30.896212,-44.18243 -23.28623,14.98354 z"
       id="path4767" />
    <path
       style="display:inline;fill:#999999;fill-opacity:1;stroke:#ff0000;stroke-width:0.26458332px;stroke-linecap:butt;stroke-linejoin:miter;stroke-opacity:1"
       d="m 67.207127,342.31635 v 27.71206 L 42.952403,350.11872 55.162037,327.79813 Z"
       id="path4769" />
    <path
       style="display:inline;fill:#999999;fill-opacity:1;stroke:#ff0000;stroke-width:0.26458332px;stroke-linecap:butt;stroke-linejoin:miter;stroke-opacity:1"
       d="M 87.504838,352.06864 105.36686,336.16139 91.814557,329.18146 80.490779,340.28443 Z"
       id="path4773" />
    <path
       style="display:inline;fill:#999999;fill-opacity:1;stroke:#ff0000;stroke-width:0.26458332px;stroke-linecap:butt;stroke-linejoin:miter;stroke-opacity:1"
       d="m 105.36686,336.16141 4.08663,-3.6418 -17.638933,-16.25535 v 12.9172 z"
       id="path4775" />
    <path
       style="display:inline;fill:#999999;fill-opacity:1;stroke:#ff0000;stroke-width:0.26458332px;stroke-linecap:butt;stroke-linejoin:miter;stroke-opacity:1"
       d="m 67.207127,370.02841 44.934983,6.67078 -2.68862,-44.17958 z"
       id="path4777" />
    <path
       style="display:inline;fill:#333333;fill-opacity:1;stroke:#ff0000;stroke-width:0.26458332px;stroke-linecap:butt;stroke-linejoin:miter;stroke-opacity:1"
       d="m 112.14211,376.69919 20.97518,-84.89038 -1.23399,0.29028 -22.42981,40.42052 z"
       id="path4779" />
    <path
       style="display:inline;fill:#999999;fill-opacity:1;stroke:#ff0000;stroke-width:0.26458332px;stroke-linecap:butt;stroke-linejoin:miter;stroke-opacity:1"
       d="m 78.557278,288.33718 39.143212,29.31991 -8.247,14.86252 z"
       id="path4781" />
    <path
       style="display:inline;fill:#999999;fill-opacity:1;stroke:#ff0000;stroke-width:0.26458332px;stroke-linecap:butt;stroke-linejoin:miter;stroke-opacity:1"
       d="m 78.557278,288.33718 h 16.338751 l 12.934561,9.03119 -10.88145,4.61819 z"
       id="path4783" />
    <path
       style="display:inline;fill:none;fill-opacity:1;stroke:#ff0000;stroke-width:0.26458332px;stroke-linecap:butt;stroke-linejoin:miter;stroke-opacity:1"
       d="m 94.896029,288.33718 h 54.118101 l -41.18354,9.03119 z"
       id="path4787" />
    <path
       style="display:inline;fill:#999999;fill-opacity:1;stroke:#ff0000;stroke-width:0.26458332px;stroke-linecap:butt;stroke-linejoin:miter;stroke-opacity:1"
       d="M 78.557278,288.33718 H 59.077216 l -3.806168,14.98354 z"
       id="path4789" />
    <path
       id="path4809"
       d="m 107.83059,279.30597 -10.88145,-4.61823 20.75137,-15.67058 z"
       style="display:inline;fill:none;fill-opacity:1;stroke:#ff0000;stroke-width:0.26458332px;stroke-linecap:butt;stroke-linejoin:miter;stroke-opacity:1" />
    <path
       id="path4811"
       d="m 117.70051,317.65709 -20.75137,-15.67053 10.88145,-4.61819 z"
       style="display:inline;fill:none;fill-opacity:1;stroke:#ff0000;stroke-width:0.26458332px;stroke-linecap:butt;stroke-linejoin:miter;stroke-opacity:1" />
    <path
       id="path4737-3"
       d="m 42.952403,226.55554 22.367414,40.8936 11.03345,7.25685 33.100223,-30.55133 -30.896212,44.18254 -23.28623,-14.9836 z"
       style="display:inline;fill:none;fill-opacity:1;stroke:#ff0000;stroke-width:0.26458332px;stroke-linecap:butt;stroke-linejoin:miter;stroke-opacity:1" />
    <path
       style="display:inline;fill:#333333;fill-opacity:1;stroke:#ff0000;stroke-width:0.26458332px;stroke-linecap:butt;stroke-linejoin:miter;stroke-opacity:1"
       d="m 131.88331,292.09911 -24.05272,5.26928 9.86992,20.28871 z"
       id="path4785-6" />
    <path
       style="display:inline;fill:#999999;fill-opacity:1;stroke:#ff0000;stroke-width:0.26458332px;stroke-linecap:butt;stroke-linejoin:miter;stroke-opacity:1"
       d="m 80.490779,340.28444 7.014059,11.78421 -20.297711,17.95977 v -27.71206 z"
       id="path4771-7" />
    <path
       id="path4731-5"
       d="m 18.718132,288.3372 7.83955,-34.31322 32.519534,34.31322 z"
       style="display:inline;fill:#999999;fill-opacity:1;stroke:#ff0000;stroke-width:0.26458332px;stroke-linecap:butt;stroke-linejoin:miter;stroke-opacity:1" />
    <path
       id="path4733-3"
       d="M 26.557682,254.02398 42.952403,226.55554 59.077216,288.3372 Z"
       style="display:inline;fill:#999999;fill-opacity:1;stroke:#ff0000;stroke-width:0.26458332px;stroke-linecap:butt;stroke-linejoin:miter;stroke-opacity:1" />
    <path
       id="path4739-5"
       d="m 67.207127,234.35792 v -27.71206 l -24.254724,19.90968 12.209634,22.32061 z"
       style="display:inline;fill:#999999;fill-opacity:1;stroke:#ff0000;stroke-width:0.26458332px;stroke-linecap:butt;stroke-linejoin:miter;stroke-opacity:1" />
    <path
       id="path4741-6"
       d="m 80.490779,236.38983 7.014059,-11.7842 -20.297711,-17.95977 v 27.71206 z"
       style="display:inline;fill:#999999;fill-opacity:1;stroke:#ff0000;stroke-width:0.26458332px;stroke-linecap:butt;stroke-linejoin:miter;stroke-opacity:1" />
    <path
       id="path4743-2"
       d="m 87.504838,224.60563 17.862022,15.90724 -13.552303,6.97994 -11.323778,-11.10298 z"
       style="display:inline;fill:#999999;fill-opacity:1;stroke:#ff0000;stroke-width:0.26458332px;stroke-linecap:butt;stroke-linejoin:miter;stroke-opacity:1" />
    <path
       id="path4745-9"
       d="m 105.36686,240.51287 4.08663,3.64179 L 91.814557,260.41 v -12.91719 z"
       style="display:inline;fill:#999999;fill-opacity:1;stroke:#ff0000;stroke-width:0.26458332px;stroke-linecap:butt;stroke-linejoin:miter;stroke-opacity:1" />
    <path
       id="path4747-1"
       d="m 67.207127,206.64586 44.934983,-6.67077 -2.68862,44.17957 z"
       style="display:inline;fill:#999999;fill-opacity:1;stroke:#ff0000;stroke-width:0.26458332px;stroke-linecap:butt;stroke-linejoin:miter;stroke-opacity:1" />
    <path
       id="path4749-2"
       d="m 112.14211,199.97509 20.97518,84.89048 -1.23398,-0.29027 -22.42982,-40.42064 z"
       style="display:inline;fill:#333333;fill-opacity:1;stroke:#ff0000;stroke-width:0.26458332px;stroke-linecap:butt;stroke-linejoin:miter;stroke-opacity:1" />
    <path
       id="path4751-7"
       d="m 78.557278,288.3372 39.143212,-29.32002 -8.247,-14.86252 z"
       style="display:inline;fill:#999999;fill-opacity:1;stroke:#ff0000;stroke-width:0.26458332px;stroke-linecap:butt;stroke-linejoin:miter;stroke-opacity:1" />
    <path
       id="path4753-0"
       d="m 78.557278,288.3372 h 16.338751 l 12.934561,-9.03121 -10.88145,-4.61823 z"
       style="display:inline;fill:#999999;fill-opacity:1;stroke:#ff0000;stroke-width:0.26458332px;stroke-linecap:butt;stroke-linejoin:miter;stroke-opacity:1" />
    <path
       id="path4755-9"
       d="m 131.88331,284.5753 -24.05272,-5.26931 9.86992,-20.28881 z"
       style="display:inline;fill:#333333;fill-opacity:1;stroke:#ff0000;stroke-width:0.26458332px;stroke-linecap:butt;stroke-linejoin:miter;stroke-opacity:1" />
    <path
       id="path4757-3"
       d="m 94.896029,288.3372 h 54.118101 l -41.18354,-9.03121 z"
       style="display:inline;fill:none;fill-opacity:1;stroke:#ff0000;stroke-width:0.26458332px;stroke-linecap:butt;stroke-linejoin:miter;stroke-opacity:1" />
    <path
       id="path4759-6"
       d="M 78.557278,288.3372 H 59.077216 l -3.806168,-14.9836 z"
       style="display:inline;fill:#999999;fill-opacity:1;stroke:#ff0000;stroke-width:0.26458332px;stroke-linecap:butt;stroke-linejoin:miter;stroke-opacity:1" />
    <path
       style="display:inline;fill:#999999;fill-opacity:1;stroke:#ff0000;stroke-width:0.26458332px;stroke-linecap:butt;stroke-linejoin:miter;stroke-opacity:1"
       d="m 18.718132,288.3372 7.83955,34.3131 32.519534,-34.3131 z"
       id="path4761-0" />
    <path
       style="display:inline;fill:#999999;fill-opacity:1;stroke:#ff0000;stroke-width:0.26458332px;stroke-linecap:butt;stroke-linejoin:miter;stroke-opacity:1"
       d="M 26.557682,322.6503 42.952403,350.11873 59.077216,288.3372 Z"
       id="path4763-6" />
    <path
       style="display:inline;fill:none;fill-opacity:1;stroke:#ff0000;stroke-width:0.26458332px;stroke-linecap:butt;stroke-linejoin:miter;stroke-opacity:1"
       d="m 42.952403,350.11873 22.367414,-40.89357 11.03345,-7.25682 33.100223,30.55128 -30.896212,-44.18242 -23.28623,14.98353 z"
       id="path4767-2" />
    <path
       style="display:inline;fill:#999999;fill-opacity:1;stroke:#ff0000;stroke-width:0.26458332px;stroke-linecap:butt;stroke-linejoin:miter;stroke-opacity:1"
       d="m 67.207127,342.31636 v 27.71206 L 42.952403,350.11873 55.162037,327.79814 Z"
       id="path4769-6" />
    <path
       style="display:inline;fill:#999999;fill-opacity:1;stroke:#ff0000;stroke-width:0.26458332px;stroke-linecap:butt;stroke-linejoin:miter;stroke-opacity:1"
       d="M 87.504838,352.06865 105.36686,336.1614 91.814557,329.18147 80.490779,340.28444 Z"
       id="path4773-1" />
    <path
       style="display:inline;fill:#999999;fill-opacity:1;stroke:#ff0000;stroke-width:0.26458332px;stroke-linecap:butt;stroke-linejoin:miter;stroke-opacity:1"
       d="m 105.36686,336.16142 4.08663,-3.6418 -17.638933,-16.25535 v 12.9172 z"
       id="path4775-8" />
    <path
       style="display:inline;fill:#999999;fill-opacity:1;stroke:#ff0000;stroke-width:0.26458332px;stroke-linecap:butt;stroke-linejoin:miter;stroke-opacity:1"
       d="m 67.207127,370.02842 44.934983,6.67078 -2.68862,-44.17958 z"
       id="path4777-7" />
    <path
       style="display:inline;fill:#333333;fill-opacity:1;stroke:#ff0000;stroke-width:0.26458332px;stroke-linecap:butt;stroke-linejoin:miter;stroke-opacity:1"
       d="m 112.14211,376.6992 20.97518,-84.89037 -1.23398,0.29028 -22.42982,40.42051 z"
       id="path4779-9" />
    <path
       style="display:inline;fill:#999999;fill-opacity:1;stroke:#ff0000;stroke-width:0.26458332px;stroke-linecap:butt;stroke-linejoin:miter;stroke-opacity:1"
       d="m 78.557278,288.3372 39.143212,29.3199 -8.247,14.86252 z"
       id="path4781-2" />
    <path
       style="display:inline;fill:#999999;fill-opacity:1;stroke:#ff0000;stroke-width:0.26458332px;stroke-linecap:butt;stroke-linejoin:miter;stroke-opacity:1"
       d="m 78.557278,288.3372 h 16.338751 l 12.934561,9.03119 -10.88145,4.61818 z"
       id="path4783-0" />
    <path
       style="display:inline;fill:none;fill-opacity:1;stroke:#ff0000;stroke-width:0.26458332px;stroke-linecap:butt;stroke-linejoin:miter;stroke-opacity:1"
       d="m 94.896029,288.3372 h 54.118101 l -41.18354,9.03119 z"
       id="path4787-2" />
    <path
       style="display:inline;fill:#999999;fill-opacity:1;stroke:#ff0000;stroke-width:0.26458332px;stroke-linecap:butt;stroke-linejoin:miter;stroke-opacity:1"
       d="M 78.557278,288.3372 H 59.077216 l -3.806168,14.98353 z"
       id="path4789-3" />
    <path
       id="path4809-7"
       d="m 107.83059,279.30599 -10.88145,-4.61823 20.75137,-15.67058 z"
       style="display:inline;fill:none;fill-opacity:1;stroke:#ff0000;stroke-width:0.26458332px;stroke-linecap:butt;stroke-linejoin:miter;stroke-opacity:1" />
    <path
       id="path4811-5"
       d="m 117.70051,317.6571 -20.75137,-15.67053 10.88145,-4.61818 z"
       style="display:inline;fill:none;fill-opacity:1;stroke:#ff0000;stroke-width:0.26458332px;stroke-linecap:butt;stroke-linejoin:miter;stroke-opacity:1" />
  </g>
  <g
     transform="translate(0,-210)"
     id="layer4">
    <path
       id="path1309"
       d="M 343.87095,362.55971 H 5.6208112 v 50.00004 l 9.9999008,-0.0816 v -18.97146 h 4.000262 v 19.0531 H 329.87077 v -19.0531 h 4.00027 v 19.0531 h 9.99991 z m -26.08781,25.12094 v 14.97066 h -3.2675 v -10.03453 l -2.94298,7.83932 h -2.75177 l -2.95382,-7.57628 v 9.77149 h -3.25665 v -14.97066 h 4.3186 l 3.32848,8.84029 3.19619,-8.84029 z m -16.18816,14.97066 h -3.44889 l -0.91054,-3.7331 h -4.30929 l -0.90021,3.7331 h -3.40857 l 1.73839,-6.73654 h 3.28559 l -0.007,0.0295 h 2.88303 l -0.007,-0.0295 h 3.34656 z m -2.08463,-8.07754 h -3.32538 l -1.11414,-4.59765 -1.10691,4.59765 h -3.26182 l 1.77922,-6.89312 h 5.24981 z m -11.08821,5.07256 v 3.00498 h -9.59942 v -14.97066 h 9.49813 v 3.00395 h -6.03891 v 2.82205 h 5.00693 v 3.00447 h -5.00693 v 3.13521 z m -10.63398,-11.96568 v 3.10472 h -4.04626 v 11.86594 h -3.53002 v -11.86594 h -4.03593 v -3.10472 z m -17.01705,7.68739 v 7.17165 c -1.26094,0.20234 -2.38065,0.30334 -3.35845,0.30334 -2.61648,0 -4.57519,-0.6205 -5.87664,-1.86138 -1.30153,-1.24753 -1.95234,-3.18667 -1.95234,-5.8167 0,-2.5963 0.65745,-4.52409 1.97249,-5.78518 1.32172,-1.2677 3.25013,-1.90169 5.7857,-1.90169 0.58661,0 1.12266,0.0299 1.60817,0.0909 0.49228,0.0609 0.98158,0.15506 1.46709,0.28319 v 2.95382 c -0.49229,-0.12135 -0.95073,-0.20909 -1.37563,-0.26303 -0.42481,-0.0609 -0.86031,-0.091 -1.30534,-0.091 -1.06549,0 -1.92505,0.15178 -2.57917,0.45527 -0.64734,0.29669 -1.12598,0.79209 -1.43609,1.48673 -0.31026,0.69451 -0.46561,1.63566 -0.46561,2.82257 0,1.13288 0.14156,2.04278 0.42478,2.73058 0.28995,0.6878 0.71207,1.18385 1.26504,1.48725 0.55301,0.30348 1.24682,0.45527 2.08308,0.45527 0.22255,0 0.38769,-0.003 0.49558,-0.0104 v -4.51135 z m -12.80851,-7.68739 v 14.97066 h -3.50057 l -4.99659,-9.10435 v 9.10435 h -3.27732 v -14.97066 h 3.50004 l 4.9966,9.10384 v -9.10384 z m -13.75679,0 v 14.97066 h -3.50986 v -14.97066 z m -3.85351,14.97066 h -3.75274 l -3.62097,-6.0389 h -1.02164 v 6.0389 h -3.51038 v -14.97066 h 3.51038 v 5.72523 h 1.05161 l 3.31815,-5.72523 h 3.65094 l -4.2075,7.24194 z m -13.23175,-14.84974 v 2.95331 c -0.84294,-0.20236 -1.66553,-0.30282 -2.46807,-0.30282 -0.86991,0 -1.58487,0.15178 -2.14457,0.45527 -0.55973,0.29669 -0.98185,0.79209 -1.26504,1.48673 -0.28329,0.68774 -0.42478,1.61107 -0.42478,2.77089 0,1.19358 0.13898,2.13469 0.41548,2.82257 0.27649,0.68787 0.69084,1.17703 1.24385,1.46709 0.55287,0.28315 1.27462,0.42478 2.16473,0.42478 0.68787,0 1.51402,-0.15854 2.4784,-0.47542 v 2.9533 c -0.38441,0.14829 -0.84651,0.26629 -1.38596,0.35399 -0.53946,0.0944 -1.07193,0.14159 -1.59784,0.14159 -2.27941,0 -4.01634,-0.60628 -5.21001,-1.82004 -1.1868,-1.22061 -1.77974,-3.16336 -1.77974,-5.82704 0,-2.59626 0.62012,-4.53127 1.86087,-5.80584 1.24764,-1.28126 3.02771,-1.92185 5.34075,-1.92185 0.98455,0 1.90869,0.10772 2.77193,0.32349 z m -10.27741,14.84974 h -3.4494 l -0.91002,-3.7331 h -4.3093 l -0.90022,3.7331 h -3.40907 l 1.73889,-6.73654 h 3.2856 l -0.007,0.0295 h 2.88302 l -0.007,-0.0295 h 3.34554 z m -2.08514,-8.07754 h -3.32487 l -1.11414,-4.59765 -1.10639,4.59765 h -3.26234 l 1.77921,-6.89312 h 5.24982 z m -11.8799,-6.89312 v 14.97066 h -3.51089 v -6.0389 h -4.59197 v 6.0389 h -3.51039 v -14.97066 h 3.51039 v 5.7149 h 4.59197 v -5.7149 z m -17.07647,11.86491 v 3.10575 H 166.566 v -14.97066 h 3.51039 v 11.86491 z m -10.21025,3.10575 h -3.44887 l -0.91053,-3.7331 h -4.3088 l -0.90072,3.7331 h -3.40857 l 1.73839,-6.73654 h 3.2856 l -0.007,0.0295 h 2.88301 l -0.007,-0.0295 h 3.34606 z m -2.08462,-8.07754 h -3.32486 l -1.11414,-4.59765 -1.10744,4.59765 h -3.26181 l 1.77922,-6.89312 h 5.25034 z m -11.18743,-6.7722 v 2.95331 c -0.84291,-0.20236 -1.66561,-0.30282 -2.46806,-0.30282 -0.8699,0 -1.58491,0.15178 -2.14458,0.45527 -0.55973,0.29669 -0.98126,0.79209 -1.26453,1.48673 -0.28315,0.68774 -0.42476,1.61107 -0.42476,2.77089 0,1.19358 0.13798,2.13469 0.41445,2.82257 0.27649,0.68787 0.6909,1.17703 1.24385,1.46709 0.55301,0.28315 1.27503,0.42478 2.16525,0.42478 0.68778,0 1.51416,-0.15854 2.47838,-0.47542 v 2.9533 c -0.38434,0.14829 -0.84651,0.26629 -1.38594,0.35399 -0.53954,0.0944 -1.0718,0.14159 -1.59785,0.14159 -2.27925,0 -4.01595,-0.60628 -5.20951,-1.82004 -1.18692,-1.22061 -1.78075,-3.16336 -1.78075,-5.82704 0,-2.59626 0.62105,-4.53127 1.8619,-5.80584 1.24748,-1.28126 3.0277,-1.92185 5.34074,-1.92185 0.98457,0 1.90831,0.10772 2.77141,0.32349 z m -11.56155,-0.12092 v 14.97066 h -3.50989 v -14.97066 z m -5.5299,0 v 14.97066 h -3.50935 v -6.0389 h -4.59301 v 6.0389 h -3.50933 v -14.97066 h 3.50933 v 5.7149 h 4.59301 v -5.7149 z m -12.64626,0 v 3.10472 h -4.04628 v 11.86594 h -3.53001 v -11.86594 h -4.03643 v -3.10472 z m -12.12535,11.96568 v 3.00498 h -9.59993 v -14.97066 h 9.49811 v 3.00395 h -6.0384 v 2.82205 h 5.00695 v 3.00447 h -5.00695 v 3.13521 z M 95.396707,387.68065 v 3.10472 h -4.04627 v 11.86594 h -3.53052 v -11.86594 h -4.03543 v -3.10472 z m -11.55173,7.4843 c 0,1.76678 -0.25953,3.22388 -0.77878,4.37028 -0.40804,0.89567 -0.94699,1.60303 -1.61335,2.12803 l -1.76887,-3.06234 c 0.0845,-0.18184 0.16116,-0.38144 0.22635,-0.60307 0.20902,-0.69452 0.31367,-1.61519 0.31367,-2.76159 0,-1.19358 -0.10467,-2.14394 -0.31367,-2.85202 -0.20224,-0.70809 -0.49882,-1.21425 -0.88987,-1.51774 -0.39119,-0.31014 -0.88035,-0.4656 -1.46709,-0.4656 -0.58661,0 -1.07545,0.1523 -1.46658,0.45578 -0.19831,0.15041 -0.37301,0.3519 -0.52451,0.60462 l -1.69966,-2.94349 c 0.11747,-0.0821 0.23836,-0.15945 0.3633,-0.23048 0.93731,-0.53945 2.04618,-0.80925 3.32745,-0.80925 1.28127,0 2.39064,0.2698 3.32796,0.80925 0.93734,0.53282 1.66563,1.37236 2.18487,2.51871 0.51925,1.13973 0.77878,2.59213 0.77878,4.35891 z m -3.38378,7.10292 c -0.84387,0.38912 -1.81269,0.58498 -2.90783,0.58498 -1.28127,0 -2.39014,-0.26571 -3.32745,-0.7984 -0.93739,-0.53947 -1.66561,-1.37959 -2.18488,-2.51922 -0.51927,-1.1464 -0.77877,-2.6035 -0.77877,-4.37028 0,-1.76678 0.2595,-3.21918 0.77877,-4.35891 0.26062,-0.5753 0.5742,-1.07321 0.93999,-1.49396 l 2.07274,3.58996 v 5.3e-4 c -0.11363,0.60176 -0.17052,1.33231 -0.17052,2.19211 0,1.19357 0.10104,2.14444 0.30332,2.85254 0.20905,0.7081 0.50914,1.21731 0.90022,1.52755 0.39113,0.30349 0.87997,0.45476 1.46658,0.45476 0.52914,0 0.97809,-0.12151 1.34824,-0.36277 z m -10.15649,-3.80442 c -1.3e-4,1.46308 -0.56681,2.55895 -1.69965,3.28714 -1.05638,0.68321 -2.69314,1.04188 -4.89479,1.08418 v -2.7156 c 0.18632,0.007 0.37324,0.0134 0.5457,0.0134 0.67434,0 1.21031,-0.064 1.60819,-0.19172 0.39788,-0.12815 0.68408,-0.32767 0.85937,-0.59738 0.18214,-0.26972 0.27286,-0.63021 0.27286,-1.0821 0,-0.64058 -0.19844,-1.10585 -0.59634,-1.39578 -0.39106,-0.29676 -1.01883,-0.44494 -1.88206,-0.44494 h -0.80772 v -2.81223 h 0.52453 c 0.58664,0 1.04881,-0.0576 1.38594,-0.17208 0.34399,-0.12144 0.58701,-0.30295 0.72867,-0.54571 0.14824,-0.24955 0.22272,-0.57718 0.22272,-0.98185 0,-0.61365 -0.17237,-1.0517 -0.51625,-1.31464 -0.34394,-0.26976 -0.92403,-0.40463 -1.73996,-0.40463 -0.19446,0 -0.39756,0.009 -0.60565,0.0227 v -2.72284 c 0.0135,-4e-5 0.027,-5.3e-4 0.0393,-5.3e-4 1.40266,0 2.55248,0.14877 3.4494,0.44545 0.90363,0.28993 1.57448,0.74136 2.01279,1.35496 0.44513,0.61371 0.66714,1.4061 0.66714,2.37712 0,0.77557 -0.19899,1.46013 -0.59687,2.05362 -0.3978,0.58668 -0.94715,0.99081 -1.64846,1.21336 0.8295,0.18882 1.48024,0.58016 1.95233,1.17357 0.47869,0.58657 0.71824,1.37209 0.7183,2.35645 z m -7.59798,-10.94558 v 5.3e-4 15.31069 c -0.43736,-0.0131 -0.89932,-0.0343 -1.41491,-0.077 -0.74179,-0.0608 -1.40955,-0.13873 -2.00298,-0.23306 v -14.5557 c 0.66757,-0.14828 1.39592,-0.26273 2.18488,-0.34365 0.41973,-0.0464 0.83052,-0.0799 1.23301,-0.1018 z m -5.01883,7.64708 c 0,1.76678 -0.25948,3.22388 -0.77875,4.37028 -0.23246,0.51009 -0.50956,0.95675 -0.82579,1.34668 l -2.14664,-3.71812 c 0.0861,-0.54973 0.1297,-1.19148 0.1297,-1.92753 0,-1.19358 -0.10465,-2.14394 -0.31367,-2.85202 -0.20235,-0.70809 -0.49924,-1.21425 -0.8904,-1.51774 -0.39103,-0.31014 -0.87995,-0.4656 -1.46656,-0.4656 -0.46096,0 -0.86027,0.0954 -1.20044,0.28267 l -1.54824,-2.68201 c 0.80629,-0.34703 1.72107,-0.52348 2.74868,-0.52348 1.28125,0 2.39112,0.2698 3.32849,0.80925 0.93741,0.53282 1.6656,1.37236 2.18487,2.51871 0.51927,1.13973 0.77875,2.59213 0.77875,4.35891 z m -2.4629,6.55154 c -0.16052,0.12186 -0.32552,0.23709 -0.50072,0.33796 -0.93737,0.53269 -2.04724,0.7984 -3.32849,0.7984 -1.28132,0 -2.39003,-0.26571 -3.327447,-0.7984 -0.937288,-0.53947 -1.666136,-1.37959 -2.185407,-2.51922 -0.519219,-1.1464 -0.778748,-2.6035 -0.778748,-4.37028 0,-1.76678 0.259529,-3.21918 0.778748,-4.35891 0.435954,-0.96232 1.021344,-1.70508 1.751833,-2.235 l 1.720821,2.97966 c -0.12578,0.22723 -0.23537,0.49035 -0.32658,0.79323 -0.2023,0.68787 -0.30387,1.60432 -0.30387,2.75074 0,1.19357 0.10163,2.14443 0.30387,2.85254 0.20908,0.70809 0.50904,1.21731 0.9002,1.52755 0.39116,0.30348 0.87981,0.45476 1.46658,0.45476 0.58661,0 1.07553,-0.14774 1.46656,-0.44442 0.24286,-0.18838 0.4495,-0.45105 0.6196,-0.78755 z M 43.483083,387.68065 v 14.97066 h -3.500041 l -4.997106,-9.10435 v 9.10435 h -3.277314 v -14.97066 h 3.50004 l 4.997106,9.10384 v -9.10384 z"
       style="display:inline;opacity:1;vector-effect:none;fill:#a05a2c;fill-opacity:1;fill-rule:evenodd;stroke:none;stroke-width:0.69999999;stroke-linecap:round;stroke-linejoin:round;stroke-miterlimit:4;stroke-dasharray:none;stroke-dashoffset:0;stroke-opacity:1;paint-order:stroke fill markers" />
    <path
       id="path4993-4"
       d="m 343.87095,215.44311 h -9.99991 v 20.00032 h -4.00027 V 215.44311 H 19.620974 v 20.00032 H 15.620712 V 215.44311 H 5.6208112 V 360.44304 H 343.87095 Z m -82.22599,104.41739 -26.62731,-1.61954 -13.44363,-0.81804 1.92805,-2.1642 15.90808,-17.863 c 7.9e-4,-7.9e-4 0.001,-10e-4 0.002,-0.002 l 16.18144,-18.28674 z m -6.78615,2.09186 -71.29796,17.61702 35.65414,-19.78536 z m -1.06556,-46.93563 h -24.61917 l -3.45457,-2.86598 -9.29866,-7.71477 19.79621,-10.82931 z m -0.1385,2.5001 -15.46779,17.42116 -10.13168,-6.03012 0.98651,-6.45387 0.75551,-4.93717 z m -17.15812,19.32492 -13.65653,15.38149 -5.72524,-11.1187 9.78184,-9.97665 z m -3.17035,-45.28612 -54.18998,14.14229 30.09533,-28.52229 z m -6.38256,4.27157 -31.91019,17.45527 c -0.17981,0.098 -0.33277,0.23877 -0.44545,0.40979 l -7.25588,11.03344 c -0.25879,0.3928 -0.27517,0.89762 -0.0424,1.30638 0.0469,0.0824 0.10311,0.15921 0.16743,0.22892 l 22.70508,24.59747 -33.71424,-23.57634 1.51207,-2.35076 12.55789,-19.51406 z m -5.88388,58.40109 -2.15077,2.42207 -0.0124,-0.0134 -0.0274,-0.03 -0.0109,-0.0119 -13.33458,-14.47095 h 9.30279 z m -4.48913,4.16357 -0.0424,0.0238 -0.23823,0.13178 -11.87783,6.59029 -23.9882,-32.02337 z m -10.06863,-82.07458 -9.91619,9.39788 -3.57447,3.38739 -17.01704,16.12718 v -35.88308 z m -5.14439,90.51592 -21.03695,11.67371 4.33771,-19.79672 z m -1.42989,-3.47679 -9.70588,-4.72012 -0.19531,-0.0951 -4.63693,-2.25516 2.67837,-6.3102 0.63149,-1.48674 z m -12.96253,-17.17776 -1.79575,4.2292 -1.6619,3.91501 -7.51324,-10.75955 v -12.1636 z m -0.004,-39.85545 -3.00085,4.66328 -1.83349,2.84893 -6.13243,9.52913 v -14.25598 z m -4.52377,50.83359 -0.0873,0.39946 -0.63148,2.88303 -4.50464,20.54086 -0.005,0.0196 -0.20929,0.89193 c -0.014,0.0622 -0.0236,0.12547 -0.0279,0.18914 l -0.97772,4.45916 v -38.61314 z m -8.94302,-87.81014 V 265.2287 L 160.0519,252.48891 142.98731,236.31728 Z m 0,39.76191 v 14.2534 l -4.04159,-6.28024 -6.92312,-10.75852 z m 0,22.29115 v 12.1636 l -7.51115,10.75955 -1.66193,-3.91501 -1.79575,-4.2292 z m 0,16.53077 v 38.59971 l -0.97512,-4.44572 c -0.005,-0.0649 -0.014,-0.12934 -0.0284,-0.19275 l -0.19121,-0.80874 -0.004,-0.0165 -4.72477,-21.547 -0.13229,-0.60203 -0.38552,-1.76062 z m -0.45165,-20.64835 -31.98151,22.36453 -1.7327,1.21181 22.70506,-24.59747 c 0.0222,-0.0246 0.0437,-0.0501 0.0641,-0.0765 0.005,-0.006 0.01,-0.0117 0.0146,-0.0176 0,-8e-4 0.003,-10e-4 0.003,-0.002 0.0246,-0.0326 0.0475,-0.0664 0.0687,-0.10129 v -0.002 c 0.0212,-0.0349 0.0407,-0.0707 0.0584,-0.10749 0,-7.9e-4 0,-0.002 0,-0.003 0.018,-0.0376 0.034,-0.0761 0.048,-0.11524 0.0143,-0.0393 0.0265,-0.0793 0.0367,-0.11988 0.0101,-0.0404 0.018,-0.0813 0.0238,-0.12248 0.006,-0.0404 0.0103,-0.0811 0.0124,-0.12195 0.003,-0.0425 0.003,-0.0851 0,-0.12764 -0.003,-0.0415 -0.007,-0.0829 -0.0135,-0.12403 -0.007,-0.0412 -0.0151,-0.0821 -0.0259,-0.12247 -0.0103,-0.0402 -0.0228,-0.0799 -0.0372,-0.11886 -0.0143,-0.0388 -0.0305,-0.077 -0.0486,-0.1142 v -0.001 c -0.018,-0.0366 -0.0379,-0.0723 -0.0594,-0.10697 -0.006,-0.0104 -0.013,-0.0208 -0.0196,-0.031 l -7.25741,-11.03332 c -0.11211,-0.17077 -0.26432,-0.31147 -0.44339,-0.4098 l -31.91227,-17.45526 36.42775,9.59011 13.11394,20.3786 z m -2.68819,-21.58421 -54.18997,-14.14229 24.09465,-14.38 z m -1.18443,72.80899 -21.03697,-11.67371 16.69926,-8.12301 z m -0.10335,-45.39258 -23.98821,32.02337 -12.15998,-6.74584 7.91527,-5.53506 z m -3.13677,46.45505 -71.297983,-17.61702 6.090073,-0.37052 29.55375,-1.79782 z m -1.83089,-23.28385 -14.53761,7.07243 11.22979,-14.86886 2.98741,7.04092 z m -20.13212,-14.16141 -13.38625,14.52521 -2.1513,-2.42259 v -5.3e-4 l 6.23322,-12.1021 z M 133.06906,264.4365 120.31479,275.01673 H 95.697987 l 17.574133,-21.41006 z m -0.6935,36.66804 -4.2318,8.21655 -1.49395,2.9006 -13.65551,-15.37994 9.5989,-5.71334 7.26209,7.40523 z m -4.45866,16.31838 -17.22477,1.048 -9.77461,0.59428 -9.331213,0.56793 -3.74034,0.22737 6.05182,-40.75358 16.180933,18.28674 c 0,7.9e-4 0.003,10e-4 0.003,0.002 l 15.90601,17.863 c 0.007,0.008 0.0148,0.0152 0.0222,0.0227 l 0.50541,0.56689 z m -6.48126,-28.51505 -10.13166,6.03012 -15.467803,-17.42116 h 23.855913 l 0.21757,1.42059 z"
       style="display:inline;opacity:1;vector-effect:none;fill:#a05a2c;fill-opacity:1;fill-rule:evenodd;stroke:none;stroke-width:0.70000005;stroke-linecap:round;stroke-linejoin:round;stroke-miterlimit:4;stroke-dasharray:none;stroke-dashoffset:0;stroke-opacity:1;paint-order:stroke fill markers" />
    <path
       id="path892"
       d="m 348.22818,481.25564 88.77122,-14.79483 -34.62768,-207.77034 -31.73996,-13.74858 1.58927,-3.67039 29.36722,12.72028 -2.10717,-12.64457 c -0.11163,-0.66687 0.3706,-1.8672 1.46421,-2.04947 18.46487,-7.62707 21.1333,-0.0984 27.80137,2.07871 5.46463,-0.91074 5.8592,-12.16664 4.94844,-17.63128 l -0.23326,-1.40131 -0.0152,-0.0902 -0.85149,-5.11014 c -0.30139,-1.80728 -1.99931,-3.01963 -3.80662,-2.71842 l -29.75838,4.91497 -3.12875,0.52154 -41.8158,6.969 c -3.53613,0.5892 -6.25611,5.1671 -6.25036,8.75201 l 0.26907,168.51045 40.99454,-6.83266 0.65815,3.94527 -41.64593,6.94133 0.0319,20.45494 44.07659,-20.05154 1.65625,3.64084 -45.7256,20.80228 0.0432,26.79404 49.36237,-40.63679 2.54278,3.08862 -51.89623,42.72169 z m 79.12864,-27.5045 -3.94826,0.64294 -8.83984,-54.28523 3.94827,-0.64294 z m -59.0537,-76.8289 c -0.46365,0.0714 -0.93886,0.10932 -1.4224,0.11016 -5.15777,0.009 -9.34615,-4.16517 -9.35496,-9.32295 -0.009,-5.15757 4.16542,-9.34562 9.32301,-9.35444 5.15758,-0.009 9.34577,4.16482 9.35488,9.32242 0.008,4.67425 -3.41893,8.55218 -7.90053,9.24481 z m 10.30233,-36.66005 c -0.91011,0.1411 -1.84232,0.21418 -2.79161,0.21584 -10.12584,0.0175 -18.34848,-8.17704 -18.36612,-18.30289 -0.0175,-10.12601 8.17687,-18.34872 18.3029,-18.3661 10.12601,-0.0175 18.34879,8.17736 18.36618,18.30338 0.0156,9.17655 -6.713,16.78998 -15.51135,18.14977 z m -4.85135,-52.88703 c -0.70512,0.10874 -1.42744,0.16608 -2.16283,0.1674 -7.84427,0.0136 -14.21453,-6.33451 -14.22797,-14.17876 -0.0136,-7.84425 6.33455,-14.214 14.17882,-14.22745 7.84426,-0.0136 14.21454,6.33447 14.22797,14.17873 0.0123,7.10885 -5.20012,13.00667 -12.01599,14.06008 z"
       style="display:inline;opacity:1;vector-effect:none;fill:#a05a2c;fill-opacity:1;fill-rule:evenodd;stroke:none;stroke-width:0.69999999;stroke-linecap:round;stroke-linejoin:round;stroke-miterlimit:4;stroke-dasharray:none;stroke-dashoffset:0;stroke-opacity:1;paint-order:stroke fill markers" />
    <path
       id="path1375"
       d="m 171.97622,490.12422 c 0.91621,-5.3e-4 1.83919,-0.003 2.76986,-0.008 119.12508,-0.63684 119.12509,-36.35664 169.12508,-25.07004 V 415.0461 l -9.99991,0.0817 v 18.97149 h -4.00027 V 415.04614 H 19.621173 v 19.05313 h -4.00026 V 415.04614 H 5.6210132 V 465.0462 C 55.230393,453.84778 55.618373,490.1777 171.97622,490.12426 Z m 24.69772,-11.35176 c -2.31104,0 -4.313,-0.48631 -6.00377,-1.45935 -1.69084,-0.96107 -3.00422,-2.47568 -3.94084,-4.54339 -0.93663,-2.05578 -1.40457,-4.67524 -1.40457,-7.86205 0,-3.18681 0.46794,-5.81491 1.40457,-7.88272 0.41929,-0.92007 0.91943,-1.72597 1.48983,-2.42931 l 3.8716,6.70657 c -0.1553,0.99156 -0.23358,2.14915 -0.23358,3.47679 0,2.15291 0.18833,3.86719 0.56534,5.14439 0.36499,1.27721 0.90055,2.18989 1.6061,2.7373 0.70532,0.55942 1.58723,0.83974 2.64532,0.83974 0.83145,0 1.55166,-0.17174 2.16524,-0.50953 l 2.79259,4.83743 c -1.45433,0.62596 -3.10429,0.94413 -4.95783,0.94413 z m -47.1811,0 c -2.31107,0 -4.31205,-0.48631 -6.00273,-1.45935 -1.69073,-0.96107 -3.00479,-2.47568 -3.94137,-4.54339 -0.93659,-2.05578 -1.40456,-4.67524 -1.40456,-7.86205 0,-3.18681 0.46797,-5.81491 1.40456,-7.88272 0.736,-1.61555 1.70849,-2.89156 2.91042,-3.83853 l 3.1905,5.5237 c -0.15241,0.32799 -0.29066,0.68802 -0.40824,1.08779 -0.37702,1.25272 -0.56586,2.91329 -0.56586,4.98109 0,2.15291 0.18887,3.86719 0.56586,5.14439 0.36478,1.27721 0.89972,2.18989 1.60507,2.7373 0.7056,0.55942 1.58803,0.83974 2.64635,0.83974 1.05809,0 1.93982,-0.27426 2.64532,-0.82166 0.3577,-0.2713 0.67292,-0.63505 0.94619,-1.09089 l 3.06545,5.30924 c -0.21189,0.14809 -0.4299,0.28787 -0.65526,0.41599 -1.69066,0.97304 -3.69062,1.45935 -6.0017,1.45935 z m 24.89822,-0.0191 c -2.53003,0 -4.60403,-0.26844 -6.22184,-0.80357 -1.62991,-0.52296 -2.83968,-1.33752 -3.63027,-2.4443 -0.8029,-1.10696 -1.20354,-2.53613 -1.20354,-4.28759 0,-1.39893 0.35875,-2.63366 1.07642,-3.70416 0.71753,-1.05823 1.70848,-1.78707 2.97346,-2.1885 -1.4962,-0.34058 -2.66971,-1.04631 -3.52124,-2.11667 -0.86342,-1.05802 -1.29541,-2.47487 -1.29552,-4.25038 h -0.001 c 2.4e-4,-2.63901 1.0221,-4.61589 3.06545,-5.92936 1.90543,-1.23233 4.85771,-1.87914 8.82891,-1.95543 v 4.89789 c -0.33607,-0.0126 -0.67284,-0.0238 -0.98392,-0.0238 -1.21632,0 -2.18344,0.11534 -2.90111,0.34571 -0.71767,0.23116 -1.23359,0.59097 -1.54978,1.07746 -0.32853,0.4865 -0.49247,1.13673 -0.49247,1.95182 0,1.15544 0.3582,1.99471 1.0759,2.51767 0.70537,0.53528 1.83759,0.80254 3.39463,0.80254 h 1.45675 v 5.07256 h -0.94619 c -1.05815,0 -1.8915,0.10356 -2.49959,0.31006 -0.62047,0.21904 -1.05862,0.54655 -1.31413,0.98443 -0.26739,0.45012 -0.40205,1.04104 -0.40204,1.77095 0,1.10687 0.31094,1.89717 0.93121,2.37143 0.62036,0.48658 1.66657,0.72967 3.1383,0.72967 0.35075,0 0.7171,-0.016 1.09244,-0.0408 v 4.91133 c -0.0244,7e-5 -0.0486,10e-4 -0.0708,10e-4 z m 1.88102,-0.0527 v -5.3e-4 -27.6164 c 0.78889,0.0236 1.62231,0.0615 2.5523,0.13849 1.338,0.10967 2.54231,0.2505 3.6127,0.42065 v 26.25472 c -1.20412,0.26746 -2.51776,0.47365 -3.94084,0.61961 -0.75708,0.0837 -1.49817,0.14394 -2.22416,0.18344 z m 55.91235,-0.29352 h -6.31279 l -9.01392,-16.42071 v 16.42071 h -5.91127 v -27.003 h 6.31331 l 9.01341,16.42174 v -16.42174 h 5.91126 z m -93.93121,0 h -20.94497 v -5.60018 h 7.29827 v -21.40282 h 6.36807 v 21.40282 h 7.27863 z m 65.2048,-1.60611 -3.10369,-5.37434 c 0.22687,-0.40988 0.42408,-0.88461 0.5886,-1.43093 0.3649,-1.24074 0.54828,-2.89361 0.54828,-4.96145 0,-2.15289 -0.18349,-3.86817 -0.54828,-5.14542 -0.37712,-1.27721 -0.91812,-2.19528 -1.62367,-2.75487 -0.70556,-0.5474 -1.58694,-0.82063 -2.64532,-0.82063 -1.05809,0 -1.94,0.2669 -2.64532,0.80202 -0.43805,0.33979 -0.81043,0.81311 -1.11724,1.42007 l -3.144,-5.44514 c 0.28954,-0.2198 0.58677,-0.42785 0.90279,-0.60978 1.69077,-0.96084 3.69273,-1.43971 6.00377,-1.43971 2.31117,0 4.31136,0.47887 6.00222,1.43971 1.69062,0.97305 3.00525,2.48883 3.94188,4.54442 0.93653,2.06781 1.40456,4.69591 1.40456,7.88272 0,3.18681 -0.46803,5.80627 -1.40456,7.86206 -0.78635,1.73577 -1.84241,3.07544 -3.16002,4.03127 z m -45.71814,-1.33635 -3.73879,-6.47557 v -5.3e-4 c 0.20495,-1.08542 0.30799,-2.40343 0.30799,-3.95428 0,-2.15289 -0.18239,-3.86819 -0.54725,-5.14542 -0.37707,-1.27722 -0.91827,-2.19527 -1.62367,-2.75487 -0.7055,-0.54741 -1.58723,-0.82063 -2.64532,-0.82063 -0.95443,0 -1.76423,0.21958 -2.43189,0.65474 l -2.81327,-4.87256 c 1.52212,-0.70188 3.26982,-1.05472 5.24516,-1.05472 2.31108,0 4.31104,0.47887 6.0017,1.43971 1.69081,0.97305 3.00421,2.48883 3.94084,4.54442 0.93664,2.06781 1.40457,4.69591 1.40457,7.88272 0,3.18681 -0.46793,5.80627 -1.40457,7.86205 -0.47009,1.0377 -1.03571,1.93601 -1.6955,2.69493 z m 87.44014,-35.79006 c -0.98457,0 -1.90831,-0.10772 -2.77141,-0.32349 v -2.9533 c 0.84291,0.20236 1.66562,0.30282 2.46807,0.30282 0.8699,0 1.5849,-0.15179 2.14457,-0.45527 0.55973,-0.2967 0.98126,-0.79208 1.26452,-1.48675 0.28316,-0.68773 0.42479,-1.61104 0.42479,-2.77087 0,-1.19359 -0.1385,-2.13469 -0.41497,-2.82258 -0.27649,-0.68786 -0.6909,-1.17702 -1.24385,-1.46708 -0.55301,-0.28316 -1.27502,-0.42479 -2.16524,-0.42479 -0.68778,0 -1.51366,0.15854 -2.47789,0.47543 v -2.95331 c 0.38434,-0.1483 0.84602,-0.26627 1.38545,-0.35398 0.53954,-0.0944 1.0723,-0.14161 1.59835,-0.14161 2.27925,0 4.01594,0.60629 5.20951,1.82007 1.18692,1.2206 1.78025,3.16333 1.78025,5.82702 0,2.59625 -0.62105,4.53128 -1.8619,5.80585 -1.24749,1.28126 -3.02721,1.92184 -5.34025,1.92184 z m -75.43363,-0.13125 c -0.98456,0 -1.90869,-0.10773 -2.77193,-0.3235 v -2.9533 c 0.84294,0.20236 1.66553,0.30282 2.46807,0.30282 0.86991,0 1.58487,-0.15179 2.14457,-0.45527 0.55973,-0.2967 0.98185,-0.79208 1.26504,-1.48672 0.28329,-0.68776 0.42478,-1.61107 0.42478,-2.7709 0,-1.19359 -0.13898,-2.13469 -0.41548,-2.82258 -0.27649,-0.68786 -0.69084,-1.17702 -1.24385,-1.46708 -0.55287,-0.28316 -1.27462,-0.42479 -2.16473,-0.42479 -0.68787,0 -1.51402,0.15856 -2.4784,0.47543 v -2.95331 c 0.38441,-0.1483 0.84651,-0.26627 1.38596,-0.35398 0.53946,-0.0944 1.07193,-0.14158 1.59784,-0.14158 2.27941,0 4.01634,0.60626 5.21001,1.82004 1.18681,1.2206 1.77974,3.16333 1.77974,5.82702 0,2.59625 -0.62012,4.53129 -1.86087,5.80586 -1.24764,1.28125 -3.02772,1.92184 -5.34075,1.92184 z m -42.99326,0 c -0.5866,0 -1.12265,-0.03 -1.60816,-0.091 -0.49228,-0.0609 -0.98158,-0.15506 -1.46709,-0.28319 v -2.95383 c 0.49229,0.12137 0.95073,0.2091 1.37562,0.26303 0.42482,0.0609 0.86032,0.0915 1.30535,0.0915 1.06548,0 1.92506,-0.15176 2.57916,-0.45527 0.64736,-0.29667 1.12599,-0.79208 1.43611,-1.48672 0.31025,-0.6945 0.46558,-1.63565 0.46558,-2.82257 0,-1.13287 -0.14155,-2.04277 -0.42476,-2.73058 -0.28996,-0.68778 -0.71207,-1.18385 -1.26505,-1.48725 -0.55301,-0.30348 -1.24682,-0.45527 -2.08307,-0.45527 -0.22256,0 -0.38769,0.003 -0.49559,0.0103 v 4.51136 h -3.24733 v -7.17164 c 1.26095,-0.20235 2.38064,-0.30334 3.35846,-0.30334 2.61646,0 4.57517,0.6205 5.87663,1.86137 1.30154,1.24753 1.95234,3.18666 1.95234,5.8167 0,2.59631 -0.65744,4.52409 -1.9725,5.78517 -1.32173,1.26771 -3.25011,1.9017 -5.7857,1.9017 z m 167.11799,-0.0713 h -9.49762 v -3.00394 h 6.0384 v -2.82205 h -5.00693 v -3.00447 h 5.00693 v -3.13521 h -6.14072 v -3.00498 h 9.59994 z m -10.11257,0 h -11.61221 v -3.10472 h 4.04627 v -11.86593 h 3.53002 v 11.86593 h 4.03592 z m -12.64729,0 h -3.50883 v -5.71489 h -4.593 v 5.71489 h -3.50986 v -14.97065 h 3.50986 v 6.0389 h 4.593 v -6.0389 h 3.50883 z m -13.6312,0 h -3.51039 v -14.97065 h 3.51039 z m -19.22985,0 h -5.25032 l -1.77871,-6.89311 h 3.32486 l 1.11415,4.59764 1.10743,-4.59764 h 3.26181 z m -10.08827,0 h -3.51038 v -11.86492 h -5.72523 v -3.10573 h 9.23561 z m -120.93371,0 H 95.616023 v -3.10472 h 4.04627 v -11.86593 h 3.530017 v 11.86593 h 4.03592 z m -12.646757,0 h -9.49815 v -3.00394 h 6.03893 v -2.82205 h -5.00695 v -3.00447 h 5.00695 v -3.13521 h -6.14021 v -3.00498 h 9.59943 z m -13.65861,0 h -5.24981 l -1.77922,-6.89311 h 3.32539 l 1.11413,4.59764 1.10691,-4.59764 h 3.26181 z m -10.1291,0 h -4.31858 l -3.32849,-8.84028 -3.19619,8.84028 h -4.32946 v -14.97065 h 3.2675 v 10.03454 l 2.94299,-7.83934 h 2.75177 l 2.95381,7.57629 v -9.77149 h 3.25665 z m 132.036387,-0.13125 h -3.51038 v -5.7149 h -4.59197 v 5.7149 h -3.51089 v -14.97066 h 3.51089 v 6.0389 h 4.59197 v -6.0389 h 3.51038 z m -16.46462,0 h -5.24981 l -1.77871,-6.89312 h 3.32486 l 1.11415,4.59764 1.10639,-4.59764 h 3.26233 z m -20.71709,0 h -3.51038 v -5.72524 h -1.05161 l -3.31815,5.72524 h -3.65094 l 4.2075,-7.24194 -4.58215,-7.72872 h 3.75274 l 3.62097,6.0389 h 1.02164 v -6.0389 h 3.51038 z m -12.24938,0 h -3.50986 v -14.97066 h 3.50986 z m -5.49217,0 h -3.50004 l -4.9966,-9.10384 v 9.10384 h -3.27782 v -14.97066 h 3.50055 l 4.99659,9.10434 v -9.10434 h 3.27732 z m 92.46877,-8.10287 h -3.28558 l 0.007,-0.0294 h -2.88303 l 0.007,0.0294 H 230.875 l -1.73839,-6.73653 h 3.44888 l 0.91002,3.73309 h 4.3093 l 0.90072,-3.73309 h 3.40859 z m -157.327347,0 h -3.28557 l 0.007,-0.0294 h -2.88303 l 0.007,0.0294 h -3.34655 l -1.73789,-6.73653 h 3.4489 l 0.91053,3.73309 h 4.3093 l 0.90019,-3.73309 h 3.4086 z m 105.442667,-0.13126 h -3.28559 l 0.007,-0.0294 h -2.88303 l 0.007,0.0294 h -3.34553 l -1.73943,-6.73653 h 3.4494 l 0.91002,3.73309 h 4.3093 l 0.9002,-3.73309 h 3.4091 z"
       style="display:inline;opacity:1;vector-effect:none;fill:#a05a2c;fill-opacity:1;fill-rule:evenodd;stroke:none;stroke-width:0.69999999;stroke-linecap:round;stroke-linejoin:round;stroke-miterlimit:4;stroke-dasharray:none;stroke-dashoffset:0;stroke-opacity:1;paint-order:stroke fill markers" />
    <path
       style="display:inline;opacity:1;vector-effect:none;fill:#a05a2c;fill-opacity:1;fill-rule:evenodd;stroke:none;stroke-width:0.69999999;stroke-linecap:round;stroke-linejoin:round;stroke-miterlimit:4;stroke-dasharray:none;stroke-dashoffset:0;stroke-opacity:1;paint-order:stroke fill markers"
       d="m 491.40406,239.02685 -88.77122,14.79483 34.62768,207.77034 31.73996,13.74858 -1.58927,3.67039 -29.36723,-12.72028 2.10718,12.64457 c 0.11163,0.66687 -0.3706,1.8672 -1.46421,2.04947 -18.46487,7.62707 -21.1333,0.0984 -27.80137,-2.07871 -5.46464,0.91074 -5.8592,12.16664 -4.94844,17.63128 l 0.23325,1.40131 0.0152,0.0902 0.85149,5.11014 c 0.30139,1.80728 1.99931,3.01963 3.80662,2.71842 l 29.75838,-4.91497 3.12875,-0.52154 41.8158,-6.969 c 3.53613,-0.5892 6.25611,-5.1671 6.25036,-8.75201 l -0.26907,-168.51045 -40.99454,6.83266 -0.65815,-3.94527 41.64593,-6.94133 -0.0319,-20.45494 -44.07659,20.05154 -1.65625,-3.64084 45.7256,-20.80228 -0.0432,-26.79404 -49.36237,40.63679 -2.54278,-3.08862 51.89623,-42.72169 z m -79.12864,27.5045 3.94826,-0.64294 8.83984,54.28523 -3.94827,0.64294 z m 59.0537,76.8289 c 0.46365,-0.0714 0.93886,-0.10932 1.4224,-0.11016 5.15777,-0.009 9.34615,4.16517 9.35496,9.32295 0.009,5.15757 -4.16542,9.34562 -9.32301,9.35444 -5.15758,0.009 -9.34577,-4.16482 -9.35488,-9.32242 -0.008,-4.67425 3.41892,-8.55218 7.90053,-9.24481 z m -10.30233,36.66005 c 0.9101,-0.1411 1.84232,-0.21418 2.79161,-0.21584 10.12584,-0.0175 18.34847,8.17704 18.36612,18.30289 0.0175,10.12601 -8.17687,18.34872 -18.3029,18.3661 -10.12601,0.0175 -18.34879,-8.17736 -18.36618,-18.30338 -0.0156,-9.17655 6.713,-16.78997 15.51135,-18.14977 z m 4.85135,52.88703 c 0.70512,-0.10874 1.42744,-0.16608 2.16283,-0.1674 7.84426,-0.0136 14.21453,6.33451 14.22797,14.17876 0.0136,7.84425 -6.33456,14.214 -14.17882,14.22745 -7.84426,0.0136 -14.21454,-6.33447 -14.22797,-14.17873 -0.0123,-7.10885 5.20012,-13.00667 12.01599,-14.06008 z"
       id="path1409" />
  </g>
</svg>
