<?xml version="1.0" encoding="UTF-8" standalone="no"?>
<!-- Created with Inkscape (http://www.inkscape.org/) -->

<svg
   xmlns:dc="http://purl.org/dc/elements/1.1/"
   xmlns:cc="http://creativecommons.org/ns#"
   xmlns:rdf="http://www.w3.org/1999/02/22-rdf-syntax-ns#"
   xmlns:svg="http://www.w3.org/2000/svg"
   xmlns="http://www.w3.org/2000/svg"
   xmlns:sodipodi="http://sodipodi.sourceforge.net/DTD/sodipodi-0.dtd"
   xmlns:inkscape="http://www.inkscape.org/namespaces/inkscape"
   width="510mm"
   height="300mm"
   viewBox="0 0 510 300"
   version="1.1"
   id="svg8"
   inkscape:version="0.92.3 (unknown)"
   sodipodi:docname="laptopverhoger-MiB-3,6mm.svg">
  <defs
     id="defs2"><inkscape:perspective
   id="perspective10"
   inkscape:persp3d-origin="396.85039 : 374.17322 : 1"
   inkscape:vp_z="793.70078 : 561.25983 : 1"
   inkscape:vp_y="0 : 1066.6667 : 0"
   inkscape:vp_x="0 : 561.25983 : 1"
   sodipodi:type="inkscape:persp3d" />
<inkscape:perspective
   sodipodi:type="inkscape:persp3d"
   inkscape:vp_x="0 : 224.50133 : 1"
   inkscape:vp_y="0 : 1066.6667 : 0"
   inkscape:vp_z="634.96537 : 224.50133 : 1"
   inkscape:persp3d-origin="317.48268 : 149.66755 : 1"
   id="perspective3463" />
<inkscape:perspective
   sodipodi:type="inkscape:persp3d"
   inkscape:vp_x="0 : 0.53333333 : 1"
   inkscape:vp_y="0 : 1066.6667 : 0"
   inkscape:vp_z="1.0666667 : 0.53333333 : 1"
   inkscape:persp3d-origin="0.53333333 : 0.35555555 : 1"
   id="perspective19124" />
<inkscape:perspective
   sodipodi:type="inkscape:persp3d"
   inkscape:vp_x="0 : 0.53333333 : 1"
   inkscape:vp_y="0 : 1066.6667 : 0"
   inkscape:vp_z="1.0666667 : 0.53333333 : 1"
   inkscape:persp3d-origin="0.53333333 : 0.35555555 : 1"
   id="perspective19155" />

	
	
	
	
	
	
</defs>
  <sodipodi:namedview
     id="base"
     pagecolor="#ffffff"
     bordercolor="#666666"
     borderopacity="1.0"
     inkscape:pageopacity="0.0"
     inkscape:pageshadow="2"
     inkscape:zoom="0.35355339"
     inkscape:cx="1046.0788"
     inkscape:cy="487.07425"
     inkscape:document-units="mm"
     inkscape:current-layer="layer4"
     showgrid="false"
     showguides="true"
     inkscape:guide-bbox="true"
     inkscape:window-width="1545"
     inkscape:window-height="845"
     inkscape:window-x="55"
     inkscape:window-y="27"
     inkscape:window-maximized="1"
     width="510mm">
    <sodipodi:guide
       position="-390.52499,-234.95"
       orientation="0,1"
       id="guide924"
       inkscape:locked="false" />
  </sodipodi:namedview>
  <metadata
     id="metadata5">
    <rdf:RDF>
      <cc:Work
         rdf:about="">
        <dc:format>image/svg+xml</dc:format>
        <dc:type
           rdf:resource="http://purl.org/dc/dcmitype/StillImage" />
        <dc:title></dc:title>
      </cc:Work>
    </rdf:RDF>
  </metadata>
  <g
     inkscape:groupmode="layer"
     id="layer4"
     inkscape:label="Model 2"
     transform="translate(0,-210)">
    <path
       style="display:inline;opacity:1;vector-effect:none;fill:#a05a2c;fill-opacity:1;fill-rule:evenodd;stroke:none;stroke-width:2.64566922;stroke-linecap:round;stroke-linejoin:round;stroke-miterlimit:4;stroke-dasharray:none;stroke-dashoffset:0;stroke-opacity:1;paint-order:stroke fill markers"
       d="m 21.244141,576.60352 v 188.97656 l 37.794921,-0.3086 v -71.70312 h 13.603516 v 72.01172 H 1248.2676 v -72.01172 h 13.6074 v 72.01172 h 37.7949 V 576.60352 Z m 105.152339,43.12304 c 22.45314,0.0392 52.78263,0.55547 81.55079,1.5 25.45478,0.83585 94.64111,1.6629 153.74804,1.83789 59.10687,0.17492 123.3529,0.83264 142.76758,1.45899 101.31455,3.26846 211.64515,4.91304 359.26953,5.36133 123.56326,0.37534 306.13238,2.28815 366.02538,3.83398 1.1065,0.0297 0.6125,27.21264 -1.2832,70.62891 -0.3199,7.33436 -0.6225,18.10141 -0.6758,23.92578 l -0.092,10.58984 h -7.9941 -7.9941 l 1.1464,-38.83008 c 1.4094,-47.67851 1.3384,-44.07624 1.002,-50.20312 l -0.2813,-5.09961 -9.0214,0.0918 c -4.9615,0.0474 -11.8416,0.58972 -15.293,1.20117 l -6.2793,1.11328 -0.7832,41.55078 -0.7852,41.54688 -9.3457,0.48046 c -5.1413,0.26468 -11.0722,0.0484 -13.1797,-0.48046 l -3.832,-0.9629 0.7598,-40.30859 c 0.4176,-22.16991 0.4697,-41.56549 0.1133,-43.10156 -0.5841,-2.51993 -2.5137,-2.75022 -19.7422,-2.35352 l -19.0977,0.43946 -0.4394,19.4414 -0.4414,19.44141 -11.8711,-0.89649 c -6.5277,-0.49394 -12.1912,-1.22439 -12.5879,-1.62109 -0.3967,-0.3967 -1.0718,-8.03324 -1.4981,-16.97266 -0.4263,-8.93933 -1.0671,-17.13819 -1.4277,-18.21679 -0.478,-1.4298 -5.9861,-1.96094 -20.3184,-1.96094 h -19.6601 l -0.096,9.02148 c -0.053,4.96158 -0.2301,13.61012 -0.3926,19.21875 l -0.2969,10.19727 -12.7246,0.45312 -12.7285,0.45313 -0.8027,-5.16016 c -0.4408,-2.83729 -0.7137,-11.65031 -0.6075,-19.58789 0.1702,-12.6898 -0.1477,-14.52269 -2.6386,-15.17383 -3.7785,-0.98755 -35.11044,-0.4346 -36.18363,0.63868 -0.46368,0.46367 -0.98057,9.04636 -1.14649,19.07031 l -0.30273,18.22265 -4.67383,0.9336 c -2.57,0.51413 -8.4675,0.93555 -13.10547,0.93555 h -8.43359 l -0.23438,-16.08204 c -0.13001,-8.84435 -0.0812,-18.04223 0.10742,-20.4414 l 0.3418,-4.36328 -20.10938,0.4414 -20.11132,0.4375 -0.4375,19.28321 -0.44141,19.28125 -12.89453,-0.45508 -12.89648,-0.45508 -0.26954,-7.05859 c -0.14929,-3.88298 -0.32605,-12.88322 -0.39257,-20.00196 l -0.12305,-12.94336 h -19.48438 -19.48437 l -0.95117,4.32618 c -0.5229,2.38049 -0.85337,18.08968 -0.73242,34.9082 0.11981,16.81852 0.14123,34.2863 0.043,38.8164 l -0.18164,8.23438 H 833.92383 821.37305 V 683.35742 640.4043 l -19.70899,-1.13672 c -10.8398,-0.62551 -20.10677,-0.73893 -20.59179,-0.25391 -0.48564,0.48503 -0.77972,9.73453 -0.65235,20.55664 l 0.23242,19.67578 h -11.71093 c -6.44017,0 -12.05361,-0.55683 -12.47461,-1.23828 -0.421,-0.6813 -0.92532,-8.97616 -1.1211,-18.43359 -0.1957,-9.45744 -0.67489,-18.07964 -1.06445,-19.1582 -0.51643,-1.43101 -6.17514,-1.96094 -20.93359,-1.96094 h -20.22657 v 19.61133 19.61328 h -11.60156 c -9.12922,0 -11.8013,-0.52913 -12.55078,-2.48242 -0.52358,-1.36487 -0.94922,-10.12784 -0.94922,-19.47461 v -16.99414 l -18.43555,-0.5586 c -10.13873,-0.30576 -19.6677,-0.28377 -21.17773,0.0488 -2.42649,0.53545 -2.74609,2.76648 -2.74609,19.2168 0,21.25296 0.2555,20.91538 -15.00782,19.94922 l -7.74023,-0.49024 -0.44141,-20.00391 -0.43945,-20.00195 h -21.13281 -21.13086 v 19.60938 19.61133 H 567.2168 554.66602 l -0.0117,-6.66797 c -0.005,-3.66717 -0.45926,-12.49267 -1.01368,-19.61133 l -1.00781,-12.94141 h -20.13867 -20.13867 l -0.41602,42.75 -0.41601,42.75195 -12.16016,0.45899 -12.1582,0.46094 V 688.957 c 0,-18.89303 -0.4534,-38.68838 -1.00781,-43.99219 l -1.00782,-9.64257 h -19.33203 c -16.85337,0 -19.50547,0.35278 -20.67773,2.74609 -0.73924,1.51 -1.28867,10.51384 -1.21875,20.01172 l 0.1289,17.26953 -11.7832,-0.57617 c -6.47958,-0.31605 -12.01965,-0.79624 -12.31445,-1.06836 -0.29462,-0.2722 -1.25994,-8.84513 -2.14453,-19.04883 -0.88456,-10.2037 -1.90676,-18.87447 -2.27149,-19.26758 -0.36472,-0.39314 -9.46074,-1.00693 -20.21289,-1.36523 l -19.54687,-0.65039 v 20.58593 20.58399 h -13.09766 -13.0957 l -1.06641,-19.91406 c -0.58549,-10.95232 -1.22269,-20.04036 -1.41602,-20.19532 -0.19318,-0.15477 -9.26323,-0.77356 -20.15624,-1.375 l -19.80665,-1.0957 -0.88867,3.64063 c -0.48858,2.00148 -0.59813,11.22995 -0.24414,20.50586 0.47751,12.51375 0.14983,16.90803 -1.26953,17.03124 -1.05208,0.0915 -4.02858,0.17812 -6.61719,0.18946 -12.33443,0.0641 -16.62321,-0.51153 -17.20312,-2.31641 -0.34641,-1.0786 -1.10121,-10.25576 -1.67578,-20.39453 l -1.04297,-18.43555 H 257.21094 236.1875 v 19.42774 c 0,22.46071 0.95634,21.30778 -17.65039,21.34179 l -10.58984,0.0234 v -21.17968 -21.17969 l -12.94336,0.0117 c -7.11872,0.006 -16.53486,0.44552 -20.92383,0.97265 l -7.98047,0.95703 0.73828,43.57227 0.74023,43.57031 -13.9375,0.65625 c -7.66638,0.36132 -14.192,0.47829 -14.5,0.26172 -0.30789,-0.21581 -0.64474,-20.202 -0.75,-44.41211 l -0.19335,-44.01562 -4.74024,-0.87696 c -2.60681,-0.48276 -10.03233,-0.663 -16.50391,-0.39843 l -11.76562,0.48046 0.24219,6.2754 c 0.13382,3.45146 0.77125,24.71169 1.41797,47.24414 l 1.17773,40.96875 -7.52344,1.1289 c -5.54727,0.83188 -7.868579,0.58051 -8.8457,-0.96094 -0.728738,-1.14961 -1.380633,-13.74096 -1.447266,-27.97851 -0.06671,-14.23733 -0.462296,-37.26868 -0.878906,-51.17969 l -0.757812,-25.29101 3.601562,-0.96485 c 2.004947,-0.53723 11.389132,-0.83152 25.109372,-0.89844 2.8581,-0.0139 5.90638,-0.0193 9.11328,-0.0137 z"
       transform="matrix(0.26458333,0,0,0.26458333,0,210)"
       id="path3411"
       inkscape:connector-curvature="0"
       sodipodi:nodetypes="cccccccccccccccccsccccccccccccccccccccccccsscscccccccccccccscccccccccccccccccccccccccccscccscccscscccscccccccccccccccccccsccsccccccccccccccccccccccccccscccccccccccccccccccccccccscc" />
    <path
       style="display:inline;opacity:1;vector-effect:none;fill:#a05a2c;fill-opacity:1;fill-rule:evenodd;stroke:none;stroke-width:2.64566946;stroke-linecap:round;stroke-linejoin:round;stroke-miterlimit:4;stroke-dasharray:none;stroke-dashoffset:0;stroke-opacity:1;paint-order:stroke fill markers"
       d="M 21.244141,20.572266 V 568.60352 H 1299.6699 V 20.572266 h -37.7949 v 75.591796 h -13.6191 V 20.572266 H 72.533203 V 96.164062 H 59.039062 V 20.572266 Z M 512.26953,192.90234 c 8.33099,0.0562 17.10512,0.45489 23.60742,1.17969 8.89081,0.99092 12.83264,2.66713 29.98047,12.73242 l 19.74414,11.58789 0.27344,9.9375 0.27344,9.9375 h -50.16406 c -27.59022,0 -50.46057,-0.53056 -50.82227,-1.17773 -0.36197,-0.64713 -0.76861,-10.43249 -0.9043,-21.74609 l -0.24804,-20.57032 7.30859,-1.00195 c 4.73465,-0.64883 12.62019,-0.9322 20.95117,-0.87891 z m 24,57.74219 c 4.37809,0.0219 7.95484,0.20093 8.33203,0.57813 0.31253,0.31249 1.05137,26.11926 1.64453,57.34961 l 1.07813,56.7832 h -14.23633 -14.23828 l -0.52734,-10.58985 c -0.93948,-18.90867 -0.553,-102.0733 0.47851,-103.10742 0.64872,-0.6503 10.17192,-1.04768 17.46875,-1.01367 z m -433.53906,10.77344 c 2.20131,-0.0106 4.71252,0.0194 7.49805,0.0957 16.66548,0.456 17.95665,0.71808 19.2832,3.92188 1.8001,4.34747 7.81008,20.27617 13.57422,35.9707 2.45229,6.67699 5.03671,11.95378 5.74414,11.72852 0.70743,-0.22534 4.00887,-8.51305 7.33398,-18.41602 8.14864,-24.26861 10.18679,-29.59499 12.03906,-31.44727 0.91889,-0.91895 8.70176,-1.38654 18.69727,-1.125 l 17.125,0.44727 0.41406,48.24414 0.41407,48.24219 h -14.83399 c -8.15885,0 -15.20932,-0.6075 -15.66797,-1.34961 -0.45862,-0.74215 -0.745,-6.56489 -0.63672,-12.94141 0.10814,-6.37655 0.0845,-15.12512 -0.0527,-19.43945 -0.23607,-7.42205 -0.35873,-7.6348 -2.25195,-3.92383 -1.10054,2.15724 -4.35985,11.18825 -7.2461,20.06836 l -5.25,16.14453 -10.95312,-0.45508 -10.95313,-0.45703 -3.55078,-9.41406 c -1.95259,-5.17727 -4.77166,-12.236 -6.26562,-15.6875 -2.40269,-5.55099 -2.86558,-5.91421 -4.01368,-3.13867 -0.71387,1.72573 -1.3457,8.96329 -1.40625,16.08203 l -0.11132,12.94141 H 107.76367 93.867188 l -1.003907,-12.94141 c -0.764496,-9.8589 -1.219694,-72.30847 -0.597656,-81.97461 0.04719,-0.73372 3.860871,-1.14555 10.464845,-1.17578 z m 161.91406,2.01367 c 10.74164,0.0135 12.3286,3.55407 17.75391,20.2168 5.652,17.35873 21.15223,61.95981 24.24609,69.76367 0.98842,2.49256 1.59587,4.7324 1.35156,4.97656 -0.24417,0.24427 -7.22739,0.9401 -15.51953,1.54883 l -15.07617,1.10742 -1.13672,-6.05273 c -2.23123,-11.89357 -2.67099,-12.16822 -17.79297,-11.00586 -0.13164,0.0113 -0.21271,0.018 -0.34375,0.0293 -2.84186,-0.1584 -3.83964,-7.44457 -1.16992,-18.33789 0,0 1.17243,-2.68554 2.5,-2.68554 3.30769,0 6.44534,-0.42912 6.9707,-0.95508 0.82771,-0.82768 -0.69341,-5.63515 -5.89843,-18.6543 -1.03465,-2.58792 -1.7503,-1.62669 -4.07618,5.49024 -0.46025,1.40825 -0.84249,2.61683 -1.19531,3.75976 l -0.002,-0.0293 c -3.1955,10.60153 -5.90409,23.7686 -10.70703,32.88086 -0.25515,0.25496 -0.8139,3.19005 -1.24024,6.52148 -0.0261,0.20587 -0.0838,0.40024 -0.11328,0.60547 l -0.41992,1.39453 0.15625,0.0293 c -0.57481,2.54464 -1.5249,4.74561 -2.39648,5.29882 -2.26682,1.43842 -30.01321,1.79896 -31.4043,0.40821 -0.49909,-0.49935 0.88306,-5.97194 3.07226,-12.16016 9.32291,-26.35306 21.19016,-60.566 24.03711,-69.29883 1.68774,-5.17719 3.65924,-10.32317 4.38086,-11.43359 0.81289,-1.25068 6.50651,-2.38357 14.96485,-2.98047 3.61371,-0.25497 6.57974,-0.43868 9.05859,-0.43555 z m 49.64063,1.51563 h 15.07226 15.07227 l -0.72071,13.69335 c -0.74469,14.15305 0.045,20.82227 2.4668,20.82227 0.76936,0 1.40039,-0.7601 1.40039,-1.68945 0,-0.92935 3.25634,-8.3418 7.23828,-16.47266 5.69523,-11.629 7.95475,-14.80634 10.58985,-14.89062 7.86164,-0.25142 30.0154,0.36305 30.49804,0.8457 0.28955,0.28936 -0.93962,3.24309 -2.72851,6.5625 -14.54052,26.98008 -20.4961,38.87471 -20.4961,40.91992 0,1.31505 5.74445,11.85168 12.76368,23.41602 7.01922,11.56433 12.42859,21.35461 12.02539,21.75781 -0.40328,0.4032 -8.11087,1.18624 -17.13086,1.73828 l -16.40039,1.00195 -4.08789,-7.66992 c -2.24778,-4.21848 -6.44541,-11.90479 -9.33008,-17.08203 l -5.2461,-9.41406 -1.08398,7.06055 c -0.59699,3.88304 -1.14105,11.14747 -1.20508,16.14257 l -0.11328,9.08203 -13.53906,-0.45507 -13.54102,-0.45313 -0.75195,-47.45703 z m 102.50781,4.20703 c 6.07669,0 14.21847,0.0666 22.95508,0.19922 l 31.76953,0.48437 v 11.67383 11.67578 h -17.87696 c -18.91226,3.4e-4 -19.77734,0.34946 -19.77734,7.97266 0,2.70345 1.31598,3.03595 12.94336,3.25781 7.1187,0.13757 13.87363,0.20387 15.01172,0.15625 1.61832,-0.0712 1.83348,2.18164 0.98437,10.3418 -0.59712,5.73845 -1.39542,10.96224 -1.77148,11.60937 -0.37618,0.64709 -6.64233,1.17773 -13.92578,1.17773 h -13.24219 v 6.2754 6.27539 l 19.21875,-0.004 19.21875,-0.004 -0.51172,12.55469 -0.51172,12.55664 -5.76367,-0.35547 c -3.17004,-0.19449 -18.33479,-0.56292 -33.69922,-0.82031 l -27.93554,-0.46875 0.29101,-46.9375 c 0.20595,-33.08606 0.81043,-47.08209 2.04883,-47.42187 0.48314,-0.13267 4.49761,-0.19953 10.57422,-0.19922 z m 139.83398,2.06836 h 13.90235 13.9082 l 5.50586,8.6289 c 3.02887,4.74584 7.98682,12.51205 11.01562,17.25782 3.02888,4.74583 5.86958,8.6289 6.3125,8.6289 0.44372,0 0.6128,-7.41315 0.37696,-16.47461 l -0.42774,-16.47461 h 15.29492 l 15.29688,0.002 0.18945,13.72851 c 0.35365,25.20801 -0.26715,77.69311 -0.93359,78.77149 -0.75507,1.22184 -13.14582,1.51881 -21.13672,0.50586 -6.14011,-0.77825 -6.84774,-1.53475 -16.55859,-17.69922 -3.88778,-6.47158 -8.80624,-13.88399 -10.92969,-16.47266 l -3.86133,-4.70703 -0.0547,19.21875 -0.0527,19.21875 h -14.11914 -14.11914 l -0.30469,-11.375 c -0.16403,-6.25588 -0.24791,-13.13971 -0.18555,-15.29688 0.0623,-2.15716 0.28482,-18.21823 0.4961,-35.6914 z m 134.2461,0.24218 c 13.76458,-0.14804 41.94995,1.28029 47.34961,2.84766 3.02003,0.87564 8.03016,3.93119 11.13281,6.79297 9.24026,8.52291 9.75712,24.34718 1.09765,33.5918 l -3.25195,3.46875 5.12891,5.84375 c 5.08044,5.7863 5.12023,5.95248 4.13672,17.71093 -1.21108,14.47703 -3.97135,18.75593 -14.44922,22.39063 -7.92023,2.74745 -14.68568,2.95182 -43.80078,1.33203 l -15.6875,-0.87305 0.37304,-45.49804 c 0.20523,-25.02342 0.38124,-46.1185 0.39258,-46.88086 0.006,-0.45226 2.98997,-0.67894 7.57813,-0.72657 z m 247.57422,1.72071 c 0.49974,-0.007 1.03122,-0.006 1.58984,0.004 9.68281,0.18826 27.64991,3.00402 33.9082,5.69727 6.70666,2.88616 9.66637,6.90719 6.10352,8.28906 -0.74155,0.28759 -2.81733,3.87 -4.61328,7.96289 l -3.26758,7.43945 -14.24414,-1.00976 -14.24414,-1.00781 -6.72266,7.32031 c -3.69698,4.02671 -7.58495,9.71404 -8.64258,12.63867 -1.77588,4.91123 -1.56207,5.85106 2.80664,12.32422 5.51819,8.1764 11.08128,10.94056 20.64258,10.25586 5.76359,-0.41269 6.96498,-1.06796 7.38477,-4.02344 0.45539,-3.20568 -0.13865,-3.52929 -6.46289,-3.52929 -6.82817,0 -6.98209,-0.11397 -7.93555,-5.88282 -0.53492,-3.23573 -0.9789,-8.53181 -0.99023,-11.76758 l -0.0176,-5.88281 h 20.39453 c 15.18841,0 20.43431,0.50034 20.54883,1.96094 0.89287,11.40824 0.9529,32.0501 0.11328,39.46289 l -1.05078,9.26367 -9.41407,3.60156 c -7.5092,2.87203 -12.42684,3.58391 -24.3164,3.52344 -8.19727,-0.0415 -16.34146,-0.53613 -18.09766,-1.09765 -1.75623,-0.56096 -8.19011,-4.19718 -14.30078,-8.08008 l -11.11133,-7.06055 -4.14843,-13.01367 c -2.88651,-9.0596 -3.70335,-13.84188 -2.68946,-15.73633 0.80107,-1.49684 1.97239,-7.99438 2.60156,-14.43945 1.0246,-10.49488 1.74779,-12.40887 6.93946,-18.32617 6.23954,-7.11137 20.24296,-17.23016 25.68945,-18.56055 0.83001,-0.20154 2.04765,-0.30443 3.54688,-0.32617 z m -68.43946,0.71289 0.19727,16.70508 c 0.10794,9.18742 0.37208,17.40861 0.58789,18.27148 0.21592,0.86287 0.48017,9.33457 0.58789,18.82617 l 0.19531,17.25781 h 12.44141 12.4414 L 895,350.04883 c -0.80262,2.79862 -1.45898,8.44651 -1.45898,12.55078 v 7.46094 h -26.43164 -26.43165 l 0.73829,-46.67383 c 0.40629,-25.67055 0.8715,-46.8332 1.03515,-47.03125 0.16384,-0.19805 6.43206,-0.83378 13.92774,-1.41016 z m -39.56836,0.46094 0.11133,12.9414 0.10938,12.94336 -16.52539,-0.53516 c -14.6058,-0.47554 -16.76664,-0.20454 -18.63282,2.34766 -3.24098,4.43229 -0.0349,6.81704 9.19532,6.83594 4.42439,0.0119 10.68788,0.45269 13.91601,0.98633 6.47169,1.06975 6.28244,0.006 3.36328,19.13281 l -0.79687,5.23437 -7.71875,-1.06445 c -4.24475,-0.58242 -10.55516,-0.57922 -14.02344,0.008 -5.60999,0.9478 -6.30469,1.55159 -6.30469,5.4668 0,2.56573 1.03367,4.79849 2.48047,5.35352 1.36486,0.52346 10.01341,0.94693 19.21875,0.94531 l 16.73828,-0.002 -0.51172,12.55665 -0.51171,12.55468 -4.97852,-0.35547 c -2.73865,-0.19506 -17.97398,-0.56601 -33.85352,-0.82226 l -28.87109,-0.46484 1.00586,-45.06836 c 0.55264,-24.78762 1.0121,-45.95265 1.02344,-47.03125 0.0154,-1.50569 7.63042,-1.96094 32.79297,-1.96094 z m 277.85155,3.01953 -0.6015,17.71093 c -1.5924,46.69176 -2.4708,54.98267 -6.6426,62.73633 -3.2844,6.10413 -5.217,7.80283 -11.2129,9.85742 -9.4618,3.24223 -22.4097,4.1314 -32.9805,2.26368 v 0 c -13.8858,-2.45345 -21.8356,-8.83813 -24.2754,-19.4961 -1.2413,-5.41455 -1.2767,-69.6265 -0.041,-71.625 0.4512,-0.72979 7.8362,-1.32812 16.414,-1.32812 12.8172,0 15.5977,0.41941 15.5977,2.35351 0,1.2943 -1.0592,2.35352 -2.3535,2.35352 -1.9707,0 -2.3938,3.63437 -2.5918,22.35547 -0.1303,12.29593 -0.3371,24.82762 -0.4629,27.84765 -0.3292,7.90084 0.346,9.05422 6.5019,11.08594 4.8292,1.59379 5.902,1.44179 8.5469,-1.20312 2.6376,-2.63755 3.1368,-6.12576 3.9023,-27.24024 0.4827,-13.31879 1.3575,-27.04072 1.9434,-30.49219 l 1.0664,-6.27539 13.5957,-0.45117 z m -114.34373,0.11914 14.02543,0.002 c 9.3543,0 14.425,0.64015 15.2148,1.91797 0.6514,1.05396 1.0139,11.81894 0.8105,23.92383 -0.2034,12.10492 -0.5158,31.89245 -0.6972,43.97265 -0.1868,12.42244 -1.0112,22.46334 -1.8985,23.11524 -1.5586,1.14376 -3.4173,1.14883 -19.2168,0.041 v 0.004 l -8.23823,-0.57617 V 323.7013 Z m 122.37303,1.56836 17.8848,0.002 h 17.8887 l 1.9589,5.09766 c 1.0769,2.80433 2.9758,7.56981 4.2188,10.58984 1.243,3.02011 4.2324,11.11478 6.6426,17.98437 2.4101,6.86971 5.0763,12.72045 5.9257,13.00391 0.8496,0.28343 2.6159,-2.51355 3.9258,-6.21484 1.3099,-3.70129 3.9369,-10.61354 5.8379,-15.35938 1.9011,-4.74584 4.5872,-11.9834 5.9688,-16.08203 l 2.5117,-7.45117 h 17.543 17.539 l 0.8223,12.94336 c 1.0246,16.17067 0.1014,75.9423 -1.2051,78.05664 -0.7988,1.29226 -27.2695,2.4169 -27.5371,1.16992 -0.047,-0.21585 -0.4769,-8.86424 -0.959,-19.21875 -0.4815,-10.35451 -1.1307,-19.09992 -1.4414,-19.43555 -0.7442,-0.80311 -3.1335,5.23983 -9.2402,23.35938 l -5.0254,14.90234 -9.6153,0.4668 c -9.555,0.4625 -9.6293,0.43241 -11.7695,-4.70703 -1.1845,-2.84478 -3.7724,-10.1142 -5.7519,-16.1543 -1.9796,-6.04014 -4.0255,-11.68791 -4.545,-12.55078 -1.2825,-2.12995 -3.0844,10.34976 -3.2265,22.35547 l -0.1133,9.80664 h -14.1191 -14.1192 v -46.28125 z m -989.92382,92.66015 c 22.45314,0.0392 52.78263,0.55547 81.55079,1.5 25.45478,0.83585 94.64111,1.6629 153.74804,1.83789 59.10687,0.17492 123.3529,0.83264 142.76758,1.45899 101.31455,3.26846 211.64515,4.91304 359.26953,5.36133 123.56326,0.37534 306.13238,2.28815 366.02538,3.83398 1.1065,0.0297 0.6125,27.21264 -1.2832,70.62891 -0.3199,7.33436 -0.6225,18.10141 -0.6758,23.92578 l -0.092,10.58984 h -7.9941 -7.9941 l 1.1464,-38.83008 c 1.4094,-47.67851 1.3384,-44.07624 1.002,-50.20312 l -0.2813,-5.09961 -9.0214,0.0918 c -4.9615,0.0474 -11.8416,0.58972 -15.293,1.20117 l -6.2793,1.11328 -0.7832,41.55078 -0.7852,41.54688 -9.3457,0.48046 c -5.1413,0.26468 -11.0722,0.0484 -13.1797,-0.48046 l -3.832,-0.9629 0.7598,-40.30859 c 0.4176,-22.16991 0.4697,-41.56549 0.1133,-43.10156 -0.5841,-2.51993 -2.5137,-2.75022 -19.7422,-2.35352 l -19.0977,0.43946 -0.4394,19.4414 -0.4414,19.44336 -11.8711,-0.89844 c -6.5277,-0.49394 -12.1912,-1.22439 -12.5879,-1.62109 -0.3967,-0.3967 -1.0718,-8.03324 -1.4981,-16.97266 -0.4263,-8.93933 -1.0671,-17.13819 -1.4277,-18.21679 -0.478,-1.4298 -5.9861,-1.96094 -20.3184,-1.96094 h -19.6601 l -0.096,9.02148 c -0.053,4.96158 -0.2301,13.61012 -0.3926,19.21875 l -0.2969,10.19727 -12.7246,0.45312 -12.7285,0.45313 -0.8027,-5.16016 c -0.4408,-2.83729 -0.7137,-11.65031 -0.6075,-19.58789 0.1702,-12.6898 -0.1477,-14.52269 -2.6386,-15.17383 -3.7785,-0.98755 -35.11044,-0.43264 -36.18363,0.64063 -0.46368,0.46367 -0.98057,9.04441 -1.14649,19.06836 l -0.30273,18.22265 -4.67383,0.9336 c -2.57,0.51413 -8.4675,0.93555 -13.10547,0.93555 h -8.43359 l -0.23438,-16.08204 c -0.13001,-8.84435 -0.0812,-18.04223 0.10742,-20.4414 l 0.3418,-4.36328 -20.10938,0.4414 -20.11132,0.43946 -0.4375,19.28125 -0.44141,19.28125 -12.89453,-0.45508 -12.89648,-0.45508 -0.26954,-7.05664 c -0.14929,-3.88297 -0.32605,-12.88517 -0.39257,-20.00391 l -0.12305,-12.94336 h -19.48438 -19.48437 l -0.95117,4.32618 c -0.5229,2.38049 -0.85337,18.08968 -0.73242,34.9082 0.11981,16.81852 0.14123,34.2863 0.043,38.8164 l -0.18164,8.23438 H 833.92383 821.37305 V 435.35742 392.4043 l -19.70899,-1.13672 c -10.8398,-0.62551 -20.10677,-0.73893 -20.59179,-0.25391 -0.48564,0.48503 -0.77972,9.73453 -0.65235,20.55664 l 0.23242,19.67578 h -11.71093 c -6.44017,0 -12.05361,-0.55683 -12.47461,-1.23828 -0.421,-0.6813 -0.92532,-8.97616 -1.1211,-18.43359 -0.1957,-9.45744 -0.67489,-18.07964 -1.06445,-19.1582 -0.51643,-1.43101 -6.17514,-1.96094 -20.93359,-1.96094 h -20.22657 v 19.61133 19.61328 h -11.60156 c -9.12922,0 -11.8013,-0.52717 -12.55078,-2.48047 -0.52358,-1.36486 -0.94922,-10.12979 -0.94922,-19.47656 v -16.99414 l -18.43555,-0.5586 c -10.13873,-0.30576 -19.6677,-0.28377 -21.17773,0.0488 -2.42649,0.53545 -2.74609,2.76843 -2.74609,19.21875 0,21.25296 0.2555,20.91343 -15.00782,19.94727 l -7.74023,-0.49024 -0.44141,-20.00391 -0.43945,-20.00195 h -21.13281 -21.13086 v 19.60938 19.61133 H 567.2168 554.66602 l -0.0117,-6.66797 c -0.005,-3.66717 -0.45926,-12.49071 -1.01368,-19.60938 l -1.00781,-12.94336 h -20.13867 -20.13867 l -0.41602,42.75 -0.41601,42.75195 -12.16016,0.45899 -12.1582,0.46094 V 440.957 c 0,-18.89303 -0.4534,-38.68838 -1.00781,-43.99219 l -1.00782,-9.64257 h -19.33203 c -16.85337,0 -19.50547,0.35278 -20.67773,2.74609 -0.73924,1.51 -1.28867,10.51384 -1.21875,20.01172 l 0.1289,17.26953 -11.7832,-0.57617 c -6.47958,-0.31605 -12.01965,-0.79624 -12.31445,-1.06836 -0.29462,-0.2722 -1.25994,-8.84317 -2.14453,-19.04688 -0.88456,-10.2037 -1.90676,-18.87447 -2.27149,-19.26758 -0.36472,-0.39314 -9.46074,-1.00888 -20.21289,-1.36718 l -19.54687,-0.65039 v 20.58593 20.58399 h -13.09766 -13.0957 l -1.06641,-19.91406 c -0.58549,-10.95232 -1.22269,-20.04036 -1.41602,-20.19532 -0.19318,-0.15477 -9.26323,-0.77356 -20.15624,-1.375 l -19.80665,-1.09375 -0.88867,3.63868 c -0.48858,2.00148 -0.59813,11.22995 -0.24414,20.50586 0.47751,12.51375 0.14983,16.90803 -1.26953,17.03124 -1.05208,0.0915 -4.02858,0.17812 -6.61719,0.18946 -12.33443,0.0641 -16.62321,-0.51153 -17.20312,-2.31641 -0.34641,-1.0786 -1.10121,-10.25576 -1.67578,-20.39453 l -1.04297,-18.43555 H 257.21094 236.1875 v 19.42774 c 0,22.46071 0.95634,21.30778 -17.65039,21.34179 l -10.58984,0.0234 v -21.17968 -21.17969 l -12.94336,0.0117 c -7.11872,0.006 -16.53486,0.44552 -20.92383,0.97265 l -7.98047,0.95703 0.73828,43.57227 0.74023,43.57031 -13.9375,0.65625 c -7.66638,0.36132 -14.192,0.47829 -14.5,0.26172 -0.30789,-0.21581 -0.64474,-20.202 -0.75,-44.41211 l -0.19335,-44.01562 -4.74024,-0.87696 c -2.60681,-0.48276 -10.03233,-0.663 -16.50391,-0.39843 l -11.76562,0.48046 0.24219,6.2754 c 0.13382,3.45146 0.77125,24.71169 1.41797,47.24414 l 1.17773,40.96875 -7.52344,1.13085 c -5.54727,0.83188 -7.868579,0.57856 -8.8457,-0.96289 -0.728738,-1.14961 -1.380633,-13.74096 -1.447266,-27.97851 -0.06671,-14.23733 -0.462296,-37.26868 -0.878906,-51.17969 l -0.757812,-25.29101 3.601562,-0.96485 c 2.004947,-0.53723 11.389132,-0.83152 25.109372,-0.89844 2.8581,-0.0139 5.90638,-0.0193 9.11328,-0.0137 z"
       transform="matrix(0.26458333,0,0,0.26458333,0,210)"
       id="path4180"
       inkscape:connector-curvature="0"
       sodipodi:nodetypes="cccccccccccccccccccscccccccccccccccccccscccccsccccccccccccccccccccccccccccsccccccccccccscccccccccssccccsscccccccccccccccccccsccscsccccccccccccccccccsccccccccccccccccccccscccccccccccccccccccccccscccsccccccccccccccccccccccsccccccccccccccccccscccccccccccccccsccccsssccccccccccccsccccccccccccccscsccccccccccccccccccccccccsccccccccccccccccccccccccsscscccccccccccccscccccccccccccccccccccccccccscccscccscscccscccccccccccccccccccsccsccccccccccccccccccccccccccscccccccccccccccccccccccccscccc" />
    <path
       style="display:inline;opacity:1;vector-effect:none;fill:#a05a2c;fill-opacity:1;fill-rule:evenodd;stroke:none;stroke-width:0.69999999;stroke-linecap:round;stroke-linejoin:round;stroke-miterlimit:4;stroke-dasharray:none;stroke-dashoffset:0;stroke-opacity:1;paint-order:stroke fill markers"
       d="m 355.02968,232.41427 c -3.53399,0.60197 -6.23728,5.18927 -6.2186,8.77414 l 0.88078,169.09494 41.0179,-7.17005 0.61999,3.54599 -41.61906,7.27515 0.10887,20.9396 44.1522,-20.50909 1.51645,3.26518 -45.64796,21.20365 0.14223,27.29053 49.45919,-41.23385 2.30537,2.76495 -51.74046,43.13562 0.0837,16.06745 88.71719,-15.11487 -35.3233,-207.32855 -31.84304,-13.94969 1.4447,-3.29728 29.67513,12.9998 -2.28333,-13.40095 c -0.11294,-0.66664 0.36393,-1.86848 1.45686,-2.0547 18.43725,-7.6936 21.13252,-0.17502 27.8084,1.97803 5.46132,-0.93039 5.81533,-12.18762 4.88488,-17.64894 l -0.23857,-1.40041 -0.0157,-0.0901 -0.86967,-5.10707 c -0.30814,-1.80613 -2.01027,-3.01223 -3.8165,-2.70451 l -29.74024,5.02222 -3.12681,0.53305 z m 15.41101,32.41748 c 0.70468,-0.11154 1.42663,-0.17137 2.16204,-0.17527 7.84414,-0.0419 14.23749,6.28327 14.2792,14.12744 0.038,7.10876 -5.15295,13.02537 -11.96497,14.10335 -0.70473,0.11124 -1.42716,0.17136 -2.16253,0.17535 -7.84417,0.0419 -14.237,-6.28336 -14.2787,-14.12752 -0.038,-7.10875 5.15292,-13.02539 11.96496,-14.10335 z m 3.74071,44.7082 c 0.90967,-0.14396 1.84173,-0.22086 2.79102,-0.22595 10.1259,-0.054 18.37805,8.11098 18.43196,18.23686 0.0487,9.17644 -6.65202,16.81388 -15.44543,18.2054 -0.90958,0.14445 -1.84177,0.22086 -2.79101,0.22595 -10.12574,0.054 -18.37771,-8.11063 -18.43187,-18.23635 -0.049,-9.17658 6.65182,-16.81437 15.44533,-18.20591 z m -7.33586,54.46654 c 0.46332,-0.0735 0.93835,-0.11261 1.42188,-0.1152 5.15753,-0.0276 9.36083,4.13124 9.38854,9.28878 0.0248,4.67418 -3.38832,8.56464 -7.8674,9.27343 -0.46331,0.0735 -0.93833,0.1126 -1.42187,0.1152 -5.15772,0.0276 -9.36123,-4.13157 -9.38863,-9.28928 -0.025,-4.67399 3.38848,-8.5642 7.86748,-9.27293 z m 49.29209,41.4665 3.57537,-0.59272 9.03526,54.25293 -3.55095,0.58847 z"
       id="path892"
       inkscape:connector-curvature="0" />
    <path
       style="display:inline;opacity:1;vector-effect:none;fill:#a05a2c;fill-opacity:1;fill-rule:evenodd;stroke:none;stroke-width:2.64566922;stroke-linecap:round;stroke-linejoin:round;stroke-miterlimit:4;stroke-dasharray:none;stroke-dashoffset:0;stroke-opacity:1;paint-order:stroke fill markers"
       d="m 21.244141,774.97656 v 188.97852 c 187.500019,-42.32474 188.966459,94.98522 628.744139,94.78322 3.46284,0 6.95126,-0.01 10.46875,-0.029 450.23657,-2.4069 450.23657,-137.41193 639.21287,-94.75392 V 774.97656 l -37.7949,0.31055 v 71.70312 l -13.6113,0 v -72.01367 l -1175.608099,0 v 72.01367 H 59.039062 v -72.01367 z m 545.396479,23.92188 c 5.3102,0.0358 10.90229,0.28998 15.04688,0.75195 5.66702,0.63164 8.17928,1.69956 19.10938,8.11523 l 12.58593,7.38672 0.17383,6.33399 0.17383,6.33398 h -31.97461 c -17.5861,0 -32.16398,-0.3375 -32.39453,-0.75 -0.2307,-0.4125 -0.48962,-6.64999 -0.57617,-13.86133 l -0.15821,-13.11132 4.65625,-0.63868 c 3.01788,-0.41351 8.04723,-0.59456 13.35742,-0.56054 z m 15.29493,36.80468 h 0.002 c 2.79061,0.014 5.07017,0.12877 5.31055,0.36915 0.19922,0.19918 0.67076,16.64833 1.04883,36.55468 l 0.6875,36.19336 h -9.07422 -9.07618 l -0.33593,-6.75 c -0.59883,-12.05246 -0.35476,-65.06155 0.30273,-65.7207 0.41352,-0.41443 6.48376,-0.66916 11.13477,-0.64649 z m -276.33985,6.86719 0.002,0.002 c 1.40312,-0.007 3.00378,0.0118 4.77929,0.0605 10.62265,0.29065 11.44547,0.45789 12.29102,2.5 1.14739,2.77111 4.97825,12.92397 8.65234,22.92774 1.5631,4.25593 3.21119,7.62018 3.66211,7.47656 0.45092,-0.14362 2.55439,-5.42609 4.67383,-11.73828 5.19398,-15.46893 6.49318,-18.86427 7.67383,-20.04492 0.5857,-0.58564 5.54679,-0.88348 11.91797,-0.7168 l 10.91601,0.2832 0.26367,30.75 0.26368,30.75 h -9.45508 c -5.20049,0 -9.69398,-0.38633 -9.98633,-0.85937 -0.29234,-0.47305 -0.47526,-4.18557 -0.40625,-8.25 0.0689,-4.06443 0.0523,-9.64064 -0.0352,-12.39063 -0.15047,-4.73083 -0.22879,-4.86538 -1.43554,-2.5 -0.70149,1.37503 -2.77944,7.1308 -4.61914,12.79102 l -3.34571,10.29101 -6.98242,-0.29101 -6.98047,-0.29102 -2.26367,-6 c -1.24459,-3.30002 -3.04188,-7.80001 -3.99414,-10 -1.53148,-3.53824 -1.82679,-3.76912 -2.55859,-2 -0.45503,1.1 -0.8579,5.71249 -0.89649,10.25 l -0.0703,8.25 h -8.85742 -8.85742 l -0.64063,-8.25 c -0.48729,-6.2841 -0.77735,-46.08876 -0.38086,-52.25 0.0301,-0.46768 2.46052,-0.7311 6.66992,-0.75 z m 103.20508,1.28516 c 6.84677,0.009 7.85829,2.26583 11.31641,12.88672 3.60261,11.06453 13.48303,39.4926 15.45508,44.46679 0.63001,1.58877 1.01704,3.01616 0.86132,3.17188 -0.15564,0.15572 -4.60713,0.60027 -9.89257,0.98828 l -9.60938,0.70508 -0.72461,-3.85742 c -1.4222,-7.58102 -1.70298,-7.75653 -11.3418,-7.01563 -0.0839,0.008 -0.13522,0.012 -0.21875,0.0195 -1.81141,-0.10095 -2.44583,-4.746 -0.74414,-11.68945 0,0 0.7456,-1.71094 1.5918,-1.71094 2.10833,0 4.10849,-0.27413 4.44336,-0.60937 0.52758,-0.52759 -0.44206,-3.59215 -3.75977,-11.89063 -0.65949,-1.64953 -1.11513,-1.03634 -2.59765,3.5 -0.29337,0.89764 -0.53684,1.66798 -0.76172,2.39649 l -0.002,-0.0195 c -2.03683,6.75745 -3.76281,15.15079 -6.82422,20.95898 -0.16264,0.16252 -0.51927,2.0328 -0.79102,4.15625 -0.0166,0.13123 -0.0534,0.25595 -0.0723,0.38672 l -0.26758,0.88867 0.10156,0.0195 c -0.36639,1.62199 -0.97374,3.02433 -1.5293,3.37696 -1.44487,0.91683 -19.13089,1.1443 -20.01757,0.25781 -0.31813,-0.31828 0.56357,-3.80561 1.95898,-7.75 5.94246,-16.79755 13.5076,-38.60554 15.32227,-44.17188 1.07576,-3.29998 2.333,-6.57931 2.79296,-7.28711 0.51814,-0.79717 4.14768,-1.5199 9.53907,-1.90039 2.30339,-0.16252 4.19145,-0.27934 5.77148,-0.27734 z m 31.64063,0.96484 h 9.60742 9.60742 l -0.45898,8.72852 c -0.47468,9.0212 0.0286,13.27344 1.57226,13.27344 0.49039,0 0.89258,-0.48381 0.89258,-1.07618 0,-0.59236 2.07518,-5.31736 4.61328,-10.5 3.63016,-7.41237 5.07038,-9.43851 6.75,-9.49218 5.01105,-0.16026 19.1318,0.23141 19.43945,0.53906 0.18456,0.18444 -0.59803,2.06778 -1.73828,4.18359 -9.26819,17.19723 -13.06445,24.7784 -13.06445,26.08203 0,0.83823 3.66067,7.55461 8.13477,14.92579 4.47409,7.37113 7.92302,13.61017 7.66601,13.86718 -0.25705,0.25701 -5.17054,0.7575 -10.91992,1.10938 l -10.45313,0.63867 -2.60546,-4.88867 c -1.43275,-2.68887 -4.10857,-7.58869 -5.94727,-10.88867 l -3.34375,-6 -0.69141,4.49804 c -0.38052,2.47506 -0.72676,7.10711 -0.76757,10.29102 l -0.0703,5.78906 -8.63281,-0.29101 -8.63086,-0.28907 -0.47656,-30.25 z m 65.33984,2.68164 c 3.8733,0 9.0621,0.0443 14.63086,0.12891 l 20.25,0.30664 v 7.44141 7.4414 h -11.39453 c -12.05477,2.3e-4 -12.60547,0.223 -12.60547,5.08203 0,1.7232 0.83865,1.93482 8.25,2.07618 4.53747,0.0884 8.84292,0.13179 9.56836,0.10156 1.03151,-0.0454 1.16818,1.39048 0.62695,6.5918 -0.3806,3.65771 -0.88928,6.98789 -1.1289,7.40039 -0.23978,0.41246 -4.23445,0.74804 -8.87696,0.74804 h -8.43945 v 4.00196 3.99804 l 12.25,-0.002 12.25,-0.002 -0.32617,8.00195 -0.32617,8.00391 -3.67383,-0.22461 c -2.02061,-0.12397 -11.68711,-0.35941 -21.48047,-0.52344 l -17.80664,-0.30078 0.1875,-29.91797 c 0.13126,-21.0892 0.51533,-30.01 1.30469,-30.22656 0.30795,-0.0847 2.86697,-0.12715 6.74023,-0.12696 z m 89.13086,1.31836 h 8.86328 8.86523 l 3.50977,5.5 c 1.93062,3.02502 5.0909,7.97502 7.02149,11 1.93062,3.02502 3.7411,5.5 4.02343,5.5 0.28271,0 0.39066,-4.7242 0.24024,-10.5 l -0.27539,-10.50195 h 9.75 l 9.75,0.002 0.12109,8.75 c 0.22541,16.06768 -0.17092,49.52164 -0.5957,50.20899 -0.48129,0.77881 -8.37922,0.96792 -13.47266,0.32226 -3.91374,-0.49606 -4.36495,-0.97795 -10.55469,-11.28125 -2.47808,-4.12501 -5.61331,-8.84997 -6.96679,-10.5 l -2.46094,-3 -0.0332,12.25 -0.0332,12.25 h -9 -9 l -0.19531,-7.25 c -0.10394,-3.98751 -0.15687,-8.37501 -0.11719,-9.75 0.0397,-1.37499 0.18186,-11.61252 0.31641,-22.75 z m 85.56836,0.1543 h 0.002 c 8.77425,-0.0942 26.73817,0.81548 30.17969,1.81445 1.92499,0.55813 5.11806,2.50597 7.0957,4.33008 5.88979,5.43254 6.21881,15.51956 0.69922,21.41211 l -2.07226,2.21094 3.26953,3.72461 c 3.2383,3.68821 3.26363,3.79418 2.63672,11.28906 -0.77194,9.22772 -2.53229,11.95471 -9.21094,14.27148 -5.04839,1.75125 -9.35989,1.88207 -27.91797,0.84961 l -10,-0.55664 0.24023,-29 c 0.13078,-15.95002 0.24049,-29.39688 0.24805,-29.88281 0.004,-0.28823 1.90678,-0.43261 4.83008,-0.46289 z m 158.81836,1.09961 h 0.002 c 6.17228,0.12031 17.62265,1.91432 21.61133,3.63086 4.27483,1.83965 6.16159,4.40238 3.89062,5.2832 -0.47266,0.18331 -1.79666,2.46735 -2.9414,5.07617 l -2.08203,4.74219 -9.08008,-0.64453 -9.07813,-0.64258 -4.28515,4.66602 c -2.35646,2.56664 -4.83565,6.19246 -5.50977,8.05664 -1.13197,3.13043 -0.99558,3.72943 1.78906,7.85547 3.51731,5.21166 7.06379,6.97353 13.15821,6.53711 3.67374,-0.26306 4.43944,-0.68063 4.70703,-2.56446 0.29027,-2.04329 -0.088,-2.25 -4.11914,-2.25 -4.35232,0 -4.45085,-0.0729 -5.0586,-3.75 -0.34095,-2.06249 -0.6233,-5.43751 -0.63085,-7.5 l -0.01,-3.75 h 13 c 9.68115,0 13.02471,0.31899 13.09766,1.25 0.56904,7.27166 0.60744,20.42936 0.0723,25.1543 l -0.66992,5.9043 -6,2.29492 c -4.78639,1.83065 -7.92351,2.28464 -15.50195,2.24609 -5.22497,-0.0265 -10.41574,-0.3413 -11.53516,-0.69922 -1.11942,-0.35754 -5.21833,-2.6754 -9.11328,-5.15039 l -7.08203,-4.5 -2.64453,-8.29492 c -1.83995,-5.77463 -2.36111,-8.82373 -1.71485,-10.03125 0.51062,-0.9541 1.25716,-5.095 1.65821,-9.20312 0.65306,-6.6895 1.11267,-7.90994 4.42187,-11.68164 3.97712,-4.53283 12.90339,-10.98207 16.375,-11.83008 0.70505,-0.17113 1.85018,-0.23144 3.27344,-0.20508 z m -44.63477,0.45117 0.125,10.64844 c 0.0688,5.85611 0.23547,11.09649 0.37305,11.64648 0.13757,0.55 0.30621,5.95 0.375,12 l 0.125,11 h 7.93164 7.92969 l -0.92969,3.24414 c -0.5116,1.78386 -0.92969,5.38393 -0.92969,8 v 4.75586 H 792.81641 775.9668 l 0.4707,-29.75 c 0.25897,-16.36252 0.55779,-29.85228 0.66211,-29.97851 0.10443,-0.12624 4.09722,-0.53107 8.875,-0.89844 z m -46.11133,0.29492 h 20.89063 l 0.0703,8.25 0.0703,8.25 -10.5332,-0.34179 c -9.30981,-0.30312 -10.68746,-0.13069 -11.87695,1.49609 -2.06582,2.82516 -0.022,4.34608 5.86133,4.35742 2.82013,0.008 6.80957,0.28875 8.86718,0.62891 4.12509,0.68186 4.00715,0.004 2.14649,12.19531 l -0.50781,3.33594 -4.91993,-0.67774 c -2.70561,-0.37228 -6.72877,-0.37026 -8.93945,0.004 -3.57585,0.60412 -4.01758,0.98879 -4.01758,3.48437 0,1.63541 0.65788,3.05835 1.58008,3.41211 0.86997,0.33366 6.38247,0.60454 12.25,0.60352 l 10.66992,-0.002 -0.32617,8.0039 -0.32617,8.00196 -3.17383,-0.22657 c -1.74561,-0.12434 -11.45644,-0.36016 -21.57812,-0.52343 l -18.40235,-0.29688 0.64063,-28.72656 c 0.35225,-15.79975 0.64478,-29.29102 0.65234,-29.97852 0.01,-0.95973 4.86362,-1.25 20.90234,-1.25 z m 197.99415,1.92383 -0.38477,11.28906 c -1.01499,29.76151 -1.57521,35.04606 -4.23438,39.98828 -2.09344,3.8908 -3.32466,4.9736 -7.14648,6.28321 -6.03095,2.06661 -14.28361,2.63387 -21.02148,1.44336 h -0.002 c -8.85082,-1.56382 -13.91749,-5.6343 -15.47265,-12.42774 -0.79117,-3.45127 -0.81496,-44.38044 -0.0274,-45.65429 0.28762,-0.46519 4.99535,-0.84571 10.46289,-0.84571 8.16975,0 9.94141,0.2672 9.94141,1.5 0,0.825 -0.67501,1.5 -1.5,1.5 -1.25609,0 -1.52611,2.31709 -1.65234,14.25 -0.0832,7.8375 -0.21285,15.82501 -0.29297,17.75 -0.2098,5.03603 0.22074,5.77139 4.14453,7.06641 3.07816,1.0159 3.75945,0.91832 5.44531,-0.76758 1.68121,-1.68117 2.0023,-3.90484 2.49024,-17.36328 0.30765,-8.48946 0.86486,-17.23556 1.23828,-19.43555 l 0.67773,-4 8.66797,-0.28711 z m -72.88477,0.0762 8.94141,0.002 c 5.9625,0 9.19387,0.40816 9.69726,1.22265 0.41514,0.67181 0.64722,7.53429 0.51758,15.25 -0.12971,7.71572 -0.32966,20.32735 -0.44531,28.02735 -0.11906,7.91811 -0.64342,14.31885 -1.20899,14.73437 -0.99345,0.729 -2.17937,0.73152 -12.25,0.0254 v 0.002 l -5.25195,-0.36718 v -29.44727 z m 78,1 11.40039,0.002 h 11.40234 l 1.24805,3.25 c 0.6864,1.78749 1.89715,4.82501 2.68945,6.75 0.79231,1.92502 2.69811,7.08419 4.23438,11.46289 1.53626,4.37877 3.23589,8.1084 3.77734,8.28906 0.5415,0.18066 1.66698,-1.60172 2.50196,-3.96094 0.83489,-2.35922 2.50898,-6.76599 3.7207,-9.79101 1.21175,-3.02502 2.92406,-7.63752 3.80469,-10.25 l 1.60156,-4.75 h 11.18163 11.1797 l 0.5234,8.25 c 0.6532,10.30726 0.065,48.4062 -0.7675,49.7539 -0.5092,0.8236 -17.3823,1.54093 -17.5528,0.7461 -0.03,-0.13758 -0.304,-5.65 -0.6113,-12.25 -0.3069,-6.6 -0.7199,-12.17475 -0.918,-12.38868 -0.4743,-0.5119 -1.99814,3.3392 -5.8906,14.88868 l -3.20312,9.5 -6.12891,0.29492 c -6.09041,0.2948 -6.13781,0.2759 -7.50195,-3 -0.755,-1.81327 -2.40426,-6.4469 -3.66602,-10.29688 -1.26176,-3.85001 -2.5654,-7.45 -2.89648,-8 -0.81748,-1.35764 -1.96594,6.59752 -2.05664,14.25 l -0.0723,6.25 h -9 -9 v -29.5 z m -636.78906,59.07031 h 0.002 c 14.57681,-0.0711 36.83255,0.25921 57.78906,0.94727 16.22499,0.53276 60.32499,1.06038 98,1.17188 37.67498,0.11149 78.625,0.53045 91,0.92968 64.57833,2.08332 134.9036,3.13224 229,3.41797 78.75976,0.23925 195.13058,1.45804 233.30669,2.44336 0.7053,0.0189 0.39,17.34583 -0.8184,45.01953 -0.204,4.67498 -0.3956,11.53752 -0.4296,15.25 l -0.059,6.75 h -5.0957 -5.0957 l 0.7304,-24.75 c 0.8983,-30.3905 0.853,-28.09469 0.6387,-32 l -0.1797,-3.25 -5.75,0.0586 c -3.1625,0.0302 -7.5481,0.37588 -9.74809,0.76562 l -4.00195,0.70899 -0.5,26.48437 -0.5,26.48242 -5.95703,0.30664 c -3.27708,0.16872 -7.05707,0.0305 -8.40039,-0.30664 l -2.44336,-0.61328 0.48437,-25.69336 c 0.26608,-14.1312 0.29942,-26.49357 0.0723,-27.47265 -0.37228,-1.60619 -1.60245,-1.75285 -12.58399,-1.5 l -12.17187,0.27929 -0.28125,12.39258 -0.28125,12.39258 -7.56641,-0.57227 c -4.16073,-0.31483 -7.77058,-0.78035 -8.02343,-1.0332 -0.25285,-0.25285 -0.68333,-5.12034 -0.95508,-10.81836 -0.27175,-5.69798 -0.68036,-10.92383 -0.91016,-11.61133 -0.30463,-0.91135 -3.81571,-1.25 -12.95117,-1.25 h -12.53125 l -0.0606,5.75 c -0.0336,3.16252 -0.14644,8.67502 -0.25,12.25 l -0.18945,6.5 -8.11133,0.28907 -8.11328,0.28906 -0.51172,-3.28906 c -0.28089,-1.80851 -0.45437,-7.42687 -0.38672,-12.48633 0.10847,-8.08853 -0.0939,-9.25685 -1.68164,-9.67188 -2.40843,-0.62948 -22.38039,-0.27589 -23.06445,0.40821 -0.29556,0.29555 -0.62464,5.765 -0.73047,12.15429 l -0.19336,11.61524 -2.97852,0.5957 c -1.63812,0.32772 -5.39724,0.5957 -8.35351,0.5957 h -5.375 l -0.15039,-10.25 c -0.0828,-5.63743 -0.0518,-11.50006 0.0684,-13.02929 l 0.21875,-2.78125 -12.81836,0.28125 -12.81836,0.27929 -0.2793,12.29102 -0.28125,12.28906 -8.21875,-0.28906 -8.2207,-0.29102 -0.17188,-4.49804 c -0.0952,-2.47503 -0.20766,-8.21249 -0.25,-12.75 l -0.0781,-8.25 h -12.41992 -12.41992 l -0.60547,2.75781 c -0.33336,1.51733 -0.5439,11.52982 -0.4668,22.25 0.0764,10.72021 0.0881,21.85466 0.0254,24.74219 l -0.11523,5.24804 h -7.99805 -8 v -27.3789 -27.37891 l -12.5625,-0.72461 c -6.90932,-0.39874 -12.81584,-0.47127 -13.125,-0.16211 -0.30943,0.30917 -0.49728,6.20546 -0.41602,13.10352 l 0.14844,12.54101 h -7.46484 c -4.10499,0 -7.68283,-0.35472 -7.95117,-0.78906 -0.26835,-0.43427 -0.59012,-5.72177 -0.71485,-11.75 -0.12476,-6.0282 -0.42942,-11.52344 -0.67773,-12.21094 -0.32916,-0.91211 -3.93666,-1.25 -13.34375,-1.25 h -12.89258 v 12.5 12.50196 h -7.39453 c -5.819,0 -7.52227,-0.33698 -8,-1.58204 -0.33373,-0.86997 -0.60547,-6.45639 -0.60547,-12.41406 v -10.83203 l -11.75,-0.35547 c -6.46246,-0.19502 -12.53751,-0.18273 -13.5,0.0293 -1.54666,0.34129 -1.75,1.76449 -1.75,12.25 0,13.54673 0.16251,13.33068 -9.56641,12.71484 l -4.93359,-0.3125 -0.28125,-12.75 -0.2793,-12.75 h -13.4707 -13.46875 v 12.5 12.5 h -8 -8 l -0.006,-4.25 c -0.003,-2.33748 -0.2931,-7.96252 -0.64648,-12.5 l -0.64258,-8.25 h -12.83594 -12.83594 l -0.26758,27.25 -0.26562,27.25 -7.75,0.29297 -7.75,0.29297 V 957.0098 c 0,-12.04249 -0.28919,-24.66035 -0.64258,-28.04102 l -0.64258,-6.14648 h -12.32226 c -10.7424,0 -12.43248,0.2245 -13.17969,1.75 -0.47119,0.96249 -0.82194,6.70185 -0.77734,12.75585 l 0.082,11.00782 -7.50977,-0.36719 c -4.13011,-0.20145 -7.66176,-0.50816 -7.84961,-0.68164 -0.1878,-0.17348 -0.80336,-5.63674 -1.36719,-12.14063 -0.56382,-6.50388 -1.21482,-12.03066 -1.44726,-12.28125 -0.23248,-0.25058 -6.03131,-0.64281 -12.88477,-0.87109 l -12.45898,-0.41406 v 13.12109 13.1211 h -8.34766 -8.34765 l -0.67969,-12.69336 c -0.37319,-6.98106 -0.77913,-12.7744 -0.90234,-12.87305 -0.12314,-0.0987 -5.9044,-0.4936 -12.84766,-0.87695 l -12.625,-0.69727 -0.56641,2.32031 c -0.31143,1.27574 -0.37993,7.15781 -0.15429,13.07032 0.30436,7.97631 0.0961,10.77685 -0.8086,10.85546 -0.6706,0.0582 -2.56876,0.11354 -4.21875,0.1211 -7.86202,0.0408 -10.5952,-0.32611 -10.96484,-1.47656 -0.2208,-0.6875 -0.70212,-6.5375 -1.06836,-13 l -0.66406,-11.75 h -13.40235 -13.40039 v 12.38281 c 0,14.31655 0.61001,13.58084 -11.25,13.60351 l -6.75,0.0156 v -13.5 -13.5 l -8.25,0.008 c -4.5375,0.004 -10.54034,0.28509 -13.33789,0.62109 l -5.08594,0.60938 0.47071,27.77344 0.4707,27.77148 -8.88281,0.41797 c -4.88659,0.23017 -9.04588,0.30592 -9.24219,0.16797 -0.19626,-0.13758 -0.41143,-12.87697 -0.47852,-28.30859 l -0.12304,-28.05665 -3.02149,-0.55859 c -1.66159,-0.30765 -6.39452,-0.42247 -10.51953,-0.25391 l -7.5,0.30469 0.15235,4 c 0.0853,2.19999 0.49208,15.751 0.90429,30.11328 l 0.75,26.11329 -4.79492,0.7207 c -3.53586,0.53023 -5.01585,0.36924 -5.63867,-0.61328 -0.4645,-0.73278 -0.87939,-8.75893 -0.92188,-17.83399 -0.0425,-9.07495 -0.29499,-23.75417 -0.56054,-32.62109 l -0.48242,-16.1211 2.29492,-0.61523 c 1.27803,-0.34246 7.25978,-0.52956 16.00586,-0.57227 z"
       transform="matrix(0.26458333,0,0,0.26458333,0,210)"
       id="path3423"
       inkscape:connector-curvature="0"
       sodipodi:nodetypes="cccccccccccccccccccccsccccccccccccccccccccsscccccsccccccccccccccccccccccccccccscccccccccccccccccccccssccccsccccccccccccccccccccsccccscccccccccccccccccsscccccccccccccccccccccsccccsccccccccccccccccccscccsccccccccccscccccccccccscccccccscccccccccccsccccccccccscccsccccssscccccccccccccccccccccccccccccccccccccccccccccccccccccsscccccccccccccccccccccccccsscscccccccccccccscccccccccccccccccccccccccccscccscccscscccscccccccccccccccccccsccsccccccccccccccccccccccccccscccccccccccccccccccccccccccccccccc" />
    <path
       inkscape:connector-curvature="0"
       id="path4256"
       d="m 486.85893,491.06532 c 3.53399,-0.60197 6.23728,-5.18927 6.2186,-8.77414 l -0.88078,-169.09494 -41.0179,7.17005 -0.61999,-3.54599 41.61906,-7.27515 -0.10888,-20.9396 -44.15219,20.50909 -1.51645,-3.26518 45.64796,-21.20365 -0.14223,-27.29053 -49.45919,41.23385 -2.30537,-2.76495 51.74046,-43.13562 -0.0837,-16.06745 -88.71719,15.11487 35.3233,207.32855 31.84304,13.94969 -1.4447,3.29728 -29.67513,-12.9998 2.28333,13.40095 c 0.11294,0.66664 -0.36393,1.86848 -1.45686,2.0547 -18.43725,7.6936 -21.13252,0.17502 -27.8084,-1.97803 -5.46132,0.93039 -5.81533,12.18762 -4.88488,17.64894 l 0.23857,1.40041 0.0157,0.0901 0.86967,5.10707 c 0.30814,1.80613 2.01027,3.01223 3.8165,2.70451 l 29.74024,-5.02222 3.12681,-0.53305 z m -15.41101,-32.41748 c -0.70468,0.11154 -1.42663,0.17137 -2.16204,0.17527 -7.84414,0.0419 -14.23749,-6.28327 -14.2792,-14.12744 -0.038,-7.10876 5.15295,-13.02537 11.96497,-14.10335 0.70473,-0.11124 1.42716,-0.17136 2.16253,-0.17535 7.84417,-0.0419 14.237,6.28336 14.2787,14.12752 0.038,7.10875 -5.15292,13.02539 -11.96496,14.10335 z m -3.74071,-44.7082 c -0.90968,0.14396 -1.84173,0.22086 -2.79102,0.22595 -10.1259,0.054 -18.37806,-8.11098 -18.43196,-18.23686 -0.0487,-9.17644 6.65202,-16.81388 15.44543,-18.2054 0.90958,-0.14445 1.84177,-0.22086 2.79101,-0.22595 10.12574,-0.054 18.37771,8.11063 18.43187,18.23635 0.049,9.17658 -6.65183,16.81437 -15.44533,18.20591 z m 7.33586,-54.46654 c -0.46332,0.0735 -0.93835,0.11261 -1.42188,0.1152 -5.15753,0.0276 -9.36083,-4.13124 -9.38854,-9.28878 -0.0249,-4.67418 3.38832,-8.56464 7.8674,-9.27343 0.46331,-0.0735 0.93833,-0.1126 1.42187,-0.1152 5.15771,-0.0276 9.36123,4.13157 9.38863,9.28928 0.025,4.67399 -3.38848,8.5642 -7.86748,9.27293 z m -49.29209,-41.4665 -3.57537,0.59272 -9.03526,-54.25293 3.55094,-0.58847 z"
       style="display:inline;opacity:1;vector-effect:none;fill:#a05a2c;fill-opacity:1;fill-rule:evenodd;stroke:none;stroke-width:0.69999999;stroke-linecap:round;stroke-linejoin:round;stroke-miterlimit:4;stroke-dasharray:none;stroke-dashoffset:0;stroke-opacity:1;paint-order:stroke fill markers" />
  </g>
</svg>
