<?xml version="1.0" encoding="UTF-8" standalone="no"?>
<!-- Created with Inkscape (http://www.inkscape.org/) -->

<svg
   xmlns:dc="http://purl.org/dc/elements/1.1/"
   xmlns:cc="http://creativecommons.org/ns#"
   xmlns:rdf="http://www.w3.org/1999/02/22-rdf-syntax-ns#"
   xmlns:svg="http://www.w3.org/2000/svg"
   xmlns="http://www.w3.org/2000/svg"
   xmlns:sodipodi="http://sodipodi.sourceforge.net/DTD/sodipodi-0.dtd"
   xmlns:inkscape="http://www.inkscape.org/namespaces/inkscape"
   width="210mm"
   height="297mm"
   viewBox="0 0 210 297"
   version="1.1"
   id="svg8"
   inkscape:version="0.92.4 (0.92.4+201905131911+c4d3118)"
   sodipodi:docname="plankje.svg">
  <defs
     id="defs2" />
  <sodipodi:namedview
     id="base"
     pagecolor="#ffffff"
     bordercolor="#666666"
     borderopacity="1.0"
     inkscape:pageopacity="0.0"
     inkscape:pageshadow="2"
     inkscape:zoom="0.91464844"
     inkscape:cx="-0.71764132"
     inkscape:cy="380.31233"
     inkscape:document-units="mm"
     inkscape:current-layer="layer1"
     showgrid="false"
     inkscape:window-width="1545"
     inkscape:window-height="836"
     inkscape:window-x="55"
     inkscape:window-y="27"
     inkscape:window-maximized="1" />
  <metadata
     id="metadata5">
    <rdf:RDF>
      <cc:Work
         rdf:about="">
        <dc:format>image/svg+xml</dc:format>
        <dc:type
           rdf:resource="http://purl.org/dc/dcmitype/StillImage" />
        <dc:title></dc:title>
      </cc:Work>
    </rdf:RDF>
  </metadata>
  <g
     inkscape:label="Layer 1"
     inkscape:groupmode="layer"
     id="layer1">
    <path
       id="rect23"
       style="opacity:1;vector-effect:none;fill:#008000;fill-opacity:1;stroke:none;stroke-width:1.5;stroke-linecap:round;stroke-linejoin:round;stroke-miterlimit:4;stroke-dasharray:none;stroke-dashoffset:0;stroke-opacity:1"
       d="m 27.000048,242 h 46 c 1.108,0 2,0.892 2,2 v 6 c 0,1.108 -0.892,2 -2,2 h -46 c -1.108,0 -2,-0.892 -2,-2 v -6 c 0,-1.108 0.892,-2 2,-2 z M 15.000118,96.999762 C 6.6901181,96.999762 0,103.68988 0,111.99988 v 169.99997 c 0,8.30998 6.6901181,15.0001 15.000118,15.0001 H 84.99998 c 8.309999,0 15.00012,-6.69012 15.00012,-15.0001 V 111.99988 c 0,-8.31 -6.690121,-15.000118 -15.00012,-15.000118 z m 7.000089,10.000428 h 0.999939 c 1.108,0 1.999878,0.89187 1.999878,1.99987 v 35.99987 c 0,1.108 -0.891878,1.99988 -1.999878,1.99988 h -0.999939 c -1.108,0 -2.000394,-0.89188 -2.000394,-1.99988 v -35.99987 c 0,-1.108 0.892394,-1.99987 2.000394,-1.99987 z m 54.999744,0 h 0.999937 c 1.108001,0 1.99988,0.89187 1.99988,1.99987 v 35.99987 c 0,1.108 -0.891879,1.99988 -1.99988,1.99988 h -0.999937 c -1.108001,0 -1.99988,-0.89188 -1.99988,-1.99988 v -35.99987 c 0,-1.108 0.891879,-1.99987 1.99988,-1.99987 z M 50.000048,262.00003 a 10,10 0 0 1 9.999905,9.99989 10,10 0 0 1 -9.999905,9.99993 10,10 0 0 1 -9.999906,-9.99993 10,10 0 0 1 9.999906,-9.99989 z" />
  </g>
</svg>
